<?xml version="1.0" encoding="utf-8"?>
<!-- Generator: Adobe Illustrator 16.0.0, SVG Export Plug-In . SVG Version: 6.00 Build 0)  -->
<!DOCTYPE svg PUBLIC "-//W3C//DTD SVG 1.1//EN" "http://www.w3.org/Graphics/SVG/1.1/DTD/svg11.dtd">
<svg version="1.1" id="Layer_1" xmlns="http://www.w3.org/2000/svg" xmlns:xlink="http://www.w3.org/1999/xlink" x="0px" y="0px"
	 width="200px" height="200px" viewBox="0 0 200 200" enable-background="new 0 0 200 200" xml:space="preserve">
<g>
	<path d="M89.527,199.929l-17.264-12.313l-6.418,0.925l-10.316,11.271l-26.812-9.659l3.225-16.602l-7.779-4.549l-14.77,5.186
		l-8.886-24.951l13.658-7.992l1.502-10.306l-15.228-4.502l8.268-29.017h18.875l8.384-6.865l-8.438-15.792l28.737-10.347
		l9.931,17.044h8.637l11.731-17.26l24.924,11.665V92.99l3.785,4.429h10.893l14.958,18.004l-14.818,11.981l0.585,12.752l13.134,9.22
		l-7.546,27.251l-16.25-6.268l-11.857,5.051l3.006,14.072L89.527,199.929z M39.245,184.617l13.494,4.857l8.287-9.049l13.73-1.979
		l15.292,10.91l6.949-4.067l-3.192-14.947l22.244-9.463l10.104,3.891l3.304-11.928l-11.667-8.192l-0.969-21.082l11.537-9.327
		l-6.741-8.114h-10.813l-8.616-10.079V81.245l-12.281-5.748l-9.968,14.667H60.674l-8.672-14.883l-11.569,4.165l7.063,13.229
		l-16.417,13.451H15.851l-4.134,14.514l14.224,4.207l-3.147,21.616l-11.146,6.52l3.518,9.878l10.031-3.523l17.022,9.962
		L39.245,184.617z"/>
	<path d="M70.411,161.812c-17.417,0-31.585-13.265-31.585-29.567c0-16.301,14.168-29.563,31.585-29.563
		c17.415,0,31.584,13.262,31.584,29.563C101.995,148.547,87.825,161.812,70.411,161.812 M70.411,111.388
		c-12.286,0-22.285,9.355-22.285,20.856c0,11.503,9.999,20.86,22.285,20.86c12.287,0,22.283-9.357,22.283-20.86
		C92.693,120.743,82.698,111.388,70.411,111.388"/>
	<path d="M163.668,92.199l-11.575-8.256l-2.9,0.418l-7.067,7.718l-19.767-7.121l2.144-11.025l-3.447-2.016l-10.438,3.662
		l-6.719-18.864l9.322-5.457l0.692-4.729l-10.083-2.978l6.103-21.414h12.916l4.049-3.318L121.173,8.1l21.691-7.812l6.681,11.466
		h3.765l7.94-11.682l18.423,8.623v11.551l1.619,1.894h7.102l11.168,13.44l-10.214,8.258l0.313,6.841l8.801,6.179l-5.65,20.402
		l-11.645-4.487l-5.901,2.512l1.924,9.002L163.668,92.199z M132.886,79.424l6.451,2.321l5.036-5.499l10.212-1.469l9.607,6.849
		l2.616-1.53l-2.109-9.878l16.282-6.93l5.5,2.119l1.413-5.083l-7.336-5.151l-0.7-15.17l6.936-5.605l-2.952-3.552h-7.02l-6.449-7.547
		v-9.222l-5.78-2.705l-6.177,9.089h-14.394l-5.424-9.307l-4.527,1.631l4.359,8.163l-12.086,9.899h-9.269l-1.97,6.909l9.079,2.684
		L121.85,56.48l-6.812,3.987l1.352,3.79l5.7-2l12.688,7.426L132.886,79.424z"/>
	<path d="M151.322,67.075c-12.226,0-22.173-9.313-22.173-20.756c0-11.445,9.947-20.757,22.173-20.757
		c12.228,0,22.174,9.312,22.174,20.757C173.496,57.762,163.55,67.075,151.322,67.075 M151.322,34.268
		c-7.098,0-12.872,5.406-12.872,12.051c0,6.645,5.774,12.05,12.872,12.05s12.872-5.405,12.872-12.05
		C164.194,39.674,158.42,34.268,151.322,34.268"/>
</g>
</svg>
