<?xml version="1.0" encoding="utf-8"?>
<!-- Generator: Adobe Illustrator 16.0.0, SVG Export Plug-In . SVG Version: 6.00 Build 0)  -->
<!DOCTYPE svg PUBLIC "-//W3C//DTD SVG 1.1//EN" "http://www.w3.org/Graphics/SVG/1.1/DTD/svg11.dtd">
<svg version="1.1" id="Layer_1" xmlns="http://www.w3.org/2000/svg" xmlns:xlink="http://www.w3.org/1999/xlink" x="0px" y="0px"
	 width="200px" height="200px" viewBox="0 0 200 200" enable-background="new 0 0 200 200" xml:space="preserve">
<path d="M50.88,51.559c-7.277,0-13.195-5.92-13.195-13.196c0-7.275,5.918-13.195,13.195-13.195c7.276,0,13.196,5.92,13.196,13.195
	C64.076,45.639,58.156,51.559,50.88,51.559 M50.88,26.895c-6.324,0-11.467,5.145-11.467,11.467c0,6.324,5.143,11.468,11.467,11.468
	s11.468-5.144,11.468-11.468C62.348,32.04,57.204,26.895,50.88,26.895"/>
<path d="M20.934,183.888c-9.14,0-16.575-7.436-16.575-16.575c0-9.139,7.436-16.574,16.575-16.574s16.575,7.436,16.575,16.574
	C37.508,176.452,30.073,183.888,20.934,183.888 M20.934,152.467c-8.187,0-14.847,6.66-14.847,14.846
	c0,8.187,6.661,14.847,14.847,14.847c8.186,0,14.847-6.66,14.847-14.847C35.78,159.127,29.12,152.467,20.934,152.467"/>
<path d="M104.81,195.728c-1.756,0-3.54-0.246-5.308-0.763c-10.025-2.932-15.797-13.474-12.866-23.499
	c2.932-10.025,13.476-15.795,23.499-12.866c10.025,2.931,15.797,13.474,12.866,23.499
	C120.587,190.355,113.008,195.728,104.81,195.728 M104.826,159.565c-7.451,0-14.337,4.882-16.531,12.385
	c-2.664,9.111,2.58,18.692,11.691,21.355c9.109,2.664,18.692-2.58,21.355-11.692c2.663-9.111-2.582-18.69-11.691-21.354
	C108.043,159.789,106.422,159.565,104.826,159.565"/>
<path d="M161.328,159.027c-1.032,0-2.081-0.144-3.121-0.449c-2.856-0.833-5.218-2.731-6.646-5.343
	c-1.429-2.61-1.756-5.62-0.921-8.477c0.836-2.856,2.734-5.217,5.344-6.646c2.611-1.429,5.622-1.755,8.478-0.922
	c2.856,0.836,5.217,2.734,6.646,5.345c1.429,2.609,1.756,5.621,0.921,8.478C170.607,155.869,166.15,159.027,161.328,159.027
	 M161.32,138.468c-1.559,0-3.102,0.392-4.507,1.16c-2.205,1.208-3.809,3.202-4.515,5.616c-0.706,2.412-0.43,4.957,0.778,7.162
	c1.207,2.207,3.201,3.81,5.615,4.514c4.979,1.457,10.22-1.411,11.677-6.393c0.706-2.414,0.429-4.957-0.778-7.162
	c-1.207-2.206-3.202-3.81-5.614-4.515C163.101,138.594,162.207,138.468,161.32,138.468"/>
<path d="M173.299,42.117c-9.885,0-17.929-8.043-17.929-17.928c0-9.885,8.044-17.928,17.929-17.928s17.928,8.043,17.928,17.928
	C191.227,34.074,183.184,42.117,173.299,42.117 M173.299,7.989c-8.934,0-16.2,7.267-16.2,16.2c0,8.933,7.267,16.2,16.2,16.2
	c8.933,0,16.199-7.267,16.199-16.2C189.498,15.256,182.231,7.989,173.299,7.989"/>
<path d="M103.164,117.055c-4.474,0-9.004-1.137-13.149-3.529c-12.602-7.275-16.935-23.447-9.66-36.049
	c7.276-12.603,23.447-16.935,36.048-9.66c6.104,3.524,10.472,9.215,12.296,16.023c1.825,6.809,0.888,13.921-2.636,20.025
	C121.181,112.321,112.292,117.055,103.164,117.055 M103.252,66.014c-8.531,0-16.837,4.423-21.399,12.326
	c-6.799,11.776-2.75,26.889,9.026,33.687c11.775,6.801,26.888,2.751,33.688-9.025c3.293-5.705,4.169-12.351,2.464-18.713
	c-1.704-6.362-5.785-11.681-11.49-14.975C111.667,67.077,107.432,66.014,103.252,66.014"/>
<path d="M103.165,117.919c-4.754,0-9.451-1.262-13.583-3.646c-6.295-3.634-10.8-9.513-12.686-16.551
	c-1.886-7.04-0.924-14.384,2.711-20.678c7.515-13.014,24.213-17.489,37.229-9.976c6.304,3.64,10.813,9.517,12.696,16.549
	c1.886,7.03,0.919,14.375-2.721,20.68C121.961,112.7,112.899,117.919,103.165,117.919 M103.252,66.877
	c-8.503,0-16.416,4.558-20.651,11.895c-3.174,5.496-4.014,11.907-2.367,18.055c1.647,6.146,5.581,11.278,11.077,14.451
	c11.364,6.562,25.946,2.654,32.506-8.71c3.18-5.504,4.024-11.917,2.379-18.057c-1.646-6.141-5.583-11.271-11.088-14.449
	C111.501,67.979,107.402,66.877,103.252,66.877 M89.362,112.113c0.354,0.229,0.716,0.45,1.085,0.663
	c0.238,0.138,0.479,0.271,0.72,0.399c-0.241-0.129-0.481-0.262-0.72-0.399C90.078,112.563,89.717,112.343,89.362,112.113
	 M128.736,90.006c0.131,4.663-1.029,9.284-3.422,13.427c-0.129,0.225-0.263,0.447-0.398,0.666c0.137-0.22,0.27-0.441,0.398-0.666
	C127.707,99.29,128.867,94.669,128.736,90.006 M100.67,65.28c-7.893,0.8-15.306,5.249-19.566,12.628
	c-0.215,0.372-0.418,0.746-0.613,1.124c0.194-0.379,0.398-0.753,0.613-1.124C85.215,70.786,92.556,66.106,100.67,65.28
	 M104.233,65.168c4.115,0.161,8.154,1.327,11.738,3.396c0.841,0.486,1.646,1.014,2.418,1.581c-0.771-0.568-1.577-1.095-2.418-1.581
	C112.266,66.425,108.24,65.324,104.233,65.168"/>
<rect x="59.876" y="98.435" transform="matrix(0.6566 0.7543 -0.7543 0.6566 122.023 0.5445)" width="1.075" height="71.671"/>
<path d="M33.717,158.511l-0.989-1.137l54.38-47.344l0.991,1.137L33.717,158.511z M33.336,157.417l0.423,0.485l53.73-46.778
	l-0.423-0.484L33.336,157.417z"/>
<rect x="54.049" y="58.976" transform="matrix(0.7094 0.7048 -0.7048 0.7094 62.9977 -33.7542)" width="36.758" height="1.074"/>
<path d="M85.089,73.307L58.554,46.941l1.213-1.223l26.535,26.366L85.089,73.307z M59.471,46.937L85.086,72.39l0.3-0.302
	L59.77,46.635L59.471,46.937z"/>
<rect x="141.134" y="28.003" transform="matrix(0.6843 0.7292 -0.7292 0.6843 84.8086 -85.9597)" width="1.075" height="53.91"/>
<path d="M122.361,74.244l-1.182-1.255l39.801-37.317l1.18,1.255L122.361,74.244z M122.098,73.018l0.292,0.312l38.854-36.432
	l-0.292-0.312L122.098,73.018z"/>
<rect x="114.911" y="123.54" transform="matrix(0.7787 0.6274 -0.6274 0.7787 108.6227 -59.1404)" width="46.465" height="1.729"/>
<rect x="104.28" y="116.141" width="1.077" height="42.644"/>
<path d="M105.789,159.217h-1.94v-43.509h1.94V159.217z M104.713,158.353h0.212v-41.78h-0.212V158.353z"/>
</svg>
