<?xml version="1.0" standalone="no"?>
<!DOCTYPE svg PUBLIC "-//W3C//DTD SVG 20010904//EN"
 "http://www.w3.org/TR/2001/REC-SVG-20010904/DTD/svg10.dtd">
<svg version="1.0" xmlns="http://www.w3.org/2000/svg"
 width="620.000000pt" height="350.000000pt" viewBox="0 0 620.000000 350.000000"
 preserveAspectRatio="xMidYMid meet">

<g transform="translate(0.000000,350.000000) scale(0.100000,-0.100000)"
fill="#000000" stroke="none">
<path d="M1645 2622 c-10 -3 -30 -11 -42 -19 -20 -13 -21 -17 -9 -27 7 -6 16
-27 20 -46 19 -120 27 -544 12 -682 -7 -64 -7 -68 13 -68 31 0 72 40 65 63 -5
16 -9 304 -5 439 1 53 -12 46 151 82 95 22 160 53 160 78 0 10 7 18 15 18 16
0 35 30 35 55 0 36 -53 62 -175 85 -22 4 -47 10 -55 13 -18 8 -157 14 -185 9z
m131 -51 c5 -5 34 -11 64 -12 64 -3 133 -37 138 -67 6 -38 -60 -92 -112 -92
-14 0 -28 -4 -31 -10 -3 -5 -35 -10 -71 -10 -60 0 -65 2 -74 26 -6 14 -8 47
-6 72 2 26 4 59 5 75 1 24 4 27 39 27 21 0 42 -4 48 -9z"/>
<path d="M623 2608 c-12 -20 -3 -302 10 -310 8 -5 7 -14 -3 -32 -11 -21 -11
-36 -2 -77 7 -28 9 -56 5 -62 -7 -12 -14 -207 -7 -218 2 -4 15 -2 29 4 24 12
25 15 24 108 -1 106 5 139 27 139 8 0 14 5 14 10 0 15 125 13 138 -3 12 -14
16 -116 7 -195 -7 -64 -1 -76 28 -61 33 18 35 25 32 116 -2 47 0 95 5 107 9
25 -1 48 -37 84 -20 20 -30 22 -88 19 -38 -3 -76 -12 -91 -22 -14 -9 -28 -15
-30 -12 -7 7 -7 371 0 395 7 19 4 22 -23 22 -16 0 -33 -6 -38 -12z"/>
<path d="M3855 2587 c-175 -60 -248 -115 -260 -193 -4 -27 -2 -52 6 -66 18
-34 61 -68 86 -68 12 0 25 -4 28 -10 4 -6 55 -10 119 -10 264 0 334 -46 302
-199 -13 -65 -18 -78 -61 -148 -20 -33 -88 -73 -124 -73 -11 0 -23 -4 -26 -10
-3 -5 -25 -10 -49 -10 -40 0 -44 2 -61 40 -14 31 -16 43 -7 52 7 7 12 20 12
30 0 23 -32 24 -67 1 l-26 -17 7 27 c4 19 3 27 -7 27 -21 0 -47 -55 -47 -99 0
-23 -4 -41 -8 -41 -5 0 -26 9 -49 19 -47 23 -90 76 -95 116 -4 40 -24 42 -43
6 -14 -27 -14 -34 -1 -58 16 -31 70 -83 86 -83 6 0 29 -9 50 -20 32 -16 40
-26 40 -48 0 -53 -13 -58 -72 -30 -29 15 -75 36 -103 48 -27 12 -63 28 -79 36
-16 8 -35 14 -43 14 -7 0 -13 4 -13 8 0 12 -89 42 -105 36 -8 -4 -15 -9 -15
-13 0 -4 -21 -30 -47 -58 -27 -28 -76 -82 -110 -120 -34 -38 -74 -83 -90 -100
-46 -52 -63 -76 -63 -93 0 -8 19 -35 41 -60 23 -25 72 -79 109 -120 38 -41 78
-86 90 -100 146 -170 198 -220 226 -220 13 0 26 -5 29 -10 3 -6 14 -10 23 -10
20 0 148 -38 181 -53 26 -13 8 -29 198 179 138 150 168 186 175 206 8 19 8 19
-91 128 -22 25 -41 48 -41 53 0 4 12 7 26 7 14 0 32 7 40 15 14 13 14 16 0 21
-23 9 -20 19 19 58 40 40 47 89 18 112 -22 16 -87 18 -115 3 -26 -14 -31 -8
-23 34 6 31 11 36 43 40 130 20 177 42 253 119 67 68 99 148 99 247 0 81 -16
113 -70 137 -14 6 -36 17 -50 23 -14 7 -74 13 -132 14 -59 2 -110 6 -114 10
-13 12 -92 8 -97 -5 -4 -10 -8 -10 -14 -2 -4 7 -24 21 -43 31 -68 38 -61 105
15 150 110 63 163 77 277 71 107 -6 118 -3 118 23 0 18 -8 19 -112 18 -62 -1
-126 -6 -143 -12z m-546 -810 c20 -22 53 -59 73 -81 21 -23 38 -44 38 -47 0
-4 -12 -20 -27 -37 -16 -16 -37 -40 -48 -54 -65 -77 -136 -159 -180 -206 l-50
-53 -82 88 c-45 48 -82 93 -83 98 0 6 19 30 43 55 23 25 67 75 97 110 97 114
163 180 173 173 5 -3 26 -24 46 -46z m451 33 c0 -5 -4 -10 -10 -10 -5 0 -10 5
-10 10 0 6 5 10 10 10 6 0 10 -4 10 -10z m-343 -37 c57 -29 83 -50 118 -95 43
-56 44 -58 21 -58 -14 0 -28 5 -31 10 -3 6 -17 10 -30 10 -15 0 -37 15 -62 42
-21 23 -47 51 -58 63 -53 58 -58 65 -44 65 7 0 46 -17 86 -37z m360 -17 c6 -5
-47 -105 -58 -112 -17 -10 -41 25 -35 51 17 69 25 78 58 71 17 -3 33 -8 35
-10z m-164 -68 c31 -15 44 -45 28 -61 -8 -8 -21 -1 -46 26 -19 20 -35 39 -35
42 0 9 25 5 53 -7z m296 -53 c2 -2 -7 -20 -19 -40 -21 -34 -25 -36 -69 -33
-38 2 -47 7 -49 24 -3 22 25 47 63 57 19 5 66 0 74 -8z m-209 -26 c0 -5 -4 -9
-10 -9 -5 0 -10 7 -10 16 0 8 5 12 10 9 6 -3 10 -10 10 -16z m-144 -105 c44
-47 89 -97 102 -111 l23 -25 -53 -61 c-29 -34 -74 -84 -99 -112 -26 -27 -66
-73 -90 -102 -24 -28 -51 -54 -59 -58 -10 -4 -29 10 -59 42 -24 26 -67 73 -97
104 -30 31 -54 60 -54 64 0 4 33 44 73 89 93 104 91 103 162 185 33 38 63 70
66 70 4 1 42 -38 85 -85z m42 59 c25 -6 50 -28 135 -122 53 -59 67 -81 50 -81
-30 0 -84 33 -122 74 -25 28 -63 68 -83 90 -41 44 -48 62 -20 51 9 -4 27 -10
40 -12z m167 -73 c3 -5 15 -10 27 -10 25 0 178 -152 159 -158 -29 -10 -92 22
-124 62 -17 22 -44 54 -59 72 -16 17 -28 34 -28 38 0 10 18 7 25 -4z m8 -146
c34 -8 34 -21 -1 -59 -15 -16 -56 -64 -92 -105 -36 -41 -82 -94 -104 -117 -21
-23 -45 -52 -53 -63 -8 -11 -21 -20 -30 -20 -14 0 -81 19 -92 27 -4 3 41 64
72 96 43 45 123 133 176 195 43 50 59 62 75 57 12 -3 33 -8 49 -11z m112 -34
c3 -5 17 -10 30 -10 13 0 27 -5 30 -10 5 -9 -60 -92 -130 -166 -42 -44 -111
-122 -135 -152 -28 -35 -70 -42 -104 -17 -18 13 -14 20 70 116 122 139 123
140 172 198 44 52 56 59 67 41z"/>
<path d="M0 2558 c0 -15 10 -18 60 -18 l60 0 1 -32 c0 -18 3 -44 6 -58 7 -41
6 -570 -2 -629 -6 -48 -5 -53 10 -47 9 3 20 6 24 6 4 0 16 8 27 19 20 18 20
28 16 307 -2 178 -8 291 -14 295 -7 4 -6 13 1 27 6 11 11 36 11 56 0 19 4 37
9 40 5 3 84 6 175 7 132 1 170 4 181 16 8 8 15 19 15 24 0 13 -140 10 -156 -3
-7 -5 -61 -6 -120 -4 -285 13 -304 12 -304 -6z"/>
<path d="M4337 2366 c-15 -11 -18 -26 -16 -65 3 -47 -3 -65 -19 -67 -46 -6
-59 -50 -14 -49 l27 0 5 -127 c4 -111 7 -129 24 -141 32 -24 137 9 154 48 14
31 1 40 -25 16 -26 -25 -55 -33 -73 -21 -15 9 -29 131 -22 193 3 25 7 27 48
27 48 0 94 23 94 47 0 13 -10 14 -53 9 -84 -11 -89 -6 -81 75 6 63 5 69 -12
69 -11 0 -27 -7 -37 -14z"/>
<path d="M1165 2243 c-37 -8 -75 -25 -75 -34 0 -5 -5 -9 -10 -9 -16 0 -55 -42
-74 -78 -30 -59 -18 -121 35 -171 31 -30 36 -31 119 -31 95 0 152 17 170 49
23 44 0 56 -36 18 -12 -12 -45 -29 -74 -36 -59 -15 -85 -7 -132 42 -28 30 -51
89 -42 112 7 16 108 28 173 19 102 -13 131 20 69 78 -46 43 -73 52 -123 41z
m59 -49 c9 -8 14 -20 11 -25 -7 -11 -135 -12 -135 -1 0 16 16 30 40 35 49 9
69 7 84 -9z"/>
<path d="M2876 2243 c-27 -4 -102 -49 -132 -78 -22 -22 -44 -75 -44 -108 0
-41 42 -108 78 -125 37 -17 171 -15 215 3 39 16 65 51 50 66 -6 6 -21 -1 -39
-16 -16 -13 -52 -30 -81 -36 -51 -12 -53 -12 -97 22 -47 36 -54 45 -66 94 -12
50 7 59 134 60 154 2 149 1 140 27 -12 39 -93 103 -122 97 -4 -1 -20 -4 -36
-6z m55 -43 c10 -6 19 -17 19 -25 0 -12 -15 -15 -69 -15 -74 0 -95 10 -58 28
49 24 79 27 108 12z"/>
<path d="M3270 2244 c-8 -3 -24 -9 -35 -14 -44 -18 -55 -19 -55 -5 0 18 -45
21 -56 4 -4 -7 -7 -80 -7 -163 0 -142 1 -151 19 -148 38 7 43 21 40 115 -3
106 5 140 40 156 31 14 94 15 94 1 0 -5 6 -10 13 -10 16 0 41 40 30 50 -11 11
-65 20 -83 14z"/>
<path d="M5145 2243 c-11 -2 -30 -9 -42 -15 -18 -9 -29 -8 -49 2 -18 10 -30
11 -41 4 -13 -8 -16 -34 -16 -164 0 -146 1 -155 19 -152 38 7 43 21 39 105 -3
107 7 148 42 165 32 15 79 16 88 2 3 -5 12 -10 18 -10 16 0 41 40 30 50 -11
11 -64 19 -88 13z"/>
<path d="M5383 2242 c-43 -9 -140 -80 -153 -112 -11 -28 -14 -50 -12 -99 2
-26 12 -44 42 -73 l41 -38 94 0 c52 0 97 4 100 10 3 6 14 10 24 10 10 0 23 11
29 25 23 50 8 60 -31 21 -13 -12 -46 -29 -74 -35 -43 -11 -56 -10 -80 2 -41
22 -79 69 -86 108 -11 59 -2 64 125 62 62 -1 121 1 131 3 27 8 20 31 -20 74
-40 42 -74 53 -130 42z m65 -44 c28 -28 13 -38 -54 -38 -56 0 -65 2 -62 17 5
28 93 44 116 21z"/>
<path d="M1975 2224 c-22 -7 -48 -17 -57 -20 -21 -7 -22 -16 -6 -32 13 -13 48
-16 48 -4 0 4 13 16 30 25 52 31 140 0 140 -48 0 -32 -20 -45 -67 -45 -24 0
-51 -4 -61 -9 -9 -5 -37 -18 -62 -30 -26 -13 -53 -35 -63 -53 -18 -31 -18 -32
1 -57 29 -39 79 -52 149 -39 32 5 66 14 75 19 12 6 20 4 26 -7 11 -20 59 -9
67 17 8 24 -3 173 -16 219 -5 19 -21 44 -36 54 -34 25 -115 30 -168 10z m158
-161 c14 -9 7 -70 -10 -85 -45 -37 -141 -52 -167 -25 -30 30 -36 54 -17 71 41
37 95 56 141 50 25 -3 48 -8 53 -11z"/>
<path d="M2410 2230 c-19 -4 -43 -11 -52 -15 -11 -4 -18 -3 -18 4 0 16 -26 13
-44 -5 -14 -13 -15 -38 -10 -172 3 -86 5 -170 5 -187 0 -16 0 -55 1 -85 0 -30
0 -64 0 -75 0 -11 -2 -46 -6 -77 -6 -57 -6 -58 19 -58 26 0 62 41 51 59 -3 5
-8 74 -10 154 l-4 145 82 -1 c86 -1 107 7 170 65 11 10 23 18 26 18 10 0 40
68 40 90 0 26 -20 71 -41 92 -54 54 -116 68 -209 48z m65 -40 c3 -5 14 -10 24
-10 30 0 67 -23 84 -53 32 -55 17 -108 -41 -146 -30 -20 -49 -24 -101 -23 -83
1 -94 12 -99 102 -5 91 2 120 31 120 12 0 29 5 37 10 20 13 57 13 65 0z"/>
<path d="M4675 2227 c-11 -6 -22 -14 -25 -17 -3 -3 -16 -11 -30 -18 -39 -20
-72 -77 -78 -133 -9 -91 44 -147 148 -157 56 -5 166 30 192 61 10 12 22 27 28
34 15 18 22 130 9 154 -17 33 -42 60 -69 73 -33 17 -149 19 -175 3z m130 -36
c41 -34 54 -54 61 -97 10 -70 -9 -114 -63 -142 -27 -15 -119 -16 -128 -2 -3 6
-14 10 -24 10 -20 0 -51 58 -51 97 0 27 29 103 40 103 3 0 16 9 28 21 13 11
32 22 44 24 11 3 23 7 26 10 8 8 44 -5 67 -24z"/>
<path d="M4145 1587 c-48 -29 -75 -75 -75 -128 0 -44 33 -99 59 -99 6 0 11 -4
11 -10 0 -6 31 -10 74 -10 l75 0 -2 33 c0 17 3 39 7 48 6 14 0 17 -34 21 -44
4 -64 -6 -30 -15 15 -4 20 -14 20 -36 0 -30 -2 -31 -43 -31 -33 0 -48 6 -64
24 -25 29 -37 76 -28 115 16 73 106 109 141 56 21 -32 33 -32 26 1 -7 41 -90
59 -137 31z"/>
<path d="M4600 1590 c0 -3 -39 -3 -87 -2 -72 3 -86 1 -75 -9 8 -9 12 -47 12
-115 0 -109 -8 -126 -51 -104 -17 9 -19 22 -19 102 0 71 4 96 17 110 15 17 14
18 -31 18 -47 0 -47 0 -32 -22 22 -31 22 -180 1 -202 -8 -8 -15 -17 -15 -20 0
-3 45 -6 100 -6 60 0 100 4 100 10 0 6 -7 10 -16 10 -12 0 -14 10 -12 48 3 39
6 47 25 50 13 2 27 -5 36 -18 8 -12 17 -18 20 -13 8 15 6 73 -4 73 -5 0 -9 -4
-9 -10 0 -5 -16 -10 -36 -10 l-35 0 3 48 c3 45 4 47 32 45 17 -1 34 -9 38 -18
10 -16 48 -21 48 -6 0 7 51 31 66 31 2 0 4 -49 4 -110 0 -67 -4 -110 -10 -110
-5 0 -10 -4 -10 -10 0 -5 20 -10 45 -10 25 0 45 5 45 10 0 6 -6 10 -14 10 -12
0 -15 19 -14 100 2 120 5 128 47 110 17 -7 31 -16 31 -21 0 -5 5 -9 10 -9 6 0
10 12 10 28 l0 27 -110 0 c-61 0 -110 -2 -110 -5z"/>
<path d="M4858 1586 c-26 -19 -38 -59 -25 -82 11 -20 58 -64 68 -64 11 0 28
-50 23 -65 -9 -24 -71 -20 -79 5 -7 23 -25 27 -25 6 0 -36 12 -46 57 -46 53 0
83 26 83 71 0 29 -11 43 -66 85 -37 28 -43 54 -19 74 13 11 20 11 40 0 14 -7
25 -17 25 -22 0 -4 5 -8 10 -8 16 0 12 18 -10 40 -23 23 -57 25 -82 6z"/>
<path d="M5785 1587 c-68 -41 -94 -121 -61 -186 22 -41 58 -61 113 -61 77 0
123 51 123 136 0 42 -4 51 -40 86 -33 30 -48 38 -78 37 -20 0 -46 -6 -57 -12z
m86 -20 c25 -19 49 -73 49 -109 0 -18 -9 -48 -20 -66 -19 -30 -24 -33 -62 -30
-36 3 -45 8 -62 37 -13 23 -20 51 -19 85 1 41 5 54 27 73 30 25 62 29 87 10z"/>
<path d="M5424 1571 c18 -20 18 -28 8 -113 -6 -51 -16 -94 -22 -96 -23 -8 -7
-22 25 -22 19 0 35 5 35 10 0 6 -5 10 -10 10 -7 0 -10 26 -9 65 2 62 14 85 25
48 12 -41 58 -133 66 -133 4 0 14 15 21 33 39 91 60 128 67 115 9 -19 0 -128
-11 -128 -5 0 -9 -4 -9 -10 0 -5 18 -10 40 -10 40 0 48 7 31 26 -5 5 -11 51
-13 103 -3 70 -1 94 9 98 22 9 14 23 -12 23 -22 0 -31 -12 -66 -85 -23 -47
-45 -85 -49 -85 -8 0 -46 74 -66 130 -10 29 -17 36 -45 38 -33 4 -33 4 -15
-17z"/>
<path d="M5980 1582 c0 -6 5 -14 10 -17 6 -3 10 -50 10 -106 0 -59 -4 -99 -10
-99 -5 0 -10 -4 -10 -10 0 -5 18 -10 40 -10 22 0 40 5 40 10 0 6 -4 10 -10 10
-13 0 -13 77 -1 85 10 5 41 -21 41 -35 0 -4 13 -22 29 -39 28 -30 81 -44 81
-21 0 6 -5 10 -11 10 -13 0 -28 16 -52 52 -21 33 -22 55 -2 74 19 20 19 68 0
84 -20 16 -155 27 -155 12z m121 -34 c21 -40 -17 -94 -51 -73 -10 6 -14 87 -4
97 10 11 45 -4 55 -24z"/>
<path d="M5102 1560 c-15 -24 -16 -52 -2 -66 7 -7 2 -18 -15 -34 -29 -27 -32
-65 -9 -98 11 -16 25 -22 55 -22 21 0 39 4 39 9 0 18 34 22 46 6 14 -18 95
-18 101 1 2 7 -8 9 -26 6 -23 -3 -33 1 -46 22 -16 25 -16 27 12 70 15 25 33
45 40 46 6 0 15 5 18 10 4 6 -10 10 -35 10 -34 0 -41 -3 -36 -15 6 -17 -13
-65 -26 -65 -17 0 -63 53 -50 58 13 4 16 40 6 66 -9 23 -57 20 -72 -4z m56
-22 c-2 -13 -10 -23 -18 -23 -8 0 -16 10 -18 23 -3 17 2 22 18 22 16 0 21 -5
18 -22z m2 -99 c38 -40 38 -53 -1 -70 -29 -12 -33 -11 -51 11 -20 25 -17 68 5
82 16 10 13 12 47 -23z"/>
</g>
</svg>
