<?xml version="1.0" encoding="utf-8"?>
<!-- Generator: Adobe Illustrator 16.0.0, SVG Export Plug-In . SVG Version: 6.00 Build 0)  -->
<!DOCTYPE svg PUBLIC "-//W3C//DTD SVG 1.1//EN" "http://www.w3.org/Graphics/SVG/1.1/DTD/svg11.dtd">
<svg version="1.1" xmlns="http://www.w3.org/2000/svg" xmlns:xlink="http://www.w3.org/1999/xlink" x="0px" y="0px" width="317px"
	 height="67px" viewBox="0 0 317 67" enable-background="new 0 0 317 67" xml:space="preserve">
<g id="Layer_1">
	<g id="Layer_1_1_">
		<g>
			<g>
				<path stroke="#000000" stroke-miterlimit="10" d="M59.847,37.799l1.987,0.514c-0.429,1.662-1.169,2.929-2.259,3.799
					c-1.091,0.871-2.416,1.307-3.974,1.307c-1.636,0-2.961-0.316-3.974-0.988c-1.013-0.673-1.792-1.662-2.337-2.929
					s-0.779-2.651-0.779-4.115c0-1.583,0.312-2.968,0.896-4.155c0.584-1.188,1.441-2.097,2.571-2.691
					c1.091-0.633,2.337-0.91,3.662-0.91c1.52,0,2.766,0.396,3.818,1.187c1.013,0.792,1.753,1.86,2.143,3.284l-1.948,0.475
					c-0.351-1.108-0.857-1.939-1.519-2.414c-0.663-0.515-1.52-0.752-2.494-0.752c-1.168,0-2.143,0.277-2.921,0.831
					c-0.779,0.554-1.325,1.306-1.636,2.255c-0.311,0.949-0.468,1.939-0.468,2.928c0,1.307,0.195,2.453,0.545,3.403
					c0.39,0.989,0.935,1.702,1.753,2.177c0.779,0.475,1.636,0.712,2.571,0.712c1.13,0,2.065-0.317,2.844-0.989
					C59.068,40.055,59.575,39.064,59.847,37.799z"/>
				<path stroke="#000000" stroke-miterlimit="10" d="M68.535,43.141v-6.49l-5.805-8.823h2.416l2.96,4.63
					c0.545,0.871,1.052,1.741,1.52,2.572c0.467-0.791,1.013-1.701,1.636-2.69l2.921-4.511h2.337l-5.999,8.824v6.49h-1.986V43.141z"
					/>
				<path stroke="#000000" stroke-miterlimit="10" d="M78.274,43.141V27.827h5.648c1.169,0,2.065,0.158,2.766,0.475
					c0.701,0.316,1.247,0.792,1.636,1.424c0.39,0.633,0.584,1.306,0.584,2.018c0,0.673-0.156,1.266-0.506,1.86
					c-0.351,0.593-0.896,1.029-1.597,1.384c0.896,0.277,1.597,0.752,2.104,1.386c0.507,0.673,0.74,1.425,0.74,2.335
					c0,0.711-0.156,1.385-0.428,2.018c-0.312,0.633-0.663,1.107-1.091,1.424c-0.429,0.316-0.974,0.595-1.636,0.752
					c-0.662,0.158-1.48,0.238-2.416,0.238H78.274z M80.261,34.277h3.272c0.896,0,1.52-0.041,1.909-0.159
					c0.506-0.158,0.896-0.396,1.129-0.751c0.273-0.356,0.39-0.792,0.39-1.346c0-0.514-0.117-0.95-0.351-1.345
					c-0.233-0.396-0.584-0.633-1.013-0.792c-0.429-0.159-1.208-0.198-2.298-0.198h-3v4.591H80.261z M80.261,41.359H84
					c0.662,0,1.091-0.039,1.363-0.079c0.468-0.079,0.857-0.237,1.169-0.436c0.312-0.198,0.545-0.476,0.779-0.831
					c0.195-0.355,0.312-0.791,0.312-1.306c0-0.556-0.156-1.067-0.429-1.504s-0.701-0.713-1.208-0.871
					c-0.507-0.158-1.247-0.237-2.221-0.237h-3.467v5.264H80.261z"/>
				<path stroke="#000000" stroke-miterlimit="10" d="M92.415,43.141V27.827h10.908v1.82h-8.921v4.669h8.337v1.779h-8.337v5.225
					h9.233v1.82H92.415L92.415,43.141z"/>
				<path stroke="#000000" stroke-miterlimit="10" d="M106.439,43.141V27.827h6.662c1.325,0,2.376,0.119,3.078,0.396
					c0.701,0.277,1.247,0.751,1.675,1.464c0.428,0.712,0.623,1.464,0.623,2.295c0,1.068-0.351,2.018-1.052,2.73
					c-0.701,0.752-1.753,1.228-3.194,1.425c0.545,0.277,0.935,0.514,1.208,0.752c0.584,0.555,1.13,1.228,1.636,2.019l2.61,4.153
					h-2.493l-1.987-3.164c-0.584-0.91-1.052-1.623-1.441-2.098c-0.39-0.476-0.701-0.832-1.013-1.029
					c-0.312-0.196-0.584-0.315-0.896-0.396c-0.234-0.04-0.584-0.079-1.091-0.079h-2.337v6.807h-1.987L106.439,43.141L106.439,43.141
					z M108.426,34.594h4.285c0.896,0,1.636-0.08,2.143-0.277c0.506-0.197,0.896-0.515,1.169-0.909
					c0.272-0.436,0.39-0.871,0.39-1.385c0-0.712-0.273-1.306-0.779-1.78c-0.506-0.475-1.325-0.712-2.455-0.712h-4.752
					L108.426,34.594L108.426,34.594z"/>
				<path stroke="#000000" stroke-miterlimit="10" d="M121.594,43.141V27.827h2.025l7.908,12.028V27.827h1.909v15.313h-2.026
					l-7.908-12.03v12.03H121.594z"/>
				<path stroke="#000000" stroke-miterlimit="10" d="M136.865,43.141V27.827h10.908v1.82h-8.882v4.669h8.336v1.779h-8.336v5.225
					h9.232v1.82H136.865L136.865,43.141z"/>
				<path stroke="#000000" stroke-miterlimit="10" d="M154.668,43.141V29.647h-4.948v-1.82h11.92v1.82h-4.987v13.494H154.668z"/>
				<path stroke="#000000" stroke-miterlimit="10" d="M164.057,43.141V27.827h1.986v15.313H164.057z"/>
				<path stroke="#000000" stroke-miterlimit="10" d="M180.302,37.799l1.986,0.514c-0.429,1.662-1.169,2.929-2.261,3.799
					c-1.09,0.871-2.414,1.307-3.973,1.307c-1.637,0-2.961-0.316-3.974-0.988c-1.015-0.673-1.793-1.662-2.338-2.929
					s-0.779-2.651-0.779-4.115c0-1.583,0.312-2.968,0.896-4.155c0.584-1.188,1.441-2.097,2.572-2.691
					c1.09-0.633,2.336-0.91,3.66-0.91c1.52,0,2.768,0.396,3.818,1.187c1.013,0.792,1.753,1.86,2.143,3.284l-1.947,0.475
					c-0.352-1.108-0.856-1.939-1.521-2.414c-0.662-0.515-1.519-0.752-2.493-0.752c-1.168,0-2.143,0.277-2.922,0.831
					c-0.777,0.554-1.324,1.306-1.636,2.255c-0.312,0.949-0.468,1.939-0.468,2.928c0,1.307,0.194,2.453,0.545,3.403
					c0.391,0.989,0.936,1.702,1.754,2.177c0.779,0.475,1.636,0.712,2.57,0.712c1.131,0,2.064-0.317,2.844-0.989
					C179.482,40.055,180.027,39.064,180.302,37.799z"/>
				<path stroke="#000000" stroke-miterlimit="10" d="M195.807,43.141l3.155-15.313h6.312c1.246,0,2.182,0.119,2.844,0.317
					c0.662,0.198,1.13,0.593,1.52,1.187c0.352,0.593,0.547,1.306,0.547,2.216c0,1.227-0.391,2.295-1.209,3.086
					c-0.817,0.831-2.104,1.346-3.896,1.582c0.545,0.396,0.974,0.832,1.246,1.229c0.624,0.908,1.13,1.818,1.521,2.77l1.168,2.889
					h-2.26l-1.091-2.849c-0.39-1.028-0.817-1.938-1.324-2.69c-0.351-0.515-0.7-0.871-1.052-1.028
					c-0.352-0.158-0.936-0.237-1.753-0.237h-2.339l-1.401,6.807h-1.985v0.037H195.807z M199.546,34.712h2.767
					c1.285,0,2.144,0,2.531-0.04c0.779-0.078,1.403-0.236,1.87-0.514c0.468-0.277,0.856-0.633,1.13-1.108
					c0.272-0.475,0.391-0.95,0.391-1.464c0-0.435-0.117-0.831-0.313-1.147s-0.468-0.554-0.779-0.673
					c-0.311-0.119-0.856-0.158-1.636-0.158h-4.909L199.546,34.712z"/>
				<path stroke="#000000" stroke-miterlimit="10" d="M210.96,43.141l3.156-15.313h10.868l-0.352,1.741h-8.843l-0.974,4.749h8.647
					l-0.351,1.74h-8.648l-1.091,5.342h9.466l-0.351,1.742H210.96z"/>
				<path stroke="#000000" stroke-miterlimit="10" d="M228.842,43.141l2.766-13.573h-4.946l0.351-1.741h11.844l-0.352,1.741h-4.908
					l-2.767,13.573H228.842z"/>
				<path stroke="#000000" stroke-miterlimit="10" d="M234.919,43.141l8.531-15.313h2.376l2.494,15.313h-1.948l-0.74-4.393h-6.077
					l-2.414,4.393H234.919z M240.412,37.165h4.986l-0.586-3.838c-0.232-1.543-0.351-2.81-0.429-3.799
					c-0.35,0.871-0.856,1.899-1.519,3.126L240.412,37.165z"/>
				<path stroke="#000000" stroke-miterlimit="10" d="M250.579,43.141l3.155-15.313h1.986l-3.154,15.313H250.579z"/>
				<path stroke="#000000" stroke-miterlimit="10" d="M256.072,43.141l3.154-15.313h2.026l-2.767,13.571h7.83l-0.352,1.742H256.072z
					"/>
			</g>
			<line stroke="#000000" stroke-miterlimit="10" x1="193.04" y1="15.046" x2="186.689" y2="64.35"/>
		</g>
	</g>
	<g id="Layer_2">
		<linearGradient id="SVGID_1_" gradientUnits="userSpaceOnUse" x1="33.5" y1="17.0186" x2="58.9819" y2="17.0186">
			<stop  offset="0" style="stop-color:#FFFFFF"/>
			<stop  offset="1" style="stop-color:#000000"/>
		</linearGradient>
		<polygon fill="#2A348B" stroke="url(#SVGID_1_)" stroke-miterlimit="10" points="58,0 34,0 34,33 		"/>
		<linearGradient id="SVGID_2_" gradientUnits="userSpaceOnUse" x1="33.5" y1="49.9814" x2="58.9819" y2="49.9814">
			<stop  offset="0" style="stop-color:#FFFFFF"/>
			<stop  offset="1" style="stop-color:#000000"/>
		</linearGradient>
		<polygon fill="#2A348B" stroke="url(#SVGID_2_)" stroke-miterlimit="10" points="58,67 34,67 34,34 		"/>
		<linearGradient id="SVGID_3_" gradientUnits="userSpaceOnUse" x1="-1.207" y1="16.1465" x2="33.5" y2="16.1465">
			<stop  offset="0" style="stop-color:#FFFFFF"/>
			<stop  offset="1" style="stop-color:#000000"/>
		</linearGradient>
		<polygon fill="#2A348B" stroke="url(#SVGID_3_)" stroke-miterlimit="10" points="33,0 33,33 0,33 		"/>
		<linearGradient id="SVGID_4_" gradientUnits="userSpaceOnUse" x1="-1.207" y1="50.8535" x2="33.5" y2="50.8535">
			<stop  offset="0" style="stop-color:#FFFFFF"/>
			<stop  offset="1" style="stop-color:#000000"/>
		</linearGradient>
		<polygon fill="#2A348B" stroke="url(#SVGID_4_)" stroke-miterlimit="10" points="0,34 33,34 33,67 		"/>
		<linearGradient id="SVGID_5_" gradientUnits="userSpaceOnUse" x1="258.0186" y1="17.0186" x2="283.5" y2="17.0186">
			<stop  offset="0" style="stop-color:#FFFFFF"/>
			<stop  offset="1" style="stop-color:#000000"/>
		</linearGradient>
		<polygon fill="#2A348B" stroke="url(#SVGID_5_)" stroke-miterlimit="10" points="259,0 283,0 283,33 		"/>
		<linearGradient id="SVGID_6_" gradientUnits="userSpaceOnUse" x1="258.0186" y1="49.9814" x2="283.5" y2="49.9814">
			<stop  offset="0" style="stop-color:#FFFFFF"/>
			<stop  offset="1" style="stop-color:#000000"/>
		</linearGradient>
		<polygon fill="#2A348B" stroke="url(#SVGID_6_)" stroke-miterlimit="10" points="259,67 283,67 283,34 		"/>
		<linearGradient id="SVGID_7_" gradientUnits="userSpaceOnUse" x1="283.5" y1="16.1465" x2="318.207" y2="16.1465">
			<stop  offset="0" style="stop-color:#FFFFFF"/>
			<stop  offset="1" style="stop-color:#000000"/>
		</linearGradient>
		<polygon fill="#2A348B" stroke="url(#SVGID_7_)" stroke-miterlimit="10" points="284,0 284,33 317,33 		"/>
		<linearGradient id="SVGID_8_" gradientUnits="userSpaceOnUse" x1="283.5" y1="50.8535" x2="318.207" y2="50.8535">
			<stop  offset="0" style="stop-color:#FFFFFF"/>
			<stop  offset="1" style="stop-color:#000000"/>
		</linearGradient>
		<polygon fill="#2A348B" stroke="url(#SVGID_8_)" stroke-miterlimit="10" points="317,34 284,34 284,67 		"/>
	</g>
</g>
<g id="Layer_2_2_">
	<g id="Layer_2_1_">
		<g>
			<polygon fill="#2A348B" points="58,1.207 34,1.207 34,34.207 			"/>
			<radialGradient id="SVGID_9_" cx="46.2412" cy="18.2256" r="15.3171" gradientUnits="userSpaceOnUse">
				<stop  offset="0.1022" style="stop-color:#0014AA"/>
				<stop  offset="0.8387" style="stop-color:#547CFF"/>
			</radialGradient>
			<path fill="url(#SVGID_9_)" d="M33.5,35.744V0.707h25.482L33.5,35.744z M34.5,1.707V32.67L57.018,1.707H34.5z"/>
		</g>
		<g>
			<polygon fill="#2A348B" points="58,68.207 34,68.207 34,35.207 			"/>
			<radialGradient id="SVGID_10_" cx="46.2412" cy="51.1885" r="15.3171" gradientUnits="userSpaceOnUse">
				<stop  offset="0.1022" style="stop-color:#0014AA"/>
				<stop  offset="0.8387" style="stop-color:#547CFF"/>
			</radialGradient>
			<path fill="url(#SVGID_10_)" d="M58.982,68.707H33.5V33.67L58.982,68.707z M34.5,67.707h22.518L34.5,36.745V67.707z"/>
		</g>
		<g>
			<polygon fill="#2A348B" points="33,1.207 33,34.207 0,34.207 			"/>
			<radialGradient id="SVGID_11_" cx="16.1465" cy="17.3535" r="17.3535" gradientUnits="userSpaceOnUse">
				<stop  offset="0.1022" style="stop-color:#0014AA"/>
				<stop  offset="0.8387" style="stop-color:#547CFF"/>
			</radialGradient>
			<path fill="url(#SVGID_11_)" d="M33.5,34.707H-1.207L33.5,0V34.707z M1.207,33.707H32.5V2.414L1.207,33.707z"/>
		</g>
		<g>
			<polygon fill="#2A348B" points="0,35.207 33,35.207 33,68.207 			"/>
			<radialGradient id="SVGID_12_" cx="16.1465" cy="52.0605" r="17.3535" gradientUnits="userSpaceOnUse">
				<stop  offset="0.1022" style="stop-color:#0014AA"/>
				<stop  offset="0.8387" style="stop-color:#547CFF"/>
			</radialGradient>
			<path fill="url(#SVGID_12_)" d="M33.5,69.414L-1.207,34.707H33.5V69.414z M1.207,35.707L32.5,67V35.707H1.207z"/>
		</g>
		<g>
			<polygon fill="#2A348B" points="259,1.207 283,1.207 283,34.207 			"/>
			<radialGradient id="SVGID_13_" cx="270.7598" cy="18.2256" r="15.3169" gradientUnits="userSpaceOnUse">
				<stop  offset="0.1022" style="stop-color:#0014AA"/>
				<stop  offset="0.8387" style="stop-color:#547CFF"/>
			</radialGradient>
			<path fill="url(#SVGID_13_)" d="M283.5,35.744L258.019,0.707H283.5V35.744z M259.981,1.707L282.5,32.67V1.707H259.981z"/>
		</g>
		<g>
			<polygon fill="#2A348B" points="259,68.207 283,68.207 283,35.207 			"/>
			<radialGradient id="SVGID_14_" cx="270.7598" cy="51.1885" r="15.3169" gradientUnits="userSpaceOnUse">
				<stop  offset="0.1022" style="stop-color:#0014AA"/>
				<stop  offset="0.8387" style="stop-color:#547CFF"/>
			</radialGradient>
			<path fill="url(#SVGID_14_)" d="M283.5,68.707h-25.481L283.5,33.67V68.707z M259.981,67.707H282.5V36.745L259.981,67.707z"/>
		</g>
		<g>
			<polygon fill="#2A348B" points="284,1.207 284,34.207 317,34.207 			"/>
			<radialGradient id="SVGID_15_" cx="300.8535" cy="17.3535" r="17.3535" gradientUnits="userSpaceOnUse">
				<stop  offset="0.1022" style="stop-color:#0014AA"/>
				<stop  offset="0.8387" style="stop-color:#547CFF"/>
			</radialGradient>
			<path fill="url(#SVGID_15_)" d="M318.207,34.707H283.5V0L318.207,34.707z M284.5,33.707h31.293L284.5,2.414V33.707z"/>
		</g>
		<g>
			<polygon fill="#2A348B" points="317,35.207 284,35.207 284,68.207 			"/>
			<radialGradient id="SVGID_16_" cx="300.8535" cy="52.0605" r="17.3535" gradientUnits="userSpaceOnUse">
				<stop  offset="0.1022" style="stop-color:#0014AA"/>
				<stop  offset="0.8387" style="stop-color:#547CFF"/>
			</radialGradient>
			<path fill="url(#SVGID_16_)" d="M283.5,69.414V34.707h34.707L283.5,69.414z M284.5,35.707V67l31.293-31.293H284.5z"/>
		</g>
	</g>
</g>
</svg>
