<?xml version="1.0" standalone="no"?>
<!DOCTYPE svg PUBLIC "-//W3C//DTD SVG 20010904//EN"
 "http://www.w3.org/TR/2001/REC-SVG-20010904/DTD/svg10.dtd">
<svg version="1.0" xmlns="http://www.w3.org/2000/svg"
 width="640.000000pt" height="363.000000pt" viewBox="0 0 640.000000 363.000000"
 preserveAspectRatio="xMidYMid meet">

<g transform="translate(0.000000,363.000000) scale(0.100000,-0.100000)"
fill="#000000" stroke="none">
<path d="M1475 3604 c-436 -82 -1031 -294 -1377 -490 l-101 -57 7 -63 c42
-408 402 -814 982 -1106 l144 -72 -158 -81 c-426 -217 -717 -478 -868 -777
-50 -99 -91 -229 -100 -321 l-6 -62 73 -42 c277 -158 760 -347 1129 -442 158
-41 429 -95 437 -87 3 2 5 274 6 603 2 674 -1 642 82 808 24 50 59 107 77 128
l33 39 147 -31 c374 -78 672 -106 1108 -105 433 0 721 28 1090 106 l144 30 33
-38 c18 -22 53 -79 78 -129 81 -163 79 -134 83 -813 l3 -603 37 7 c357 60 652
144 1035 296 185 73 491 219 540 258 28 22 28 25 22 84 -27 229 -163 476 -381
686 -168 162 -328 273 -588 406 l-159 81 95 45 c589 279 967 686 1029 1108 14
95 24 82 -126 164 -261 143 -711 315 -1055 405 -149 39 -404 91 -443 91 -19 0
-19 -14 -12 -537 7 -580 3 -663 -39 -783 -25 -73 -89 -190 -129 -235 l-22 -25
-165 34 c-391 80 -610 100 -1080 100 -469 0 -685 -20 -1080 -100 l-165 -34
-28 33 c-44 49 -104 163 -134 252 l-28 80 -3 608 c-3 563 -4 607 -20 606 -9 0
-75 -12 -147 -25z m2015 -1577 c69 -14 181 -43 250 -66 126 -42 304 -128 303
-146 -1 -17 -204 -112 -318 -149 -397 -129 -899 -129 -1294 0 -111 36 -313
132 -315 149 -2 18 181 105 314 149 115 37 287 74 420 90 19 2 143 3 275 1
203 -3 259 -8 365 -28z"/>
<path d="M6258 795 c-32 -18 -52 -72 -39 -106 20 -55 74 -78 124 -54 62 29 75
98 28 146 -33 32 -70 37 -113 14z m97 -30 c27 -26 31 -54 14 -87 l-11 -21 -13
23 c-9 17 -10 29 -2 41 17 28 1 49 -38 49 l-35 0 0 -55 c0 -30 5 -55 10 -55 6
0 10 11 10 25 0 33 11 31 32 -5 l17 -30 -34 0 c-37 0 -75 37 -75 72 0 27 45
68 75 68 14 0 37 -11 50 -25z m-25 -25 c0 -5 -9 -10 -20 -10 -11 0 -20 5 -20
10 0 6 9 10 20 10 11 0 20 -4 20 -10z"/>
</g>
</svg>
