<?xml version="1.0" encoding="utf-8"?>
<!-- Generator: Adobe Illustrator 16.0.0, SVG Export Plug-In . SVG Version: 6.00 Build 0)  -->
<!DOCTYPE svg PUBLIC "-//W3C//DTD SVG 1.1//EN" "http://www.w3.org/Graphics/SVG/1.1/DTD/svg11.dtd">
<svg version="1.1" id="Layer_1" xmlns="http://www.w3.org/2000/svg" xmlns:xlink="http://www.w3.org/1999/xlink" x="0px" y="0px"
	 width="283px" height="92px" viewBox="0 0 283 92" enable-background="new 0 0 283 92" xml:space="preserve">
<g>
	<path fill-rule="evenodd" clip-rule="evenodd" d="M106.359,62.518c0,2.867-0.025,5.629,0.012,8.389
		c0.015,1.104,0.059,2.23,0.288,3.303c0.317,1.484,1.208,1.947,3.005,1.807c1.102-0.086,1.813-0.863,1.963-2.186
		c0.061-0.535,0.089-1.078,0.09-1.617c0.007-5.098,0.005-10.197,0.005-15.297c0-0.295,0-0.59,0-1.111
		c-0.464,0.256-0.768,0.412-1.061,0.586c-4.942,2.941-9.961,2.955-14.929,0.18c-2.575-1.438-4.019-3.885-4.648-6.699
		c-0.43-1.918-0.664-3.916-0.691-5.882c-0.085-6.145-0.07-12.292-0.018-18.438c0.035-4.078,0.396-8.111,1.892-11.983
		c1.708-4.421,5.023-6.857,9.454-8.007c2.822-0.731,5.711-0.944,8.606-0.833c3.166,0.123,6.304,0.54,9.218,1.903
		c3.551,1.661,5.675,4.535,6.804,8.215c0.955,3.113,1.322,6.303,1.319,9.556c-0.014,14.621-0.009,29.241,0.003,43.864
		c0.004,4.24-0.439,8.393-2.272,12.285c-1.783,3.785-4.916,5.842-8.857,6.855c-3.194,0.82-6.434,1.053-9.714,0.803
		c-4.157-0.316-8.097-1.266-11.407-3.996c-2.688-2.215-4.463-5.029-4.706-8.506c-0.291-4.166-0.24-8.354-0.359-12.529
		c-0.022-0.781,0.49-0.658,0.948-0.658c4.592-0.002,9.185-0.002,13.777-0.002C105.45,62.518,105.818,62.518,106.359,62.518z
		 M106.422,30.799c0,3.51-0.005,7.021,0.007,10.53c0.001,0.433,0.087,0.867,0.149,1.298c0.264,1.819,1.697,2.252,2.781,2.19
		c1.364-0.08,2.175-1.053,2.234-2.631c0.071-1.887,0.107-3.776,0.102-5.665c-0.016-5.668-0.037-11.336-0.107-17.004
		c-0.019-1.507-0.82-2.396-1.987-2.49c-1.849-0.148-2.599,0.345-3.002,2.048c-0.123,0.518-0.169,1.065-0.171,1.599
		C106.412,24.049,106.419,27.424,106.422,30.799z"/>
	<path fill-rule="evenodd" clip-rule="evenodd" d="M166.286,75.588c-0.703,3.049-1.667,5.793-3.783,8.029
		c-2.262,2.391-5.13,3.568-8.26,4.074c-2.245,0.361-4.552,0.516-6.827,0.482c-4.255-0.059-8.353-0.871-11.921-3.406
		c-3.056-2.172-5.142-5.084-5.447-8.826c-0.355-4.355-0.265-8.746-0.362-13.121c-0.002-0.092,0.069-0.186,0.133-0.346
		c0.275-0.016,0.571-0.049,0.867-0.049c4.625-0.004,9.25,0.023,13.875-0.025c0.936-0.01,1.117,0.313,1.104,1.166
		c-0.048,2.971-0.031,5.943-0.007,8.914c0.005,0.561,0.099,1.141,0.26,1.68c0.45,1.51,1.321,2.014,3.013,1.832
		c1.072-0.117,1.851-1.018,1.996-2.33c0.03-0.268,0.031-0.539,0.032-0.809c0.001-5.402,0.002-10.805-0.002-16.207
		c0-0.26-0.043-0.52-0.057-0.67c-1.681,0.705-3.279,1.607-4.996,2.053c-4.831,1.258-11.065-0.006-13.912-4.432
		c-1.641-2.549-2.292-5.381-2.314-8.343c-0.053-7.09-0.086-14.182,0.011-21.27c0.053-3.836,0.557-7.627,2.146-11.203
		c1.717-3.866,4.773-6.092,8.725-7.185c3.303-0.913,6.697-1.122,10.106-0.889c2.825,0.194,5.603,0.665,8.202,1.876
		c3.572,1.664,5.641,4.571,6.773,8.235c1.094,3.538,1.35,7.181,1.332,10.862c-0.029,5.739-0.021,11.479,0.008,17.219
		c0.003,0.679-0.197,1.018-0.828,1.28c-3.275,1.361-5.737,3.521-6.554,7.128c-0.272,1.203-0.466,2.453-0.478,3.684
		c-0.047,4.826-0.049,9.656,0.035,14.482c0.02,1.15,0.308,2.344,0.703,3.432c0.693,1.906,2.492,2.916,4.574,2.783
		C165.028,75.652,165.622,75.623,166.286,75.588z M150.917,30.886c-0.002,0-0.004,0-0.005,0c0-3.746,0.017-7.493-0.008-11.239
		c-0.011-1.649-0.757-2.556-2.11-2.712c-1.67-0.194-2.557,0.413-2.968,2.129c-0.14,0.581-0.15,1.203-0.151,1.807
		c-0.01,6.615-0.01,13.231,0,19.847c0,0.604,0.004,1.228,0.144,1.81c0.459,1.902,1.862,2.638,3.667,1.951
		c1.223-0.467,1.41-1.559,1.419-2.655C150.937,38.177,150.917,34.531,150.917,30.886z"/>
	<path fill-rule="evenodd" clip-rule="evenodd" d="M175.546,40.704c0-1.22-0.035-2.43,0.014-3.637
		c0.027-0.669-0.209-0.977-0.863-1.102c-3.213-0.614-4.566-2.803-4.693-5.524c-0.266-5.689-0.303-11.393-0.27-17.089
		c0.011-1.782,0.396-3.604,0.888-5.33c0.511-1.795,1.989-2.742,3.778-3.115c0.801-0.168,1.184-0.438,1.174-1.376
		c-0.023-2.476,0.031-2.479,2.428-3.333c0.373-0.133,0.756-0.241,1.332-0.424c0,1.275,0.09,2.445-0.025,3.593
		c-0.104,1.019,0.33,1.363,1.223,1.529c1.697,0.317,3.145,1.162,3.975,2.672c0.533,0.965,0.871,2.12,0.971,3.221
		c0.156,1.741,0.021,3.507,0.053,5.262c0.014,0.758-0.209,1.092-1.039,1.066c-1.848-0.055-3.697-0.017-5.684-0.017
		c0-1.981,0.006-3.859-0.006-5.737c-0.002-0.4-0.02-0.813-0.115-1.198c-0.137-0.548-0.52-0.941-1.104-0.752
		c-0.381,0.124-0.762,0.438-0.996,0.77c-0.17,0.238-0.131,0.647-0.131,0.98c-0.006,6.043-0.008,12.085,0.004,18.127
		c0,0.396,0.01,0.857,0.205,1.168c0.201,0.315,0.639,0.663,0.971,0.661c0.33-0.003,0.746-0.361,0.961-0.676
		c0.189-0.274,0.199-0.704,0.203-1.065c0.02-1.586,0.031-3.174-0.002-4.759c-0.014-0.638,0.154-0.906,0.846-0.888
		c1.652,0.043,3.309,0.028,4.961,0.006c0.65-0.01,0.936,0.258,0.916,0.898c-0.068,2.085-0.021,4.181-0.221,6.253
		c-0.248,2.569-2.223,4.584-4.787,5.056c-0.881,0.162-1.242,0.491-1.207,1.452c0.08,2.111,0.023,2.113-2.031,2.884
		c-0.439,0.164-0.875,0.338-1.314,0.497C175.903,40.797,175.829,40.758,175.546,40.704z"/>
	<path fill-rule="evenodd" clip-rule="evenodd" d="M160.585,61.77c0-2.229-0.055-4.457,0.018-6.684
		c0.057-1.734,0.264-3.467,1.016-5.078c1.183-2.533,3.37-3.855,5.851-4.771c0.929-0.342,1.934-0.533,2.921-0.654
		c2.771-0.342,3.658,1.639,3.734,3.58c0.197,5.08,0.285,10.172,0.219,15.256c-0.041,3.305-0.83,6.408-3.854,8.432
		c-1.874,1.256-3.959,1.947-6.15,2.332c-1.292,0.227-2.756-0.754-3.15-2.178c-0.318-1.15-0.529-2.359-0.576-3.551
		C160.522,66.229,160.586,63.998,160.585,61.77z M166.608,59.318c0,2.869-0.01,5.736,0.015,8.605
		c0.003,0.287,0.219,0.818,0.323,0.814c0.363-0.012,0.904-0.105,1.041-0.354c0.256-0.469,0.379-1.066,0.382-1.609
		c0.026-5.332,0.017-10.664,0.016-15.994c0-0.236,0.015-0.479-0.034-0.707c-0.119-0.559-0.445-0.959-0.951-0.436
		c-0.375,0.387-0.746,0.975-0.76,1.48C166.567,53.852,166.605,56.586,166.608,59.318z"/>
	<path fill-rule="evenodd" clip-rule="evenodd" d="M212.358,29.008c-0.646,4.383-1.264,8.452-1.84,12.526
		c-0.268,1.891-0.422,3.798-0.686,5.688c-0.268,1.926-0.619,3.838-0.91,5.76c-0.25,1.652-0.535,3.305-0.688,4.967
		c-0.342,3.756-2.035,6.391-5.75,7.654c-1.98,0.674-3.857,1.652-5.975,2.576c0-1.521-0.02-2.887,0.025-4.25
		c0.006-0.166,0.338-0.365,0.555-0.475c0.869-0.436,1.758-0.832,2.629-1.262c1.863-0.924,2.033-1.359,1.652-3.414
		c-0.357-1.941-0.613-3.9-0.932-5.85c-0.398-2.443-0.836-4.881-1.219-7.326c-0.385-2.452-0.717-4.91-1.086-7.363
		c-0.145-0.958-0.297-1.916-0.498-2.863c-0.115-0.543-0.064-0.858,0.541-1.071c1.754-0.616,3.484-1.303,5.402-2.029
		c0.404,5.646,0.795,11.094,1.184,16.543c0.063,0.006,0.125,0.012,0.188,0.016c0.133-0.639,0.328-1.275,0.385-1.921
		c0.238-2.744,0.416-5.496,0.658-8.241c0.207-2.339,0.461-4.673,0.719-7.006c0.027-0.237,0.17-0.591,0.348-0.662
		C208.728,30.345,210.411,29.733,212.358,29.008z"/>
	<path fill-rule="evenodd" clip-rule="evenodd" d="M183.409,66.494c0-0.502,0-0.83,0-1.158c-0.002-6.281-0.002-12.563-0.004-18.843
		c0-0.102,0.033-0.217-0.002-0.303c-0.215-0.512-0.313-1.213-0.703-1.477c-0.436-0.293-1.252,0.621-1.348,1.453
		c-0.043,0.367-0.021,0.742-0.021,1.113c0,6.35-0.012,12.697,0.018,19.047c0.004,0.668-0.174,1.066-0.793,1.287
		c-1.6,0.572-3.197,1.152-4.934,1.777c-0.023-0.422-0.061-0.77-0.061-1.117c-0.004-8.24,0-16.479-0.01-24.719
		c-0.002-0.538,0.02-0.979,0.633-1.199c1.541-0.551,3.07-1.142,4.605-1.706c0.115-0.041,0.256-0.005,0.439-0.005
		c0.049,0.453,0.092,0.864,0.154,1.441c0.664-0.816,1.199-1.516,1.779-2.177c0.93-1.061,2.188-1.54,3.521-1.811
		c1.27-0.258,2.471,0.97,2.504,2.535c0.031,1.418,0.014,2.837,0.014,4.255c0,6.179-0.006,12.359,0.01,18.539
		c0.002,0.59-0.055,0.988-0.721,1.211C186.849,65.188,185.235,65.82,183.409,66.494z"/>
	<path fill-rule="evenodd" clip-rule="evenodd" d="M196.61,28.16c0.023,0.516,0.055,0.87,0.055,1.226
		c0.002,10.325-0.012,20.649,0.023,30.974c0.004,1.023-0.361,1.494-1.305,1.795c-1.52,0.482-2.996,1.09-4.646,1.703
		c-0.057-0.504-0.143-0.916-0.141-1.328c0.012-7.422,0.037-14.844,0.053-22.264c0.008-3.031,0.01-6.062-0.008-9.093
		c-0.004-0.596,0.203-0.882,0.793-1.083C193.106,29.521,194.747,28.862,196.61,28.16z"/>
	<path fill-rule="evenodd" clip-rule="evenodd" d="M183.146,83.66c-2.211,0.42-2.299,0.352-2.299-1.633c0-2.557,0-5.115,0-7.605
		c-1.633-0.801-3.018,0.477-4.545,0.287c-0.094-0.311-0.109-0.65-0.285-0.857c-0.215-0.254-0.545-0.467-0.863-0.549
		c-0.137-0.035-0.52,0.301-0.525,0.477c-0.01,0.33,0.072,0.785,0.297,0.973c0.402,0.334,0.93,0.527,1.422,0.744
		c1.285,0.572,1.945,1.574,2.186,2.939c0.262,1.486,0.049,2.877-0.639,4.209c-0.545,1.053-1.482,1.473-2.588,1.443
		c-1.146-0.031-2.109-0.486-2.551-1.652c-0.201-0.533-0.406-1.074-0.516-1.631c-0.244-1.238,0.531-1.922,1.736-1.51
		c0.215,0.074,0.295,0.514,0.461,0.768c0.279,0.422,0.533,0.881,0.902,1.201c0.082,0.07,0.861-0.35,0.873-0.568
		c0.029-0.541-0.07-1.182-0.361-1.619c-0.25-0.371-0.824-0.551-1.283-0.75c-2.689-1.162-2.704-5.195-1.219-6.904
		c1.281-1.477,3.969-0.91,4.654,0.963c0.121,0.33,0.205,0.674,0.307,1.012c0.123-0.01,0.246-0.021,0.369-0.031
		c0-0.529,0.031-1.061-0.008-1.586c-0.053-0.732,0.213-1.039,0.982-1.018c1.584,0.041,3.174,0.043,4.76-0.002
		c0.754-0.021,1.057,0.238,0.992,0.99c-0.041,0.455-0.008,0.916-0.008,1.375c0.088,0.029,0.176,0.059,0.266,0.088
		c0.133-0.219,0.281-0.432,0.396-0.66c0.609-1.211,1.521-1.971,2.941-1.93c1.475,0.041,2.395,0.918,2.857,2.199
		c1.092,3.02,1.107,6.08-0.029,9.094c-0.482,1.281-1.424,2.146-2.883,2.186c-1.34,0.035-2.4-0.836-3.027-2.293
		c-0.848-1.969-0.666-4.033-0.635-6.086c0.006-0.463,0.064-0.926,0.102-1.441c-0.77,0-1.459,0-2.24,0
		C183.146,77.432,183.146,80.523,183.146,83.66z M190.362,77.48c-0.146-0.949-0.211-1.893-0.469-2.781
		c-0.107-0.367-0.617-0.834-0.963-0.85c-0.33-0.014-0.879,0.434-0.996,0.787c-0.594,1.826-0.621,3.699,0.031,5.52
		c0.115,0.318,0.627,0.688,0.951,0.684c0.328-0.006,0.84-0.385,0.938-0.705C190.118,79.283,190.204,78.377,190.362,77.48z"/>
	<path fill-rule="evenodd" clip-rule="evenodd" d="M202.72,73.625c0,0.566-0.006,0.936,0.002,1.305
		c0.004,0.195,0.029,0.391,0.053,0.689c1.063,0,2.094,0,3.102,0c0.074,0.189,0.139,0.277,0.143,0.369
		c0.117,2.318,0.115,2.318-2.209,2.326c-0.299,0-0.6,0-0.994,0c0,0.799,0,1.549,0,2.457c0.766,0,1.564,0.059,2.35-0.016
		c0.988-0.094,1.467,0.186,1.314,1.262c-0.074,0.527-0.014,1.072-0.014,1.725c-0.512,0.023-0.969,0.064-1.426,0.066
		c-2.158,0.006-4.316-0.014-6.475,0.012c-0.635,0.008-0.971-0.16-1.129-0.838c-0.264-1.145-0.621-2.27-1-3.385
		c-0.125-0.363-0.434-0.666-0.658-0.996c-0.094,0.035-0.188,0.07-0.281,0.105c0,1.658,0,3.314,0,4.9
		c-0.182,0.104-0.236,0.16-0.295,0.164c-1.988,0.15-1.988,0.15-1.986-1.805c0-3.342,0.023-6.682-0.018-10.021
		c-0.01-0.863,0.229-1.248,1.141-1.186c0.838,0.061,1.686,0.004,2.529,0.016c1.594,0.023,2.283,0.531,2.639,2.09
		c0.438,1.914,0.383,3.744-1.096,5.074c0.615,1.807,1.213,3.564,1.875,5.51c0.035-0.418,0.076-0.684,0.076-0.951
		c0-3.543,0.014-7.086-0.025-10.629c-0.008-0.826,0.23-1.15,1.092-1.111c1.346,0.061,2.699,0.035,4.049,0.006
		c0.613-0.012,0.861,0.234,0.842,0.834c-0.02,0.633-0.004,1.27-0.004,2.027C205.099,73.625,203.972,73.625,202.72,73.625z
		 M195.479,73.416c0,0.711-0.059,1.182,0.02,1.629c0.057,0.326,0.355,0.904,0.438,0.885c0.447-0.102,1.055-0.246,1.236-0.58
		c0.197-0.361,0.16-1.092-0.094-1.391C196.806,73.637,196.163,73.625,195.479,73.416z"/>
	<path fill-rule="evenodd" clip-rule="evenodd" d="M208.808,79.268c0.074,0.391,0.057,0.73,0.203,0.971
		c0.246,0.406,0.551,0.814,0.932,1.072c0.111,0.076,0.771-0.311,0.816-0.555c0.092-0.484,0.041-1.066-0.162-1.514
		c-0.139-0.305-0.615-0.486-0.971-0.656c-2.555-1.211-3.496-3.926-2.221-6.451c0.66-1.311,2.15-1.867,3.631-1.357
		c1.057,0.363,2.127,2.314,1.834,3.426c-0.047,0.18-0.367,0.406-0.557,0.404c-0.52-0.01-1.043-0.109-1.553-0.225
		c-0.084-0.02-0.063-0.35-0.17-0.449c-0.273-0.252-0.574-0.494-0.908-0.645c-0.074-0.033-0.475,0.332-0.465,0.5
		c0.02,0.363,0.1,0.85,0.348,1.051c0.432,0.35,1.006,0.525,1.521,0.768c0.979,0.459,1.578,1.219,1.855,2.262
		c0.443,1.668,0.324,3.283-0.512,4.795c-0.549,0.992-1.467,1.496-2.605,1.432c-1.148-0.064-2.096-0.531-2.543-1.682
		c-0.17-0.436-0.281-0.896-0.402-1.35c-0.414-1.551-0.26-1.758,1.33-1.797C208.376,79.264,208.542,79.268,208.808,79.268z"/>
</g>
</svg>
