<?xml version="1.0" standalone="no"?>
<!DOCTYPE svg PUBLIC "-//W3C//DTD SVG 20010904//EN"
 "http://www.w3.org/TR/2001/REC-SVG-20010904/DTD/svg10.dtd">
<svg version="1.0" xmlns="http://www.w3.org/2000/svg"
 width="283.000000pt" height="94.000000pt" viewBox="0 0 283.000000 94.000000"
 preserveAspectRatio="xMidYMid meet">

<g transform="translate(0.000000,94.000000) scale(0.100000,-0.100000)"
fill="#000000" stroke="none">
<path d="M45 917 c-2 -6 -10 -36 -18 -64 -16 -56 -14 -59 30 -54 7 1 31 -3 54
-9 35 -10 39 -13 25 -23 -8 -7 -22 -28 -30 -47 -24 -58 -74 -291 -82 -379 -7
-81 -6 -83 14 -77 17 6 24 1 36 -27 8 -19 18 -37 22 -40 17 -10 196 13 267 33
222 65 277 90 277 125 0 15 8 29 21 36 51 27 143 105 167 142 36 54 37 122 4
167 -13 17 -22 33 -20 34 7 6 228 21 228 16 0 -3 -9 -39 -21 -80 -18 -66 -38
-156 -44 -200 -20 -150 -12 -266 18 -264 9 1 17 -1 17 -5 0 -19 96 17 112 42
3 6 6 29 7 51 0 23 9 70 20 105 12 35 21 67 21 72 0 5 21 52 46 106 33 69 47
112 48 143 l1 46 60 -4 c33 -3 62 -8 63 -13 2 -5 8 -9 13 -9 6 0 7 5 4 10 -3
6 1 10 9 10 18 0 22 6 30 52 5 29 3 41 -13 57 -16 16 -40 20 -162 26 -79 4
-210 3 -292 -3 -158 -10 -172 -15 -203 -72 -29 -54 -28 -53 -70 -32 -116 58
-351 112 -559 128 -38 3 -76 7 -83 9 -7 3 -15 -1 -17 -8z m82 -33 c-3 -3 -12
-4 -19 -1 -8 3 -5 6 6 6 11 1 17 -2 13 -5z m816 -111 c-7 -2 -21 -2 -30 0 -10
3 -4 5 12 5 17 0 24 -2 18 -5z m-517 -55 c41 -11 74 -25 74 -29 0 -5 6 -6 14
-3 7 3 20 -2 29 -10 8 -8 17 -12 20 -9 9 8 76 -36 88 -59 18 -33 3 -62 -60
-116 -94 -82 -217 -140 -346 -163 -27 -4 -61 -11 -75 -15 -24 -7 -24 -6 -9 12
22 25 74 146 100 231 21 69 74 183 85 183 3 0 39 -10 80 -22z m774 -142 c0 -3
-4 -8 -10 -11 -5 -3 -10 -1 -10 4 0 6 5 11 10 11 6 0 10 -2 10 -4z m-983 -78
c-3 -8 -6 -5 -6 6 -1 11 2 17 5 13 3 -3 4 -12 1 -19z m503 12 c0 -5 -4 -10
-10 -10 -5 0 -10 5 -10 10 0 6 5 10 10 10 6 0 10 -4 10 -10z m60 -14 c0 -3 -4
-8 -10 -11 -5 -3 -10 -1 -10 4 0 6 5 11 10 11 6 0 10 -2 10 -4z m237 -28 c-3
-8 -6 -5 -6 6 -1 11 2 17 5 13 3 -3 4 -12 1 -19z m-810 -10 c-3 -8 -6 -5 -6 6
-1 11 2 17 5 13 3 -3 4 -12 1 -19z m543 18 c0 -3 -4 -8 -10 -11 -5 -3 -10 -1
-10 4 0 6 5 11 10 11 6 0 10 -2 10 -4z m-134 -21 c-8 -8 -18 -15 -22 -15 -3 0
-1 7 6 15 7 8 17 15 22 15 5 0 3 -7 -6 -15z m-455 -98 c-10 -9 -11 -8 -5 6 3
10 9 15 12 12 3 -3 0 -11 -7 -18z m439 -11 c0 -10 -7 -12 -22 -8 -21 5 -21 6
-2 13 10 4 20 8 22 8 1 1 2 -5 2 -13z m-213 -22 c-3 -3 -12 -4 -19 -1 -8 3 -5
6 6 6 11 1 17 -2 13 -5z m170 -10 c-3 -3 -12 -4 -19 -1 -8 3 -5 6 6 6 11 1 17
-2 13 -5z m550 -16 c-3 -8 -6 -5 -6 6 -1 11 2 17 5 13 3 -3 4 -12 1 -19z
m-800 6 c-3 -3 -12 -4 -19 -1 -8 3 -5 6 6 6 11 1 17 -2 13 -5z m-220 -10 c-3
-3 -12 -4 -19 -1 -8 3 -5 6 6 6 11 1 17 -2 13 -5z m410 0 c-3 -3 -12 -4 -19
-1 -8 3 -5 6 6 6 11 1 17 -2 13 -5z m-290 -10 c-3 -3 -12 -4 -19 -1 -8 3 -5 6
6 6 11 1 17 -2 13 -5z m-47 -14 c0 -5 -5 -10 -11 -10 -5 0 -7 5 -4 10 3 6 8
10 11 10 2 0 4 -4 4 -10z m242 -6 c-24 -8 -51 -13 -60 -11 -10 3 -5 5 11 6 15
0 27 6 27 11 0 6 15 10 33 10 32 -1 32 -1 -11 -16z m705 -6 c-3 -8 -6 -5 -6 6
-1 11 2 17 5 13 3 -3 4 -12 1 -19z m-977 -18 c0 -5 -2 -10 -4 -10 -3 0 -8 5
-11 10 -3 6 -1 10 4 10 6 0 11 -4 11 -10z m153 -7 c-7 -2 -21 -2 -30 0 -10 3
-4 5 12 5 17 0 24 -2 18 -5z m780 0 c-7 -2 -21 -2 -30 0 -10 3 -4 5 12 5 17 0
24 -2 18 -5z"/>
<path d="M1617 900 c-52 -10 -126 -84 -167 -168 -17 -36 -33 -72 -36 -81 -2
-9 -7 -33 -12 -53 -7 -28 -7 -35 3 -32 20 8 4 -67 -39 -181 -17 -44 -22 -160
-7 -150 6 3 15 -4 21 -15 6 -11 18 -20 28 -19 14 0 14 2 -3 9 -16 7 -17 9 -3
9 9 1 19 -2 21 -6 8 -12 252 3 348 21 82 15 147 39 160 58 3 5 6 27 7 49 2 52
-10 56 -117 35 -132 -25 -244 -36 -258 -25 -15 13 11 90 76 224 53 108 70 151
95 233 15 53 15 54 -9 78 -25 25 -42 27 -108 14z m45 -242 c-6 -6 -7 0 -4 19
5 21 7 23 10 9 2 -10 0 -22 -6 -28z m-111 -245 c-12 -20 -14 -14 -5 12 4 9 9
14 11 11 3 -2 0 -13 -6 -23z m366 -75 c-3 -8 -6 -5 -6 6 -1 11 2 17 5 13 3 -3
4 -12 1 -19z m-60 6 c-3 -3 -12 -4 -19 -1 -8 3 -5 6 6 6 11 1 17 -2 13 -5z
m-114 -21 c-7 -2 -19 -2 -25 0 -7 3 -2 5 12 5 14 0 19 -2 13 -5z m-349 -38 c3
-8 1 -15 -4 -15 -6 0 -10 7 -10 15 0 8 2 15 4 15 2 0 6 -7 10 -15z m459 -12
c-7 -2 -19 -2 -25 0 -7 3 -2 5 12 5 14 0 19 -2 13 -5z m-130 -20 c-7 -2 -21
-2 -30 0 -10 3 -4 5 12 5 17 0 24 -2 18 -5z m-180 -20 c-13 -2 -35 -2 -50 0
-16 2 -5 4 22 4 28 0 40 -2 28 -4z"/>
<path d="M2124 875 c-22 -9 -54 -29 -70 -46 -24 -25 -29 -39 -28 -77 0 -26 2
-51 3 -57 2 -5 3 -40 2 -78 -1 -64 -2 -68 -28 -77 -56 -21 -73 -33 -73 -56 0
-23 7 -32 43 -57 19 -13 18 -26 -18 -143 -5 -15 0 -28 17 -44 12 -13 17 -19 9
-15 -9 5 -12 4 -8 -3 4 -5 26 -8 50 -6 33 3 37 2 17 -5 -24 -9 -24 -9 8 -10
17 -1 31 2 30 7 0 4 15 42 35 85 l37 78 32 -17 c18 -9 35 -20 38 -23 3 -3 11
-6 18 -7 38 -3 43 -5 37 -14 -3 -6 1 -7 9 -4 9 3 16 2 16 -4 0 -6 10 -8 23 -5
18 4 19 3 7 -7 -12 -10 -11 -11 8 -7 12 3 22 1 22 -4 0 -4 7 -5 17 -2 12 5 14
3 8 -7 -6 -10 -4 -12 8 -7 22 8 49 -2 41 -15 -4 -6 2 -7 16 -3 14 5 20 3 16
-3 -4 -6 2 -8 16 -4 14 3 19 1 14 -6 -5 -8 -2 -10 8 -6 9 3 16 2 16 -4 0 -6
10 -8 22 -4 16 4 19 2 13 -8 -6 -9 -4 -11 4 -5 16 9 132 -15 125 -26 -3 -5 3
-6 12 -2 12 5 15 3 9 -6 -6 -10 -2 -11 15 -6 15 5 20 4 16 -4 -11 -17 37 -9
51 9 7 8 13 32 13 53 0 43 21 31 -215 127 -82 34 -188 78 -234 98 -79 34 -82
37 -55 43 89 20 164 30 175 23 7 -4 10 -3 6 2 -3 6 15 16 41 23 26 7 81 23
122 37 42 13 84 24 95 24 25 1 75 65 75 98 0 36 -65 95 -132 120 -153 57 -467
89 -554 57z m173 -101 c-3 -3 -12 -4 -19 -1 -8 3 -5 6 6 6 11 1 17 -2 13 -5z
m37 -39 c15 -8 40 -15 55 -15 14 0 55 -8 91 -16 36 -9 74 -16 84 -16 15 1 13
-3 -10 -17 -31 -19 -33 -20 -174 -58 -126 -34 -140 -36 -140 -29 0 4 15 36 34
71 l34 64 -22 15 c-20 15 -20 15 -1 15 11 1 33 -6 49 -14z m-149 -25 c-3 -5
-12 -10 -18 -10 -7 0 -6 4 3 10 19 12 23 12 15 0z m82 -22 c-3 -8 -6 -5 -6 6
-1 11 2 17 5 13 3 -3 4 -12 1 -19z m470 -54 c-3 -3 -12 -4 -19 -1 -8 3 -5 6 6
6 11 1 17 -2 13 -5z m-57 -24 c-19 -13 -30 -13 -30 0 0 6 10 10 23 10 18 0 19
-2 7 -10z m-43 -16 c-3 -3 -12 -4 -19 -1 -8 3 -5 6 6 6 11 1 17 -2 13 -5z
m-240 -60 c-3 -3 -12 -4 -19 -1 -8 3 -5 6 6 6 11 1 17 -2 13 -5z m-370 -30
c-3 -3 -12 -4 -19 -1 -8 3 -5 6 6 6 11 1 17 -2 13 -5z m140 -110 c-3 -3 -12
-4 -19 -1 -8 3 -5 6 6 6 11 1 17 -2 13 -5z m310 -30 c-3 -3 -12 -4 -19 -1 -8
3 -5 6 6 6 11 1 17 -2 13 -5z m-200 -10 c-3 -3 -12 -4 -19 -1 -8 3 -5 6 6 6
11 1 17 -2 13 -5z m250 -10 c-3 -3 -12 -4 -19 -1 -8 3 -5 6 6 6 11 1 17 -2 13
-5z m-187 -13 c0 -5 -9 -7 -20 -4 -11 3 -20 7 -20 9 0 2 9 4 20 4 11 0 20 -4
20 -9z m47 -17 c-3 -3 -12 -4 -19 -1 -8 3 -5 6 6 6 11 1 17 -2 13 -5z m233
-10 c0 -2 -7 -4 -15 -4 -8 0 -15 4 -15 10 0 5 7 7 15 4 8 -4 15 -8 15 -10z
m-120 -33 c0 -5 -9 -7 -20 -4 -11 3 -20 7 -20 9 0 2 9 4 20 4 11 0 20 -4 20
-9z m217 -7 c-3 -3 -12 -4 -19 -1 -8 3 -5 6 6 6 11 1 17 -2 13 -5z m-637 -8
c0 -3 -4 -8 -10 -11 -5 -3 -10 -1 -10 4 0 6 5 11 10 11 6 0 10 -2 10 -4z m467
-2 c-3 -3 -12 -4 -19 -1 -8 3 -5 6 6 6 11 1 17 -2 13 -5z m213 -4 c12 -8 11
-10 -7 -10 -13 0 -23 5 -23 10 0 13 11 13 30 0z m-127 -17 c-7 -2 -21 -2 -30
0 -10 3 -4 5 12 5 17 0 24 -2 18 -5z m93 -22 c-3 -5 -15 -7 -26 -4 -28 7 -25
13 6 13 14 0 23 -4 20 -9z m47 -18 c-7 -2 -19 -2 -25 0 -7 3 -2 5 12 5 14 0
19 -2 13 -5z"/>
<path d="M48 57 c12 -13 22 -31 22 -40 0 -9 5 -17 10 -17 6 0 10 6 10 14 0 7
9 25 21 40 15 19 17 26 7 26 -8 0 -19 -5 -26 -12 -9 -9 -15 -9 -24 0 -7 7 -19
12 -27 12 -11 0 -9 -6 7 -23z"/>
<path d="M147 74 c-11 -11 -8 -49 5 -62 14 -14 67 -16 86 -3 8 5 12 21 10 37
-3 27 -7 29 -48 32 -25 2 -49 0 -53 -4z m78 -34 c0 -9 -11 -16 -27 -18 -23 -3
-28 1 -28 18 0 17 5 21 28 18 16 -2 27 -9 27 -18z"/>
<path d="M265 48 c6 -42 16 -50 56 -46 31 3 34 6 37 41 4 42 -15 52 -20 10 -2
-20 -9 -28 -23 -28 -14 0 -21 8 -23 28 -2 15 -9 27 -17 27 -9 0 -12 -10 -10
-32z"/>
<path d="M380 40 c0 -39 13 -53 23 -26 7 17 39 15 45 -2 9 -27 22 -9 22 28 l0
40 -45 0 -45 0 0 -40z m70 10 c0 -5 -11 -10 -25 -10 -14 0 -25 5 -25 10 0 6
11 10 25 10 14 0 25 -4 25 -10z"/>
<path d="M540 46 c0 -38 16 -57 26 -32 3 9 17 16 30 16 36 0 29 18 -8 23 l-33
4 33 1 c46 3 40 22 -8 22 -39 0 -40 -1 -40 -34z"/>
<path d="M650 44 c-22 -35 -21 -59 2 -36 15 15 51 15 66 0 20 -20 23 -2 6 36
-22 46 -46 46 -74 0z m45 7 c3 -5 1 -12 -5 -16 -5 -3 -10 1 -10 9 0 18 6 21
15 7z"/>
<path d="M753 65 c-7 -20 -4 -23 29 -27 15 -2 31 -8 35 -12 4 -5 -9 -6 -31 -2
-29 6 -37 4 -34 -6 3 -8 21 -13 49 -13 38 0 44 3 47 23 3 19 -1 22 -32 22 -20
0 -36 5 -36 11 0 7 12 9 36 4 24 -4 34 -3 29 4 -10 17 -85 14 -92 -4z"/>
<path d="M860 46 c0 -38 16 -57 26 -32 8 21 54 21 54 1 0 -8 5 -15 10 -15 6 0
10 18 10 40 0 40 -13 53 -24 25 -3 -8 -15 -15 -26 -15 -11 0 -20 7 -20 15 0 8
-7 15 -15 15 -10 0 -15 -10 -15 -34z"/>
<path d="M980 40 c0 -22 5 -40 10 -40 6 0 10 18 10 40 0 22 -4 40 -10 40 -5 0
-10 -18 -10 -40z"/>
<path d="M1022 43 c3 -38 3 -38 48 -38 45 0 45 0 48 38 l3 37 -51 0 -51 0 3
-37z m76 0 c-2 -12 -12 -18 -28 -18 -16 0 -26 6 -28 18 -3 13 3 17 28 17 25 0
31 -4 28 -17z"/>
<path d="M1140 40 c0 -22 5 -40 10 -40 6 0 10 11 10 25 0 32 5 31 34 -2 31
-36 56 -26 56 22 0 24 -4 35 -15 35 -10 0 -15 -10 -15 -26 l0 -27 -21 27 c-11
14 -29 26 -40 26 -16 0 -19 -7 -19 -40z"/>
<path d="M1428 57 c12 -13 22 -31 22 -40 0 -29 17 -19 39 23 16 31 17 40 7 40
-8 0 -17 -7 -20 -16 -6 -16 -8 -16 -24 0 -29 26 -49 20 -24 -7z"/>
<path d="M1524 55 c-9 -38 12 -57 60 -53 40 3 41 4 44 41 l3 37 -50 0 c-46 0
-51 -2 -57 -25z m84 -12 c-2 -12 -12 -18 -28 -18 -16 0 -26 6 -28 18 -3 13 3
17 28 17 25 0 31 -4 28 -17z"/>
<path d="M1652 43 c3 -35 6 -38 38 -41 38 -4 60 16 60 55 0 33 -28 29 -32 -4
-2 -20 -9 -28 -23 -28 -14 0 -21 8 -23 28 -5 42 -24 32 -20 -10z"/>
<path d="M1760 41 c0 -23 5 -41 10 -41 6 0 10 5 10 10 0 13 47 13 55 0 11 -19
23 -1 22 33 -2 31 -4 32 -49 35 l-48 3 0 -40z m70 9 c0 -5 -9 -10 -19 -10 -11
0 -23 5 -26 10 -4 6 5 10 19 10 14 0 26 -4 26 -10z"/>
<path d="M1922 43 c3 -36 5 -38 41 -41 21 -2 37 1 37 7 0 6 -11 11 -25 11 -21
0 -25 5 -25 30 0 21 -5 30 -16 30 -12 0 -14 -9 -12 -37z"/>
<path d="M2010 39 c0 -25 4 -39 11 -37 6 2 10 7 10 11 -1 4 -1 21 -1 37 0 17
-4 30 -10 30 -5 0 -10 -18 -10 -41z"/>
<path d="M2050 46 c0 -19 5 -38 10 -41 6 -3 10 1 10 9 0 11 9 16 30 16 40 0
38 18 -2 23 l-33 4 33 1 c46 3 40 22 -8 22 -39 0 -40 -1 -40 -34z"/>
<path d="M2150 40 l0 -40 40 0 c22 0 40 5 40 10 0 6 -14 10 -32 10 -36 0 -28
16 12 23 20 3 18 5 -9 6 -38 1 -33 16 9 24 16 3 10 5 -17 6 l-43 1 0 -40z"/>
<path d="M2246 65 c-6 -17 29 -36 50 -28 7 2 15 -1 20 -8 5 -9 -2 -11 -30 -6
-27 4 -36 3 -33 -6 2 -7 21 -12 43 -12 33 0 40 4 42 23 3 19 -1 22 -32 22 -20
0 -36 5 -36 11 0 7 12 9 35 5 22 -4 35 -3 35 4 0 17 -87 12 -94 -5z"/>
<path d="M2355 70 c3 -5 13 -10 21 -10 9 0 14 -11 14 -30 0 -17 5 -30 10 -30
6 0 10 13 10 29 0 21 6 30 22 34 26 7 58 -17 58 -45 0 -10 5 -18 10 -18 6 0
10 6 10 14 0 7 9 25 21 40 16 21 17 26 5 26 -8 0 -19 -7 -24 -16 -8 -14 -10
-14 -21 0 -15 18 -147 24 -136 6z"/>
<path d="M2570 41 l0 -39 85 -1 c47 0 85 4 85 10 0 5 -13 9 -30 9 -38 0 -39
17 -2 23 l27 4 -27 2 c-16 0 -28 6 -28 12 0 7 10 9 25 7 14 -3 28 -1 31 3 3 5
-15 9 -40 9 -44 0 -46 -1 -46 -30 0 -27 -3 -30 -30 -30 -27 0 -30 3 -30 30 0
17 -4 30 -10 30 -5 0 -10 -18 -10 -39z"/>
<path d="M2760 60 c0 -11 5 -20 10 -20 6 0 10 9 10 20 0 11 -4 20 -10 20 -5 0
-10 -9 -10 -20z"/>
<path d="M1270 15 c0 -8 5 -15 10 -15 6 0 10 7 10 15 0 8 -4 15 -10 15 -5 0
-10 -7 -10 -15z"/>
<path d="M1320 15 c0 -8 5 -15 10 -15 6 0 10 7 10 15 0 8 -4 15 -10 15 -5 0
-10 -7 -10 -15z"/>
<path d="M1376 21 c-4 -7 -5 -15 -2 -18 9 -9 19 4 14 18 -4 11 -6 11 -12 0z"/>
<path d="M2766 21 c-4 -7 -5 -15 -2 -18 9 -9 19 4 14 18 -4 11 -6 11 -12 0z"/>
</g>
</svg>
