<svg xmlns="http://www.w3.org/2000/svg" viewBox="0 0 500.2 108.2"><defs><style>.a{fill:#fefefe;}.b{fill:#2d2d2d;}.c{fill:#2e2e2e;}.d{fill:#888;}.e{fill:#2f2f2f;}.f{fill:#303030;}.g{fill:#313131;}.h{fill:#333;}.i{fill:#323232;}.j{fill:#f3f3f3;}.k{fill:#353535;}.l{fill:#2c2c2c;}.m{fill:#232323;}.n{fill:#3c3c3c;}.o{fill:#e0e0e0;}.p{fill:#282828;}.q{fill:#1c1c1c;}.r{fill:#fdfdfd;}.s{fill:#f0f0f0;}.t{fill:#eee;}.u{fill:#c7c7c7;}.v{fill:#242424;}.w{fill:#f1f1f1;}</style></defs><title>fragrance-outlet</title><path class="a" d="M185,163H147c0-34.8,0-69.7-.1-104.5,0-3,.6-3.6,3.6-3.6h493c3,0,3.6.6,3.6,3.6q-.2,50.2,0,100.5c0,3.4-.7,4.1-4.1,4.1H192c-.1-2.7,2.2-2.1,3.5-2.4,14.2-3.6,23.9-11.7,27.9-26.1,4.2-12.1-2-28.7-13.7-37.2-19.5-14.1-47.1-5.5-56.1,17.5l-.6,1.6c4.1-11.9,12.3-20.3,25.1-23.7,24.5-6.4,47.6,12.6,46.3,35.7-.1,1,0,2,0,3-2.5,8.3-5.6,15.9-12.9,21.6s-14.6,7.6-22.8,9.1C187.4,162.2,186,161.9,185,163Z" transform="translate(-146.9 -54.9)"/><path class="b" d="M225.2,135.4c-3.9,14.1-13.6,21.9-27.3,25.7-2,.6-4.2.4-5.9,1.9h-7c-1.2-3.6,1.8-1.8,2.8-2,10.3-1.4,19.5-4.8,26.5-13,4.2-5,6.4-10.8,7.8-17C225,131.1,225.1,133.3,225.2,135.4Z" transform="translate(-146.9 -54.9)"/><path class="c" d="M225.2,135.4l-3.1-4.4c.7-14.2-4.7-25.3-17.1-32.6-17.1-10-39.4-3.2-48.8,14.6a48.7,48.7,0,0,0-4.5,11.7c-1.4-5.1-.4-8.6.8-12.1,6.6-18.7,27.2-28.9,47.1-23.2s30.9,24.7,26.4,44.1A10.8,10.8,0,0,1,225.2,135.4Z" transform="translate(-146.9 -54.9)"/><path class="c" d="M497.1,128c-1.7-12.3,4.2-19.1,16.2-18.4,9.6.6,15.2,7.7,13.7,17.5-1.2,7.9-9.9,13.5-18,11.7-5-1.1-9.4-3.2-11-8.6C497.3,129.5,498.2,128.4,497.1,128Z" transform="translate(-146.9 -54.9)"/><path class="c" d="M335,129c-3,3.6-6.8,4.6-11.2,3.5-1.2-.3-2.5-.4-2.6,1.2s1.3,1.4,2.2,1.4c3,.1,6-.1,9,.2s5.4,1,5.9,4.3-1.1,5-4.3,6.1a22.1,22.1,0,0,1-14.5.3c-1.3-.4-3.2-1.4-2.7-2.5,1.7-3.3-.6-7.2.7-9.4s1.2-4.7.5-7.4c-1.3-5.1,2.5-9.2,8.5-8.8,4.2.3,8.3.9,12.4.2a1.7,1.7,0,0,1-.4,1.9C334.3,121.9,336.1,126,335,129Z" transform="translate(-146.9 -54.9)"/><path class="d" d="M166.9,147.3c10.5,4,19.7.4,28.6-4.6a12.5,12.5,0,0,1,8.7-1.5c2.1.4,4.7.6,5.3,3s-1.6,3.9-3.3,5c-8.9,5.4-18.4,7.5-28.6,4.3C173.7,152.4,169.8,150.9,166.9,147.3Z" transform="translate(-146.9 -54.9)"/><path class="e" d="M259.8,111c.1,2.6.2,5.3.3,7.9,0,1,0,2.1-1.5,2.1s-1.6-.8-1.7-1.9c-.6-4.9-3.9-5.9-8.1-6s-4.1,1-3.6,3.8-1,4.1,1.3,4.8,3.2-1.1,3.6-3.1a1.4,1.4,0,0,1,1.9-1.1c1,.3,1.1,1.1,1.1,2a44.7,44.7,0,0,1,0,5.5c-.2,1.7,1.1,4.2-1,4.9s-1.6-2.2-2.5-3.3a3,3,0,0,0-3-1.4c-1.3.2-1.4,1.4-1.3,2.3.4,2.9-1.9,7.1,3.6,7.7.7.1,1,.9.8,1.6s-1,1.2-1.9,1.2h-10c-1.1,0-2.6.5-2.9-1.2s1.5-1.7,2.6-2.1l1.3-.7a54.3,54.3,0,0,0-.1-19.9c-.9-1.5-4.5.4-3.7-3.1A123,123,0,0,1,259.8,111Z" transform="translate(-146.9 -54.9)"/><path class="e" d="M292,126.1c-3-3.1-2.8-5.4.7-7.2,7.5-3.9,14.1-.1,14.1,8.3,0,2,0,4,.1,6s.4,2.1,1.8,1.4,1.1-2.2,2-.5a3.5,3.5,0,0,1-.3,2.8c-.9,1.6-3,2.4-4.3,1.6-3.6-2.1-6.8-1.1-10.4,0a5.2,5.2,0,0,1-6.6-3.1c-1.5-3.7.7-5.9,3.8-7.5.9-1,2.4-1,3.2-2.1s-.2-.7.2-.2-.1.1-.4.3S293.4,126.9,292,126.1Z" transform="translate(-146.9 -54.9)"/><path class="e" d="M387,138.7c-3.1-3.6-6.7-.6-10.3-.1s-5.7-.7-6.5-4.1,1-5.1,3.8-6.1l6.4-2.3c2-.8,3.1-2.2,1.8-4.3s-3.2-2.2-5.3-1.7-.7,1.4-.3,2.3a2.2,2.2,0,0,1-1.2,3.3,3,3,0,0,1-3.6-.7,2.7,2.7,0,0,1-.3-3.7c2.9-4.1,7.2-3.7,11.3-3.2s5.6,2.6,5.3,6.5c-.1,2.3-.1,4.7,0,7s-.3,2.4,1,3.1,3-.6,2.2,2S389,138.2,387,138.7Z" transform="translate(-146.9 -54.9)"/><path class="f" d="M191.8,127.3c-.9-1.3-1.8-3-3.8-2.2s-1.1,2.5-1.1,3.8-.5,4.3,1.4,5.9c-3.1,2.6-6.2,2.6-9.4,0,3.1-6.7,1.3-13.7,1.1-20.6,0-1.3-1.8-1.1-2.9-1.5s0-2.2,1.4-2.3c6.9-.1,13.9,0,20.8-.1,1.7,0,2.4.8,2.3,2.4s.6,5.3-.5,7.8c-3.3.6-2.5-2.1-3.1-3.8-1.4-4.4-5.2-3.8-8.6-3.9s-2.5,2.5-2.5,4.3-.9,3.7,1.3,4.2,2.9-2.1,3.8-3.7C194,121.1,194.8,124.3,191.8,127.3Z" transform="translate(-146.9 -54.9)"/><path class="e" d="M464.4,138.7c-5.9.1-9.9-3.4-10.5-9.1s2.6-10.6,7.8-11.6,10.1,1.5,11.7,6.7c1,3.2-.1,4.3-3.2,4.1a35.6,35.6,0,0,0-5.5,0c-1.5.1-3.6-.9-4.4,1.2s.3,3,1.3,4.1a4.5,4.5,0,0,0,5,1.1,5.1,5.1,0,0,0,2.6-2.2c.7-1.1,1.6-1.7,2.8-.6s.5,2.1-.2,3.1C470.1,137.9,467.3,138.5,464.4,138.7Z" transform="translate(-146.9 -54.9)"/><path class="c" d="M622.2,125.7c1.2,2.3.1,3-2.1,3s-4.7-.1-7,.1-4.2-.8-3.9,2.3,1.7,4.5,4.5,4.4a4.4,4.4,0,0,0,4.2-2.3c.9-1.8,2.7-2,3.6-.9s-.5,2.3-1.4,3.3a10.1,10.1,0,0,1-12.2,2c-3.9-2-5.8-6.4-4.8-11.6a9.2,9.2,0,0,1,8.4-8c5.2-.8,8.3,1.1,10.5,6.1-1,3.5-1,3.5-7.9,3.5C616.4,126.8,619.9,129,622.2,125.7Z" transform="translate(-146.9 -54.9)"/><path class="c" d="M435.1,128.2c.1,2.9.2,5.7,3.1,7s4.4-.8,5.5-2.9,1.7-1.7,2.8-1,.5,1.7.2,2.7c-1.8,5.4-10.5,6.6-15,2.1s-3.8-9.7-.9-13.8a11,11,0,0,1,13-3.4c2.7,1.2,4.3,3.2,3.9,6.3a3.1,3.1,0,0,1-3.9,2.9c-2-.4-3.2-1.8-2.1-4.1s1.8-1.5.6-2.4a3.4,3.4,0,0,0-3.3-.4C435.3,122.2,435.2,125.3,435.1,128.2Z" transform="translate(-146.9 -54.9)"/><path class="g" d="M637.4,120c-.8,4-.5,8-.5,12,0,1.1-.1,2.6,1.4,2.8s1.4-1.3,1.9-2.3-.1-3.8,2.1-3.1.9,2.6.6,4c-.7,3.1-2,5.5-5.9,5.3s-5.3-2.7-5.7-6.2,1.1-8.5-1.7-12.6c-1.2-1.8,2-2.5,3-3.9s.2-5.5,3.2-4.6.6,4.1,1.3,6.3A17.5,17.5,0,0,1,637.4,120Z" transform="translate(-146.9 -54.9)"/><path class="c" d="M578.4,131.8c0,3.8-1.1,6.6-5.2,6.8s-6-1.7-6.4-5.9,2-9-2.3-12.6c-.9-.7.1-1.5.8-1.9a7,7,0,0,0,3.6-5.1c.2-1.3.6-2.4,2.2-2s.8,1.6,1,2.5c1.5,5.5-.4,11,0,16.6.1,1.7-.8,4.2,1.7,4.6s1.9-2.2,2.1-3.7.1-1.9,1.2-1.7S578.3,131,578.4,131.8Z" transform="translate(-146.9 -54.9)"/><path class="f" d="M588.9,115.2c-.1-.1-.3-.3-.3-.4,0-2.2-4.8-1.3-3-3.9s4.4-.8,6.6-.6,1.8,2.8,1.8,4.3c.1,5,0,9.9.1,14.9,0,2.2-.6,4.5,2.1,6.1s.8,2.3-1.1,2.3-4.3.1-6.5,0-2.9.7-3.4-1,1.4-1.5,2.2-2.2a10.7,10.7,0,0,0,1.5-2A51.4,51.4,0,0,0,588.9,115.2Z" transform="translate(-146.9 -54.9)"/><path class="h" d="M275.7,120.2c-1.8,3.7-1.8,7.6-1.7,11.6.1,1.5.1,3,2.1,3.4s2.1.6,1.6,1.9-1.7.8-2.6.9a44.4,44.4,0,0,1-5,0c-1.6-.1-3.7.8-4.6-.7s1.9-1.8,2.3-3.1a19,19,0,0,0,.2-10.3c-1.2-4.1.3-4.3,3.5-4.3a15.3,15.3,0,0,1,4.3.7Z" transform="translate(-146.9 -54.9)"/><path class="g" d="M401.4,127.8c-.1-1.3-.3-2.9-.2-4.6s-2.1-2.4,0-3.3,3.5-2.1,5.1-.7a4.9,4.9,0,0,1,1.5,4.4c-.6,4.2-2.7,8.6,1.6,12.3,1.2,1.1-.2,2-1.6,2s-3.7.1-5.5,0-3.3.8-4-.9,1.7-1.6,2.3-2.6S401.2,130.3,401.4,127.8Z" transform="translate(-146.9 -54.9)"/><path class="e" d="M408.1,121.3c3.4-3.4,6-3.9,8.9-2.8s2.9,3.6,3.2,6.2-1.8,8.4,2.6,11.4c.4.2.4,1.5-.4,1.6a29.5,29.5,0,0,1-9.9-.2c-.1,0-.3-1.5,0-1.7,3.8-2.3,2-6,2.3-9.1S414.1,120.3,408.1,121.3Z" transform="translate(-146.9 -54.9)"/><path class="h" d="M547.9,135.2c-1.2,3.9-4.3,3.5-7.3,3.2s-3.8-2.8-4.2-5.4.5-7.9-1-11.8c-.7-1.9,1.3-2.4,2.8-2.3s3.6-.6,3.7,2,.2,6.3,0,9.5,1.8,6.1,6.1,4.9Z" transform="translate(-146.9 -54.9)"/><path class="e" d="M199,78c.8,6.1.8,6.1-5.1,6.1-3.5,0-7-.3-10.4.1-5.1.5-6.6-1.5-5.2-6.2A85.4,85.4,0,0,1,199,78Z" transform="translate(-146.9 -54.9)"/><path class="i" d="M355.1,124c0,2.5,0,4.9,0,7.4s0,2.7,1.3,3.5,3,.4,2.2,2.4-2,.6-3.1.7a10,10,0,0,1-3.4,0c-1.9-.6-9.2,2.6-3-4.3,1.7-1.9.6-6.3.8-9.6C351.7,122.5,353.4,122.1,355.1,124Z" transform="translate(-146.9 -54.9)"/><path class="g" d="M547.9,135.2h.1a18,18,0,0,0,.8-13.9c.2-3.1,2.6-1.6,4.1-1.7s1.5,1.3,1.6,2.5c.3,3.9-.7,7.9.5,11.8.6,1.6,4.8,1.4,3,3.3s-5.5,1.7-8-.2A10.8,10.8,0,0,1,547.9,135.2Z" transform="translate(-146.9 -54.9)"/><path class="f" d="M196.7,68.8c3.7-1.9,6.3-3.3,9-4.6s4.7-1,4.4,2.6,1.4,5.9-1.2,7.4-4.1-1.4-6.2-2.3S199.3,70.2,196.7,68.8Z" transform="translate(-146.9 -54.9)"/><path class="g" d="M192,66.1c2.5,7.1,1.7,8.3-6,7.8C184.9,67,184.9,67,192,66.1Z" transform="translate(-146.9 -54.9)"/><path class="j" d="M292,126.1c1.9-.3,3.9-.6,3.4-3.2s-2.3-2.7.7-3.1,3.7-.1,4.8,1.8a2.9,2.9,0,0,1-1.3,4.2,14.1,14.1,0,0,1-6.6,1.9Z" transform="translate(-146.9 -54.9)"/><path class="k" d="M361.1,118c2.5.5,4.1,1.9,3.9,4.7s-1.3,3.2-3.2,3.1c-3.9-.2-2.4-3.5-3-5.6S359.6,118.1,361.1,118Z" transform="translate(-146.9 -54.9)"/><path class="g" d="M275.7,120.2v.2c.8-2.9,3-2.6,5.1-1.9a3.8,3.8,0,0,1,2.7,4.3c-.2,1.9-1.2,3.2-3.1,3.2s-3.3-1.4-2.4-3.3C279.7,118.9,276.5,120.8,275.7,120.2Z" transform="translate(-146.9 -54.9)"/><path class="k" d="M201,120.7c0-9.7-.1-9.9-9.7-9.6-4.8.2-9.9-1.9-14.3,1.7-.2-2.5-.2-2.7,1.7-2.7h19.9c2.1,0,3.2.8,3,2.9S202.4,118.2,201,120.7Z" transform="translate(-146.9 -54.9)"/><path class="l" d="M355.1,124H350a2.8,2.8,0,0,1-.3-.9c0-2-4.4-1.7-2.6-3.7s4.8-1.1,7-.3A3,3,0,0,1,355.1,124Z" transform="translate(-146.9 -54.9)"/><path class="m" d="M555.1,133.9c-2.2-3.1-.7-6.6-1.1-9.9s-1.9-4.8-5.1-2.7c-.9-.2-2.2,0-2.3-1.3s.9-1.1,1.8-1.3c5.6-1.1,6.8-.1,6.8,5.8C555.1,127.7,555.1,130.8,555.1,133.9Z" transform="translate(-146.9 -54.9)"/><path class="k" d="M259.8,111H235A77.5,77.5,0,0,1,259.8,111Z" transform="translate(-146.9 -54.9)"/><path class="m" d="M178.8,134.9a10.8,10.8,0,0,0,9.4,0c1,.1,2.5-.7,2.8,1s-1,1.5-2,1.5H178.2c-1,0-2.1-.4-1.8-1.7S177.9,134.8,178.8,134.9Z" transform="translate(-146.9 -54.9)"/><path class="k" d="M337.7,119.2l1.2-.9c2.5.7,3.9,2.4,2.7,4.7s-3.1,1.9-4.7.1S336.8,120.3,337.7,119.2Z" transform="translate(-146.9 -54.9)"/><path class="n" d="M199,78H178.3A57.5,57.5,0,0,1,199,78Z" transform="translate(-146.9 -54.9)"/><path class="m" d="M238.7,114.1a33.8,33.8,0,0,1,.1,19.9Z" transform="translate(-146.9 -54.9)"/><path class="m" d="M588.9,115.2a28.4,28.4,0,0,1,0,17.6Z" transform="translate(-146.9 -54.9)"/><path class="e" d="M497.1,128c1.3-1.5.1-4.1,2.3-5.1.2-.1.9.4,1.1.7.9,2.4-.8,4-2,5.7l-.5.8Z" transform="translate(-146.9 -54.9)"/><path class="m" d="M191.8,127.3c1.7-3.1,1.1-6.2.2-9.4.2-.2.6-.6.7-.6s2.6,11.4,1,12.1S191.8,128.6,191.8,127.3Z" transform="translate(-146.9 -54.9)"/><path class="o" d="M337.7,119.2c.6,1.5-.6,2.6-.7,3.9l-1.9,6c.2-1.9.6-3.9,0-5.8S335.5,119.6,337.7,119.2Z" transform="translate(-146.9 -54.9)"/><path class="p" d="M622.2,125.7c-3.1,4-7.2,1.7-10.9,1.9,3.5-1.5,8.3,1.2,10.6-3.6Z" transform="translate(-146.9 -54.9)"/><path class="q" d="M192,66.1c-4,1-7.1,2.8-6,7.8-2.5-2.1-1.9-5.3-.8-7S189.6,66.1,192,66.1Z" transform="translate(-146.9 -54.9)"/><path class="r" d="M519.9,123.9c0,3.9-.6,7.1-3.1,9.6a7.4,7.4,0,0,1-12.4-3.1,18.3,18.3,0,0,1,.2-12.4c1.4-3.3,3.4-4.9,7-5.1s5.6,1.6,7,4.5A13.4,13.4,0,0,1,519.9,123.9Z" transform="translate(-146.9 -54.9)"/><path class="s" d="M330,125.4c.1,2.8-.7,6.1-3.5,6.1s-3.3-3.3-3.2-6,.3-5.1,3.4-5.2S329.8,123,330,125.4Z" transform="translate(-146.9 -54.9)"/><path class="j" d="M327,139.9h2.2c1.7.2,4.3-.3,4.4,2.1s-2.5,2.6-4.4,2.8h-1.5c-2.4-.4-6.5,1.1-6.5-2.5S325.5,140.8,327,139.9Z" transform="translate(-146.9 -54.9)"/><path class="t" d="M297.8,135.2c-1.5,0-2.8-.4-2.8-2.1,0-3.1,2.8-3.7,5-4.6s1.6.8,1.5,1.8C301.4,132.8,300.6,134.9,297.8,135.2Z" transform="translate(-146.9 -54.9)"/><path class="u" d="M383,130.4c-.2,2.8-1.2,4.8-4.1,4.9s-3.1-.8-2.8-2.7,2.9-3.4,5.1-4.2S382.8,129.6,383,130.4Z" transform="translate(-146.9 -54.9)"/><path class="v" d="M181.8,117.4v14.1h-.4v-14Z" transform="translate(-146.9 -54.9)"/><path class="w" d="M464.1,126c-1.3-.5-3.8.9-3.6-2a3.4,3.4,0,0,1,3.7-3.2c2.1.1,3.5,1.3,3.6,3.4S465.4,125.5,464.1,126Z" transform="translate(-146.9 -54.9)"/><path class="s" d="M613.2,126.1c-1.6-.5-4.1.7-3.9-2.1a3.7,3.7,0,0,1,7.4.2C616.8,127.1,614.1,125.3,613.2,126.1Z" transform="translate(-146.9 -54.9)"/></svg>