<?xml version="1.0" encoding="utf-8"?>
<!-- Generator: Adobe Illustrator 16.0.0, SVG Export Plug-In . SVG Version: 6.00 Build 0)  -->
<!DOCTYPE svg PUBLIC "-//W3C//DTD SVG 1.1//EN" "http://www.w3.org/Graphics/SVG/1.1/DTD/svg11.dtd">
<svg version="1.1" id="Layer_1" xmlns="http://www.w3.org/2000/svg" xmlns:xlink="http://www.w3.org/1999/xlink" x="0px" y="0px"
	 width="960px" height="300px" viewBox="0 0 960 300" enable-background="new 0 0 960 300" xml:space="preserve">
<circle fill="none" stroke="#F04B4C" stroke-width="6" stroke-miterlimit="10" cx="522.222" cy="142.222" r="27.164"/>
<circle fill="none" stroke="#F04B4C" stroke-width="6" stroke-miterlimit="10" cx="609.222" cy="224.223" r="27.164"/>
<circle fill="none" stroke="#F04B4C" stroke-width="6" stroke-miterlimit="10" cx="593.222" cy="59.222" r="27.164"/>
<circle fill="none" stroke="#F04B4C" stroke-width="6" stroke-miterlimit="10" cx="433.222" cy="59.222" r="27.164"/>
<circle fill="none" stroke="#F04B4C" stroke-width="6" stroke-miterlimit="10" cx="359.222" cy="142.222" r="27.164"/>
<circle fill="none" stroke="#F04B4C" stroke-width="6" stroke-miterlimit="10" cx="422.222" cy="217.223" r="27.164"/>
<g>
	<text transform="matrix(1 0 0 1 501.5557 148.8711)" fill="#F04B4C" font-family="'MyriadPro-Regular'" font-size="19.5869">EOM</text>
</g>
<line fill="none" stroke="#F04B4C" stroke-width="6" stroke-miterlimit="10" x1="541.808" y1="123.411" x2="578" y2="82.222"/>
<g>
	<g>
		<path fill="#F04B4C" d="M576.524,52.353c0.88-0.168,2.032-0.293,3.497-0.293c1.803,0,3.121,0.418,3.96,1.173
			c0.774,0.67,1.255,1.696,1.255,2.953c0,1.277-0.377,2.283-1.11,3.016c-0.962,1.026-2.534,1.549-4.313,1.549
			c-0.546,0-1.049-0.021-1.466-0.125v5.655h-1.823V52.353z M578.348,59.138c0.396,0.105,0.92,0.146,1.507,0.146
			c2.221,0,3.54-1.088,3.54-2.994c0-1.885-1.319-2.786-3.33-2.786c-0.797,0-1.403,0.083-1.717,0.147V59.138z"/>
		<path fill="#F04B4C" d="M593.18,66.51c-3.748,0-6.346-2.89-6.346-7.162c0-4.482,2.765-7.414,6.534-7.414
			c3.875,0,6.366,2.953,6.366,7.142c0,4.836-2.952,7.434-6.533,7.434H593.18z M593.263,65.023c2.891,0,4.524-2.659,4.524-5.863
			c0-2.807-1.465-5.738-4.502-5.738s-4.545,2.827-4.545,5.885c0,2.974,1.634,5.717,4.502,5.717H593.263z"/>
		<path fill="#F04B4C" d="M601.879,64.06c0.817,0.523,1.99,0.921,3.247,0.921c1.863,0,2.953-0.963,2.953-2.409
			c0-1.297-0.755-2.072-2.66-2.784c-2.304-0.838-3.728-2.052-3.728-4.021c0-2.199,1.821-3.833,4.565-3.833
			c1.424,0,2.492,0.335,3.1,0.69l-0.503,1.487c-0.439-0.272-1.383-0.67-2.66-0.67c-1.927,0-2.66,1.152-2.66,2.115
			c0,1.319,0.859,1.969,2.807,2.723c2.388,0.942,3.581,2.073,3.581,4.147c0,2.177-1.591,4.083-4.921,4.083
			c-1.361,0-2.848-0.418-3.602-0.922L601.879,64.06z"/>
	</g>
</g>
<line fill="none" stroke="#F04B4C" stroke-width="6" stroke-miterlimit="10" x1="452.222" y1="78.222" x2="503.223" y2="122.222"/>
<g>
	<g>
		<text transform="matrix(1 0 0 1 412.667 63.6758)" fill="#F04B4C" font-family="'MyriadPro-Regular'" font-size="18.6483">CRM</text>
	</g>
</g>
<line fill="none" stroke="#F04B4C" stroke-width="6" stroke-miterlimit="10" x1="460" y1="60" x2="566" y2="60"/>
<line fill="none" stroke="#F04B4C" stroke-width="6" stroke-miterlimit="10" x1="542.894" y1="158.586" x2="589.709" y2="205.402"/>
<g>
	<text transform="matrix(1 0 0 1 586.7783 227.7295)" fill="#F04B4C" font-family="'MyriadPro-Regular'" font-size="14.6931">MERCH</text>
</g>
<line fill="none" stroke="#F04B4C" stroke-width="6" stroke-miterlimit="10" x1="495" y1="143" x2="386" y2="143"/>
<text transform="matrix(1 0 0 1 340.7876 148.8721)" fill="#F04B4C" font-family="'MyriadPro-Regular'" font-size="20.4971">TMS</text>
<line fill="none" stroke="#F04B4C" stroke-width="6" stroke-miterlimit="10" x1="507.188" y1="164.845" x2="444.789" y2="202.102"/>
<text transform="matrix(1.702 0 0 1 398.3916 224.2217)" fill="#F04B4C" font-family="'MyriadPro-Regular'" font-size="13.3293">WMS</text>
<line fill="none" stroke="#F04B4C" stroke-width="6" stroke-miterlimit="10" x1="374.256" y1="164.845" x2="404.023" y2="197.059"/>
<line fill="none" stroke="#F04B4C" stroke-width="6" stroke-miterlimit="10" x1="593.223" y1="86.386" x2="609.223" y2="197.059"/>
</svg>
