<svg id="Layer_1" data-name="Layer 1" xmlns="http://www.w3.org/2000/svg" viewBox="0 0 195.26 40.34"><title>Hot_Topic (1)</title><path d="M18.68,53.63V92.38H10.89V53.63ZM26.52,69V53.63h7.86V92.38H26.52V75.5h-6.4V69Z" transform="translate(-10.89 -52.79)"/><path d="M36.73,63.6q0-10.36,11.43-10.79v6.3q-3.35.38-3.35,4.14V82.64q0,3.82,3.35,4.17V93q-11.38-.37-11.43-11.72ZM53,63.25q0-3.85-3.47-4.17v-6.3q11.62.08,11.64,11V81.44q0,11.27-11.64,11.56v-6.2Q53,86.51,53,82.64Z" transform="translate(-10.89 -52.79)"/><path d="M62.8,53.64H86.41v6.48H62.8Zm7.92,38.75V61.7h7.69V92.38Z" transform="translate(-10.89 -52.79)"/><path d="M92.61,53.64h23.61v6.48H92.61Zm7.92,38.75V61.7h7.69V92.38Z" transform="translate(-10.89 -52.79)"/><path d="M118,63.68q0-10.38,11.22-10.81v6.31q-3.29.38-3.29,4.15V82.75q0,3.83,3.29,4.17v6.2Q118,92.75,118,81.38Zm16-.35q0-3.85-3.41-4.17V52.85q11.41.08,11.43,11V81.55q0,11.29-11.43,11.58v-6.2q3.41-.3,3.41-4.17Z" transform="translate(-10.89 -52.79)"/><path d="M144.63,53.69h7.65V92.38h-7.65Zm11.69,15.68q3.65-.05,3.56-4.63t-3.6-4.58h-2.57V53.69h2.38q11.71,0,11.67,10.33,0,11.88-11.46,11.83h-2.59V69.37Z" transform="translate(-10.89 -52.79)"/><path d="M169.74,92.38V53.56h7.63V92.38Z" transform="translate(-10.89 -52.79)"/><path d="M180.08,63.34q0-9.91,11-10.47v6.3q-3.07.45-3.07,3.83V83q0,3.24,3.07,3.69v6.19q-11.09-.48-11-11.24Zm12.64-10.5q11.56.08,11.49,10.66l0,2.83h-8.08l0-3.33q0-3.59-3.42-3.88Zm0,33.86A3.33,3.33,0,0,0,196.15,83l0-2.84,8,0v1.67q0,10.8-11.49,11.08Z" transform="translate(-10.89 -52.79)"/><path d="M204.48,56.6a1.45,1.45,0,0,1-.66-.15,1.69,1.69,0,0,1-.52-.4,1.85,1.85,0,0,1-.34-.59,2,2,0,0,1-.12-.7,2,2,0,0,1,.12-.71,1.8,1.8,0,0,1,.34-.59,1.67,1.67,0,0,1,.52-.4,1.46,1.46,0,0,1,.66-.15,1.59,1.59,0,0,1,.67.14,1.62,1.62,0,0,1,.53.39A1.79,1.79,0,0,1,206,54a2.07,2.07,0,0,1,.13.73,1.93,1.93,0,0,1-.48,1.28,1.68,1.68,0,0,1-.53.4A1.49,1.49,0,0,1,204.48,56.6Zm0-3.33a1.17,1.17,0,0,0-.55.13,1.36,1.36,0,0,0-.42.34,1.51,1.51,0,0,0-.27.48,1.71,1.71,0,0,0-.09.54,1.75,1.75,0,0,0,.09.55,1.49,1.49,0,0,0,.27.48,1.36,1.36,0,0,0,.42.34,1.17,1.17,0,0,0,.55.13,1.38,1.38,0,0,0,.55-.11,1.35,1.35,0,0,0,.45-.32,1.56,1.56,0,0,0,.42-1.07,1.47,1.47,0,0,0-.11-.54,1.6,1.6,0,0,0-.29-.48,1.46,1.46,0,0,0-.45-.34A1.25,1.25,0,0,0,204.47,53.27Zm0,1.79h-.17v.73H204v-2h.6a.47.47,0,0,1,.38.17.69.69,0,0,1,.14.47.62.62,0,0,1-.28.57l.3.8h-.35Zm-.17-.86v.45h.28c.12,0,.18-.07.18-.22s-.06-.23-.18-.23Z" transform="translate(-10.89 -52.79)"/></svg>