<?xml version="1.0" encoding="utf-8"?>
<!-- Generator: Adobe Illustrator 21.0.2, SVG Export Plug-In . SVG Version: 6.00 Build 0)  -->
<svg version="1.1" id="Layer_1" xmlns="http://www.w3.org/2000/svg" xmlns:xlink="http://www.w3.org/1999/xlink" x="0px" y="0px"
	 viewBox="0 0 195.3 40.3" style="enable-background:new 0 0 195.3 40.3;" xml:space="preserve">
<title>Hot_Topic (1)</title>
<path d="M7.8,0.8v38.7H0V0.8H7.8z M15.6,16.2V0.8h7.9v38.7h-7.9V22.7H9.2v-6.5H15.6z"/>
<path d="M25.8,10.8c0-6.9,3.8-10.5,11.4-10.8v6.3C35,6.6,33.9,8,33.9,10.5v19.4c0,2.5,1.1,3.9,3.3,4.2v6.2
	c-7.6-0.2-11.4-4.2-11.4-11.7V10.8z M42.1,10.5c0-2.6-1.2-4-3.5-4.2V0C46.4,0,50.3,3.7,50.3,11v17.7c0,7.5-3.9,11.4-11.6,11.6V34
	c2.3-0.2,3.5-1.6,3.5-4.2V10.5z"/>
<path d="M51.9,0.8h23.6v6.5H51.9V0.8z M59.8,39.6V8.9h7.7v30.7L59.8,39.6z"/>
<path d="M81.7,0.8h23.6v6.5H81.7V0.8z M89.6,39.6V8.9h7.7v30.7L89.6,39.6z"/>
<path d="M107.1,10.9c0-6.9,3.7-10.5,11.2-10.8v6.3c-2.2,0.3-3.3,1.6-3.3,4.2V30c0,2.6,1.1,3.9,3.3,4.2v6.2
	c-7.5-0.2-11.2-4.2-11.2-11.7V10.9z M123.1,10.5c0-2.6-1.1-4-3.4-4.2V0.1c7.6,0.1,11.4,3.7,11.4,11v17.7c0,7.5-3.8,11.4-11.4,11.6
	v-6.2c2.3-0.2,3.4-1.6,3.4-4.2V10.5z"/>
<path d="M133.7,0.9h7.6v38.7h-7.6V0.9z M145.4,16.6c2.4,0,3.6-1.6,3.6-4.6c-0.1-3.1-1.3-4.6-3.6-4.6h-2.6V0.9h2.4
	c7.8,0,11.7,3.4,11.7,10.3c0,7.9-3.8,11.9-11.5,11.8h-2.6v-6.5L145.4,16.6z"/>
<path d="M158.9,39.6V0.8h7.6v38.8H158.9z"/>
<path d="M169.2,10.5c0-6.6,3.7-10.1,11-10.5v6.3c-2,0.3-3.1,1.6-3.1,3.8v20c0,2.2,1,3.4,3.1,3.7v6.2c-7.4-0.3-11.1-4.1-11-11.2V10.5
	z M181.8,0c7.7,0.1,11.5,3.6,11.5,10.7v2.8h-8.1v-3.3c0-2.4-1.1-3.7-3.4-3.9L181.8,0z M181.8,33.9c1.8,0.1,3.4-1.4,3.4-3.2
	c0-0.2,0-0.3,0-0.5v-2.8h8V29c0,7.2-3.8,10.9-11.5,11.1L181.8,33.9z"/>
<path d="M193.6,3.8c-0.2,0-0.5,0-0.7-0.2c-0.2-0.1-0.4-0.2-0.5-0.4c-0.1-0.2-0.3-0.4-0.3-0.6c-0.1-0.2-0.1-0.5-0.1-0.7
	c0-0.2,0-0.5,0.1-0.7c0.1-0.2,0.2-0.4,0.3-0.6c0.1-0.2,0.3-0.3,0.5-0.4c0.2-0.1,0.4-0.2,0.7-0.2c0.2,0,0.5,0,0.7,0.1
	c0.2,0.1,0.4,0.2,0.5,0.4c0.1,0.2,0.2,0.4,0.3,0.6c0.1,0.2,0.1,0.5,0.1,0.7c0,0.5-0.2,0.9-0.5,1.3c-0.1,0.2-0.3,0.3-0.5,0.4
	C194,3.7,193.8,3.8,193.6,3.8z M193.6,0.5c-0.2,0-0.4,0-0.6,0.1c-0.2,0.1-0.3,0.2-0.4,0.3c-0.1,0.1-0.2,0.3-0.3,0.5
	c-0.1,0.2-0.1,0.4-0.1,0.5c0,0.2,0,0.4,0.1,0.5c0.1,0.2,0.2,0.3,0.3,0.5c0.1,0.1,0.3,0.3,0.4,0.3c0.2,0.1,0.4,0.1,0.6,0.1
	c0.2,0,0.4,0,0.6-0.1c0.2-0.1,0.3-0.2,0.4-0.3c0.3-0.3,0.4-0.7,0.4-1.1c0-0.2,0-0.4-0.1-0.5c-0.1-0.2-0.2-0.3-0.3-0.5
	c-0.1-0.1-0.3-0.3-0.4-0.3C194,0.5,193.8,0.5,193.6,0.5L193.6,0.5z M193.6,2.3h-0.2V3h-0.3V1h0.6c0.1,0,0.3,0.1,0.4,0.2
	c0.1,0.1,0.2,0.3,0.1,0.5c0,0.2-0.1,0.4-0.3,0.6l0.3,0.8h-0.4L193.6,2.3z M193.4,1.4v0.5h0.3c0.1,0,0.2-0.1,0.2-0.2
	s-0.1-0.2-0.2-0.2H193.4z"/>
</svg>
