<svg id="Layer_1" data-name="Layer 1" xmlns="http://www.w3.org/2000/svg" viewBox="0 0 106.33 41.33"><defs><style>.cls-1{fill:#292728;}.cls-1,.cls-2{fill-rule:evenodd;}.cls-2{fill:#231f20;}</style></defs><title>Jako</title><path class="cls-1" d="M161.14,203.7c20.22-2.77,38.7-.3,56.19,5.11L208,222.6a70.76,70.76,0,0,0-45.46-17.54l-1.36-1.36Z" transform="translate(-111 -202.55)"/><path class="cls-1" d="M171.69,210c-.74-1.14-1.76-2.38-2.5-3.52,15,1.84,28.78,7.86,40.13,19.7l-11.92,17.71C194.69,226,185.76,215.13,171.69,210Z" transform="translate(-111 -202.55)"/><path class="cls-2" d="M119.88,225.6h5.56v9a13.28,13.28,0,0,1-.54,4.33,5.1,5.1,0,0,1-2.2,2.52,7.9,7.9,0,0,1-4.22,1,10.29,10.29,0,0,1-4.22-.69,5,5,0,0,1-2.31-2,7,7,0,0,1-1-3.23l5.31-.67a5.24,5.24,0,0,0,.21,1.63,1.73,1.73,0,0,0,.66.86,1.59,1.59,0,0,0,.91.22,1.54,1.54,0,0,0,1.37-.64,4,4,0,0,0,.44-2.15v-7H113.4v-3.22h6.48Zm19.67,13.87h-6.33l-.87,2.74h-5.68l6.75-16.62h6.06l6.76,16.62h-5.81l-.88-2.74Zm-1.17-3.6-2-6-2,6ZM148,225.6h5.55v6.28l5.83-6.28h7.38l-6.55,6.26,6.84,10.35h-6.84l-3.78-6.83-2.87,2.78v4.06H148V225.6Zm19.33,8.32a8.18,8.18,0,0,1,2.45-6.33,9.66,9.66,0,0,1,6.82-2.27q4.49,0,6.92,2.23a8,8,0,0,1,2.42,6.24,9.55,9.55,0,0,1-1.06,4.78,7.29,7.29,0,0,1-3.06,2.9,10.8,10.8,0,0,1-5,1,12.36,12.36,0,0,1-5-.89,7.36,7.36,0,0,1-3.23-2.84,8.86,8.86,0,0,1-1.24-4.85Zm5.56,0a5.3,5.3,0,0,0,1,3.62,4.05,4.05,0,0,0,5.52,0q1-1.08,1-3.86a4.87,4.87,0,0,0-1-3.43,3.64,3.64,0,0,0-2.78-1.08,3.5,3.5,0,0,0-2.69,1.1,5.3,5.3,0,0,0-1,3.64Z" transform="translate(-111 -202.55)"/></svg>