<svg xmlns="http://www.w3.org/2000/svg" viewBox="0 0 640.2 146.2"><defs><style>.a{fill:#fefefe;}.b{fill:#9e9e9e;}.c{fill:#1b1b1b;}</style></defs><title>kicksusa1</title><path class="a" d="M396.5,182H81c-3.4,0-4.1-.7-4.1-4.1q.2-69.2,0-138.5c0-3,.6-3.6,3.6-3.6h633c3,0,3.6.6,3.6,3.6q-.2,69.2,0,138.5c0,3.4-.7,4.1-4.1,4.1Z" transform="translate(-76.9 -35.9)"/><path class="b" d="M576,161c-14.6,4.2-23.9-4.2-33-13.5a11.6,11.6,0,0,1-3.7-9.7c.2-2.6,1.1-4,3.9-4h14c2.1,0,3.2,1.1,4.4,2.7,2.6,3.3,5.9,5.2,10.4,4.8s6.7,0,10-.1c6-.2,9.2-3.5,9.3-9.3s-3.3-10.3-9.4-10.5-12-.2-18,0a13.5,13.5,0,0,1-10.3-3.8C538,103.5,538,103.6,539.3,83a8.5,8.5,0,0,1,2.9-6.1c14.9-14.1,15-13.2,35.3-14.4,13.1-.8,22.6,3.5,31.1,12.7,3.1,3.3,4.9,6.3,4.5,10.9-.2,2.7-1.1,4-3.9,3.9h-14a4.7,4.7,0,0,1-4.4-2.5c-2.5-3.9-5.9-6.1-10.9-5.6-3.5.4-7-.1-10.5.1-5.1.3-8.5,4.5-8.4,10.3s3.5,9.5,8.6,9.6,9.7.1,14.5.1h6.5c7.3.2,21.7,15.7,22.6,22.9,1.7,13.4-1.9,23.8-13.6,31.5-3.9,2.5-7.1,5.1-12,4.6S579.8,161,576,161Z" transform="translate(-76.9 -35.9)"/><path class="c" d="M406.4,161c-13.6,3.4-23-3-32-12.3-3.7-3.8-5-7.3-4.7-12.2.2-2.2,1-2.9,3-2.9h15.5c1.4,0,2.1.5,3,1.9,2.5,4,6,6.5,11.2,5.8,3.3-.4,6.7,0,10-.1a9.1,9.1,0,0,0,9.4-9.2c.1-6.2-3.6-10.4-9.2-10.5h-5c-21,0-21,0-35.8-15-1.3-1.3-2.1-2.5-2-4.3s0-2,0-3c0-20.9,0-20.9,16.1-34.5a8.3,8.3,0,0,1,5.9-2h29c3.8,0,21.5,14,22.3,17.7a10.6,10.6,0,0,1,.1,2.5c-.1,8.7.6,7-7.2,7.2h-5c-4.6.2-8.9.5-11.7-4.5-1.7-3.1-5-3.9-8.7-3.6s-7,0-10.5.1c-5.4.1-9.1,4.3-9.1,10s3.7,9.9,9.1,10c2.5.1,5.1.5,7.5-.1,15.4-3.5,24.7,6.2,34.2,15.6a4,4,0,0,1,1.4,3.1,17.2,17.2,0,0,0,0,3.5c2.8,14.6-2.5,25.6-14.9,33.6-2.9,1.9-5.3,3.5-8.9,3.3S410.7,161,406.4,161Z" transform="translate(-76.9 -35.9)"/><path class="c" d="M319,95c6.7-8,13.8-15.5,19.7-23.8,4.8-6.7,10.3-9.5,18.4-8.4,4.7.6,9.6.1,14.5.1,0,2.5-1.7,3.5-2.8,4.8-9.2,11.2-18.4,22.4-27.8,33.4-2.3,2.7-2.6,4.5-.7,7.7,9.6,15.2,18.8,30.7,28.2,46l3.5,6c-8.2,0-15.7.1-23.3-.1-1.8,0-2.4-2.2-3.2-3.5l-24.6-39.4-2.8-4.1c0,5,0,8.5,0,12.1,0,10.3-.1,20.7.1,31,.1,3.3-.9,4.4-4.2,4.3s-8.7-.2-13,0c-2.6.1-3.5-1-3.5-3.5q.1-45.5,0-91c0-2.8,1-3.8,3.8-3.7,4.3.2,8.7.2,13,0s4,.9,3.9,4c-.2,7.8-.1,15.7,0,23.5C318.1,91.7,317.5,93.2,319,95Z" transform="translate(-76.9 -35.9)"/><path class="b" d="M528.2,104c0,11.8-.1,23.7.1,35.5,0,3.5-.9,6.2-3.8,8.1l-.4.3c-8.9,11.6-20.7,13.7-34.7,13.5-11.5-.2-20.2-2.9-28.2-11.2-4.4-4.6-6.5-8.7-6.4-15.1.4-21.8.1-43.6.1-65.5,0-6.8,0-6.8,7-6.9,2.8,0,5.7.2,8.5,0,4.4-.4,5.8,1.4,5.7,5.8-.2,20.3-.1,40.6-.1,61,0,8.7,3,11.6,11.6,11.6h8.5c7.4-.1,10.7-3.2,10.7-10.5q0-30,0-60c0-7.8,0-7.8,8.1-7.8,2.7,0,5.3.2,8,0s5.3,1.4,5.3,5.2C528.1,80,528.2,92,528.2,104Z" transform="translate(-76.9 -35.9)"/><path class="c" d="M121.1,114.9c0,13.9-.2,27.4.1,40.9.1,4.3-1.3,5.5-5.4,5.2a52.1,52.1,0,0,0-10.5,0c-4.2.5-4.9-1.4-4.9-5.1q.2-44,0-87.9c0-4.2,1.2-5.6,5.3-5.2a64.1,64.1,0,0,0,11,0c3.7-.3,4.4,1.2,4.4,4.6-.2,9-.1,17.9-.1,26.9,2,.6,2.4-1.1,3.1-2,7.4-8.8,14.8-17.6,22.1-26.5a7.2,7.2,0,0,1,6.3-3c7.3.2,14.5.1,22.9.1l-10.7,13c-7.1,8.6-14.2,17.3-21.4,25.7-2.1,2.4-2.3,4.1-.6,6.8,9.9,15.8,19.5,31.8,29.1,47.7.8,1.4,2.3,2.5,1.9,4.8H152.6c-2.3,0-2.9-1.9-3.9-3.4l-24.4-38.9C123.6,117.4,123.2,115.8,121.1,114.9Z" transform="translate(-76.9 -35.9)"/><path class="c" d="M213.9,111.7c0-9.5.1-19-.1-28.5,0-2.6,1-4.2,2.6-6.1,9.5-11.4,21-15.3,36.1-14.9,12.4.4,21.4,3.7,29.6,12.5,3.5,3.7,5.5,7,5,12.1-.2,2.7-1.1,3.5-3.6,3.3s-5.7,0-8.5,0c-4.7,0-9.5,1-12.1-4.8-1.2-2.7-4.1-3.4-7.3-3.2s-7.3,0-11,.1a9.2,9.2,0,0,0-9.5,9.6q0,20.2,0,40.5a9.1,9.1,0,0,0,8.9,9.2c3.5.1,7-.3,10.5.1,5.1.6,8.1-2.1,10.8-5.7.3-.4.3-1,.6-1.3s19.4-1.4,20.5-.3.8,9.8-.9,11.3c-5.5,4.9-11.1,9.6-16.6,14.4-1.3,1.1-2.7,1.1-4.2,1.1h-30c-8.2-2.9-12.5-10.5-19.2-15.3-2.5-1.8-1.6-4.5-1.6-6.9C213.9,129.7,213.9,120.7,213.9,111.7Z" transform="translate(-76.9 -35.9)"/><path class="c" d="M181.2,111.8c0-14.5.2-29-.1-43.4-.1-4.8,1.5-6,5.9-5.6a63.4,63.4,0,0,0,11,0c3.8-.3,4.8,1.1,4.8,4.8-.2,18.6-.1,37.3-.1,55.9,0,10.6-.3,21.3.1,31.9.2,4.8-1.5,6-5.9,5.7a75.5,75.5,0,0,0-11.5,0c-3.3.2-4.2-1-4.2-4.3C181.2,141.8,181.2,126.8,181.2,111.8Z" transform="translate(-76.9 -35.9)"/><path class="b" d="M645.5,69.4l9,31.7c.6,2.3-.3,4.3-.9,6.3-1.5,5.5-3,10.9-4.7,16.3-.9,3-.3,4.2,3,4.4,10.6.6,10.6.7,13.5,11,1.5,5.4,1.4,5.6-4.3,5.6s-9,.1-13.5,0-5.1,1-6.1,4.4c-3.7,12.2-3.8,12.1-16.7,12-6.1-.1-6.3-.2-4.6-6.3l9.6-34.2L643,73.5c.4-1.4.9-2.8,1.4-4.1Z" transform="translate(-76.9 -35.9)"/><path class="b" d="M686.4,161.1c-8.6,0-8.6,0-10.9-7.8l-24.2-84c-2-7-1.8-7.2,5.6-7.3h5.5c2.9-.1,4.6,1.3,5.4,4.1,8.3,30.2,16.8,60.3,25.1,90.5C694.9,164.3,688.3,159.6,686.4,161.1Z" transform="translate(-76.9 -35.9)"/></svg>