<svg id="Layer_2" data-name="Layer 2" xmlns="http://www.w3.org/2000/svg" viewBox="0 0 261.5 84.26"><defs><style>.cls-1{fill:none;stroke:#fff;stroke-miterlimit:10;}.cls-2{fill:#fff;}</style></defs><title>kidcitystores-1360858719_280</title><polygon points="0 7 17 1.5 17 21.5 30.5 1.5 39 15 24 34 39.25 47.5 29.5 64.5 16 46 17 64.5 5 64.5 0 7"/><polygon points="44 3 54.75 3 57 64.5 41 64.5 44 3"/><path d="M240.25,364.81l10.75,1.5s12.5,2.75,16,14.25,5.17,22,2.25,31.25c-3.25,10.25-6.75,14.72-20.75,17.72-8.41,1.58-18.5-5.47-18.5-5.47Z" transform="translate(-171.5 -364.81)"/><path class="cls-1" d="M272.41,419.55l-4,28.75,2.38.13c-1.75,1,8-3.12,10.13-8.37a14.61,14.61,0,0,0-3.5-15.75Z" transform="translate(-171.5 -364.81)"/><path d="M319,374.89s-3.5-7.5-12-8.25-16.33,2-21.75,8.25c-3.37,3.89-9,14.25-6.5,28.5s6.4,20.4,9.75,23.75c6.45,6.46,11.5,5,15.25,4.25s13.25-4.75,15.25-9c-6.5-13.75-9-18.75-9-18.75s-2.44,5.39-6.25,6c-5.75.92-9.75-1.25-11-9s.15-12.38,5.84-14.35c7.7-2.67,11.66,7.1,11.66,7.1Z" transform="translate(-171.5 -364.81)"/><polygon points="148.5 1.5 173 1.5 168.75 65.33 153 65.33 148.5 1.5"/><polygon points="176.25 3.83 219 3.83 219 23.83 203.75 25.33 204.75 66.72 190.5 66.72 191.25 26.83 176.25 30.08 176.25 5.33 176.25 3.83"/><polygon points="221.5 11.58 238.75 3.83 243 30.08 248.5 3.83 261.5 11.83 244.75 66.72 229.25 66.72 236.75 44.83 221.5 11.58"/><path class="cls-2" d="M249.13,384.39s5.63,2.17,6.88,4.63c1.56,3.07,2.75,10.88,1.25,15.5s-4.9,7.63-7.14,8.5a5.21,5.21,0,0,1-4,0Z" transform="translate(-171.5 -364.81)"/></svg>