<?xml version="1.0" encoding="utf-8"?>
<!-- Generator: Adobe Illustrator 16.0.0, SVG Export Plug-In . SVG Version: 6.00 Build 0)  -->
<!DOCTYPE svg PUBLIC "-//W3C//DTD SVG 1.1//EN" "http://www.w3.org/Graphics/SVG/1.1/DTD/svg11.dtd">
<svg version="1.1" id="Layer_1" xmlns="http://www.w3.org/2000/svg" xmlns:xlink="http://www.w3.org/1999/xlink" x="0px" y="0px"
	 width="283px" height="94px" viewBox="0 0 283 94" enable-background="new 0 0 283 94" xml:space="preserve">
<g transform="translate(0.000000,350.000000) scale(0.100000,-0.100000)">
	<path d="M764.409,3332.778c-4.487-1.348-13.467-4.937-18.853-8.53c-8.975-5.83-9.424-7.627-4.038-12.114
		c3.14-2.695,7.183-12.119,8.975-20.645c8.53-53.862,12.119-244.165,5.386-306.099c-3.14-28.73-3.14-30.527,5.835-30.527
		c13.916,0,32.319,17.959,29.175,28.281c-2.246,7.178-4.038,136.445-2.246,197.036c0.449,23.784-5.381,20.645,67.773,36.802
		c42.642,9.873,71.812,23.789,71.812,35.01c0,4.487,3.145,8.076,6.733,8.076c7.183,0,15.708,13.467,15.708,24.688
		c0,16.157-23.784,27.827-78.545,38.149c-9.873,1.792-21.094,4.487-24.683,5.835
		C839.365,3332.329,776.973,3335.024,764.409,3332.778z M823.203,3309.887c2.246-2.241,15.264-4.937,28.726-5.386
		c28.726-1.343,59.692-16.606,61.938-30.068c2.695-17.056-26.929-41.294-50.269-41.294c-6.284,0-12.568-1.792-13.911-4.487
		c-1.348-2.246-15.713-4.487-31.87-4.487c-26.929,0-29.175,0.898-33.213,11.67c-2.69,6.279-3.589,21.094-2.69,32.314
		c0.898,11.67,1.792,26.479,2.241,33.657c0.449,10.776,1.797,12.124,17.505,12.124
		C811.084,3313.93,820.513,3312.134,823.203,3309.887z"/>
	<path d="M305.708,3326.494c-5.386-8.975-1.348-135.542,4.487-139.136c3.594-2.241,3.145-6.284-1.348-14.36
		c-4.937-9.424-4.937-16.157-0.898-34.561c3.145-12.568,4.043-25.137,2.246-27.827c-3.14-5.386-6.284-92.905-3.14-97.847
		c0.894-1.787,6.733-0.889,13.013,1.797c10.771,5.381,11.221,6.729,10.771,48.477c-0.449,47.573,2.246,62.383,12.119,62.383
		c3.594,0,6.284,2.246,6.284,4.492c0,6.729,56.104,5.83,61.938-1.348c5.386-6.284,7.183-52.065,3.14-87.52
		c-3.14-28.73-0.449-34.111,12.568-27.383c14.814,8.076,15.708,11.221,14.365,52.065c-0.898,21.094,0,42.642,2.241,48.022
		c4.038,11.221-0.449,21.548-16.606,37.705c-8.975,8.975-13.467,9.873-39.497,8.525c-17.051-1.348-34.111-5.386-40.84-9.873
		c-6.284-4.038-12.568-6.733-13.467-5.386c-3.14,3.14-3.14,166.514,0,177.285c3.145,8.53,1.797,9.873-10.322,9.873
		C315.581,3331.88,307.949,3329.189,305.708,3326.494z"/>
	<path d="M1756.308,3317.07c-78.535-26.929-111.309-51.616-116.689-86.626c-1.797-12.114-0.898-23.335,2.686-29.619
		c8.086-15.259,27.383-30.522,38.613-30.522c5.381,0,11.211-1.792,12.559-4.487c1.797-2.69,24.688-4.487,53.418-4.487
		c118.477,0,149.902-20.645,135.537-89.316c-5.83-29.175-8.076-35.01-27.373-66.426c-8.984-14.814-39.492-32.764-55.664-32.764
		c-4.932,0-10.313-1.797-11.66-4.492c-1.348-2.236-11.221-4.482-21.992-4.482c-17.959,0-19.746,0.898-27.383,17.949
		c-6.289,13.916-7.178,19.297-3.145,23.34c3.145,3.145,5.391,8.975,5.391,13.467c0,10.322-14.365,10.771-30.078,0.439l-11.66-7.617
		l3.145,12.109c1.787,8.53,1.348,12.119-3.145,12.119c-9.434,0-21.094-24.678-21.094-44.434c0-10.322-1.797-18.398-3.594-18.398
		c-2.246,0-11.67,4.033-21.992,8.525c-21.094,10.322-40.391,34.111-42.637,52.065c-1.797,17.954-10.771,18.853-19.297,2.69
		c-6.289-12.119-6.289-15.264-0.449-26.025c7.178-13.916,31.416-37.256,38.594-37.256c2.695,0,13.018-4.043,22.441-8.975
		c14.365-7.188,17.949-11.68,17.949-21.543c0-23.789-5.83-26.035-32.314-13.467c-13.018,6.729-33.662,16.152-46.221,21.543
		c-12.129,5.381-28.281,12.568-35.469,16.162c-7.168,3.584-15.703,6.279-19.297,6.279c-3.145,0-5.83,1.787-5.83,3.584
		c0,5.391-39.951,18.857-47.129,16.162c-3.584-1.797-6.729-4.033-6.729-5.83s-9.434-13.467-21.094-26.035
		c-12.129-12.568-34.121-36.807-49.375-53.867c-15.259-17.051-33.213-37.246-40.396-44.883
		c-20.645-23.34-28.276-34.102-28.276-41.738c0-3.584,8.53-15.703,18.403-26.924c10.327-11.221,32.314-35.459,48.921-53.857
		c17.051-18.398,35.01-38.594,40.391-44.883c65.527-76.309,88.867-98.75,101.445-98.75c5.83,0,11.66-2.236,13.008-4.482
		c1.348-2.686,6.289-4.482,10.332-4.482c8.965,0,66.416-17.061,81.23-23.789c11.67-5.84,3.594-13.027,88.867,80.332
		c61.934,67.324,75.41,83.486,78.545,92.461c3.594,8.525,3.594,8.525-40.85,57.451c-9.863,11.221-18.398,21.543-18.398,23.779
		c0,1.797,5.391,3.145,11.67,3.145c6.289,0,14.365,3.145,17.959,6.738c6.279,5.83,6.279,7.178,0,9.424
		c-10.332,4.033-8.984,8.525,8.525,26.035c17.959,17.949,21.094,39.941,8.076,50.264c-9.873,7.188-39.043,8.086-51.611,1.348
		c-11.67-6.289-13.916-3.594-10.322,15.254c2.695,13.926,4.932,16.162,19.297,17.959c58.34,8.975,79.443,18.857,113.555,53.408
		c30.068,30.522,44.434,66.431,44.434,110.864c0,36.353-7.188,50.718-31.426,61.489c-6.279,2.695-16.152,7.627-22.441,10.322
		c-6.279,3.145-33.203,5.835-59.238,6.284c-26.484,0.898-49.375,2.69-51.162,4.487c-5.84,5.386-41.299,3.594-43.545-2.246
		c-1.797-4.487-3.584-4.487-6.279-0.894c-1.787,3.14-10.771,9.424-19.297,13.911c-30.518,17.056-27.373,47.129,6.729,67.324
		c49.375,28.276,73.164,34.561,124.326,31.865c48.027-2.69,52.959-1.343,52.959,10.327c0,8.076-3.594,8.525-50.273,8.076
		C1792.666,3322.007,1763.945,3319.76,1756.308,3317.07z M1511.25,2953.515c8.984-9.863,23.789-26.475,32.773-36.348
		c9.414-10.332,17.051-19.746,17.051-21.094c0-1.797-5.391-8.984-12.119-16.611c-7.178-7.178-16.611-17.949-21.543-24.238
		c-29.17-34.561-61.045-71.357-80.791-92.451l-22.441-23.789l-36.802,39.492c-20.195,21.543-36.807,41.738-37.251,43.984
		c0,2.695,8.53,13.467,19.297,24.688c10.322,11.221,30.073,33.662,43.54,49.375c43.54,51.162,73.149,80.781,77.642,77.637
		C1492.851,2972.822,1502.285,2963.398,1511.25,2953.515z M1713.672,2968.33c0-2.236-1.797-4.482-4.482-4.482
		c-2.246,0-4.492,2.246-4.492,4.482c0,2.695,2.246,4.492,4.492,4.492C1711.875,2972.822,1713.672,2971.025,1713.672,2968.33z
		 M1559.726,2951.719c25.586-13.008,37.256-22.441,52.969-42.637c19.297-25.127,19.746-26.025,9.414-26.025
		c-6.27,0-12.559,2.236-13.906,4.482c-1.348,2.695-7.637,4.492-13.467,4.492c-6.729,0-16.611,6.738-27.822,18.848
		c-9.433,10.332-21.094,22.891-26.035,28.281c-23.789,26.035-26.035,29.17-19.746,29.17
		C1524.277,2968.33,1541.777,2960.703,1559.726,2951.719z M1721.308,2944.101c2.695-2.246-21.094-47.129-26.035-50.273
		c-7.627-4.492-18.398,11.221-15.703,22.891c7.617,30.967,11.211,35,26.025,31.865
		C1713.222,2947.236,1720.41,2944.99,1721.308,2944.101z M1647.695,2913.574c13.926-6.738,19.746-20.195,12.568-27.383
		c-3.584-3.584-9.424-0.449-20.645,11.68c-8.525,8.965-15.713,17.5-15.713,18.848
		C1623.906,2920.761,1635.136,2918.965,1647.695,2913.574z M1780.547,2889.785c0.898-0.898-3.135-8.975-8.525-17.949
		c-9.424-15.264-11.221-16.152-30.967-14.814c-17.051,0.908-21.094,3.145-21.992,10.771c-1.348,9.873,11.221,21.094,28.281,25.586
		C1755.869,2895.625,1776.953,2893.379,1780.547,2889.785z M1686.748,2878.125c0-2.246-1.797-4.043-4.492-4.043
		c-2.236,0-4.482,3.145-4.482,7.178c0,3.594,2.246,5.381,4.482,4.033C1684.951,2883.955,1686.748,2880.81,1686.748,2878.125z
		 M1622.109,2830.996c19.756-21.094,39.951-43.535,45.781-49.824l10.332-11.221l-23.789-27.373
		c-13.018-15.273-33.213-37.705-44.434-50.273c-11.68-12.119-29.629-32.764-40.391-45.781
		c-10.781-12.568-22.891-24.238-26.484-26.035c-4.492-1.797-13.027,4.492-26.484,18.857c-10.771,11.67-30.068,32.764-43.535,46.67
		c-13.457,13.926-24.238,26.934-24.238,28.73s14.805,19.746,32.764,39.941c41.748,46.68,40.85,46.23,72.705,83.037
		c14.824,17.061,28.281,31.416,29.629,31.416C1585.761,2869.59,1602.812,2852.09,1622.109,2830.996z M1640.967,2857.47
		c11.221-2.686,22.441-12.568,60.596-54.756c23.779-26.484,30.068-36.348,22.441-36.348c-13.477,0-37.705,14.805-54.766,33.203
		c-11.221,12.578-28.271,30.527-37.246,40.4c-18.398,19.746-21.543,27.822-8.984,22.881
		C1627.051,2861.054,1635.136,2858.369,1640.967,2857.47z M1715.918,2824.707c1.348-2.246,6.738-4.492,12.119-4.492
		c11.221,0,79.893-68.223,71.357-70.908c-13.008-4.482-41.289,9.873-55.645,27.822c-7.637,9.873-19.746,24.238-26.484,32.314
		c-7.178,7.627-12.568,15.264-12.568,17.061C1704.697,2830.996,1712.773,2829.648,1715.918,2824.707z M1719.511,2759.179
		c15.254-3.594,15.254-9.434-0.449-26.484c-6.738-7.178-25.137-28.73-41.289-47.129s-36.807-42.188-46.68-52.51
		c-9.434-10.322-20.195-23.34-23.789-28.271c-3.594-4.941-9.424-8.984-13.467-8.984c-6.279,0-36.357,8.535-41.299,12.129
		c-1.787,1.348,18.418,28.721,32.324,43.086c19.297,20.195,55.205,59.688,78.994,87.52c19.307,22.441,26.475,27.832,33.662,25.586
		C1702.9,2762.773,1712.324,2760.527,1719.511,2759.179z M1769.785,2743.926c1.338-2.246,7.627-4.492,13.457-4.492
		c5.84,0,12.119-2.246,13.467-4.492c2.246-4.043-26.924-41.289-58.35-74.502c-18.848-19.756-49.814-54.756-60.586-68.223
		c-12.568-15.713-31.426-18.857-46.68-7.627c-8.086,5.83-6.289,8.975,31.416,52.061c54.756,62.393,55.205,62.832,77.197,88.867
		C1759.453,2748.847,1764.844,2751.992,1769.785,2743.926z"/>
	<path d="M26.089,3304.052c0-6.733,4.487-8.076,26.929-8.076h26.929l0.449-14.365c0-8.076,1.348-19.746,2.695-26.03
		c3.14-18.403,2.69-255.835-0.898-282.31c-2.695-21.553-2.246-23.789,4.487-21.104c4.038,1.348,8.979,2.695,10.771,2.695
		c1.797,0,7.183,3.594,12.119,8.535c8.979,8.076,8.979,12.559,7.183,137.788c-0.898,79.888-3.594,130.61-6.284,132.402
		c-3.14,1.797-2.69,5.835,0.449,12.119c2.69,4.937,4.937,16.157,4.937,25.132c0,8.53,1.797,16.606,4.038,17.954
		c2.246,1.348,37.7,2.695,78.545,3.145c59.248,0.449,76.299,1.792,81.24,7.178c3.589,3.594,6.729,8.53,6.729,10.771
		c0,5.835-62.832,4.492-70.015-1.348c-3.14-2.241-27.378-2.69-53.862-1.792C34.614,3312.583,26.089,3312.134,26.089,3304.052z"/>
	<path d="M1972.656,3217.881c-6.738-4.937-8.086-11.67-7.188-29.175c1.348-21.094-1.348-29.175-8.535-30.073
		c-20.645-2.69-26.484-22.441-6.27-21.992h12.109l2.246-57.002c1.797-49.814,3.145-57.9,10.781-63.281
		c14.355-10.771,61.484,4.033,69.102,21.543c6.289,13.916,0.449,17.954-11.211,7.183c-11.68-11.221-24.688-14.814-32.773-9.429
		c-6.719,4.043-13.008,58.799-9.863,86.626c1.348,11.221,3.145,12.119,21.543,12.119c21.543,0,42.188,10.322,42.188,21.094
		c0,5.835-4.492,6.284-23.789,4.038c-37.695-4.937-39.941-2.69-36.348,33.662c2.695,28.276,2.227,30.972-5.391,30.972
		C1984.316,3224.165,1977.129,3221.02,1972.656,3217.881z"/>
	<path d="M548.97,3162.676c-16.606-3.594-33.662-11.221-33.662-15.264c0-2.241-2.241-4.038-4.487-4.038
		c-7.183,0-24.683-18.853-33.213-35.005c-13.462-26.484-8.081-54.312,15.708-76.753c13.916-13.462,16.162-13.911,53.413-13.911
		c42.637,0,68.223,7.627,76.299,21.992c10.322,19.746,0,25.132-16.157,8.076c-5.386-5.386-20.195-13.018-33.213-16.157
		c-26.479-6.733-38.149-3.14-59.248,18.853c-12.564,13.462-22.886,39.946-18.848,50.269c3.14,7.183,48.472,12.563,77.647,8.525
		c45.781-5.835,58.799,8.979,30.967,35.01C583.53,3163.574,571.411,3167.612,548.97,3162.676z M575.454,3140.683
		c4.038-3.594,6.279-8.979,4.937-11.221c-3.145-4.941-60.591-5.386-60.591-0.449c0,7.178,7.178,13.462,17.949,15.708
		C559.741,3148.76,568.721,3147.861,575.454,3140.683z"/>
	<path d="M1316.909,3162.676c-12.114-1.797-45.776-21.992-59.238-35.01c-9.878-9.873-19.751-33.662-19.751-48.472
		c0-18.403,18.853-48.477,35.01-56.108c16.606-7.627,76.748-6.729,96.494,1.348c17.505,7.183,29.175,22.891,22.441,29.624
		c-2.69,2.695-9.424-0.449-17.5-7.183c-7.183-5.83-23.34-13.462-36.357-16.157c-22.891-5.386-23.789-5.386-43.535,9.878
		c-21.094,16.157-24.238,20.195-29.624,42.188c-5.386,22.441,3.145,26.479,60.146,26.929c69.116,0.898,66.87,0.449,62.837,12.119
		c-5.391,17.505-41.748,46.23-54.761,43.535C1331.274,3164.917,1324.097,3163.574,1316.909,3162.676z M1341.597,3143.374
		c4.487-2.69,8.53-7.632,8.53-11.221c0-5.386-6.733-6.733-30.972-6.733c-33.208,0-42.637,4.492-26.03,12.568
		C1315.117,3148.76,1328.584,3150.107,1341.597,3143.374z"/>
	<path d="M1493.75,3163.125c-3.594-1.348-10.771-4.043-15.703-6.284c-19.756-8.081-24.688-8.53-24.688-2.246
		c0,8.081-20.195,9.429-25.137,1.797c-1.797-3.14-3.145-35.908-3.145-73.159c0-63.74,0.449-67.773,8.535-66.426
		c17.051,3.135,19.297,9.424,17.949,51.611c-1.348,47.578,2.246,62.837,17.949,70.02c13.916,6.284,42.188,6.733,42.188,0.449
		c0-2.246,2.695-4.487,5.84-4.487c7.188,0,18.398,17.954,13.457,22.441C1526.074,3161.777,1501.836,3165.815,1493.75,3163.125z"/>
	<path d="M2335.293,3162.676c-4.922-0.898-13.457-4.043-18.848-6.733c-8.066-4.038-13.008-3.589-21.992,0.898
		c-8.086,4.487-13.457,4.937-18.398,1.792c-5.84-3.589-7.188-15.259-7.188-73.604c0-65.537,0.449-69.57,8.535-68.223
		c17.051,3.135,19.297,9.424,17.5,47.124c-1.348,48.027,3.145,66.431,18.848,74.058c14.375,6.733,35.469,7.183,39.512,0.898
		c1.328-2.246,5.371-4.487,8.066-4.487c7.188,0,18.398,17.954,13.477,22.441C2369.863,3161.777,2346.074,3165.366,2335.293,3162.676
		z"/>
	<path d="M2442.129,3162.226c-19.316-4.043-62.852-35.908-68.672-50.269c-4.941-12.568-6.289-22.441-5.391-44.434
		c0.898-11.67,5.391-19.751,18.848-32.769l18.398-17.051h42.188c23.34,0,43.535,1.787,44.883,4.482s6.289,4.492,10.781,4.492
		s10.313,4.937,13.008,11.221c10.332,22.441,3.594,26.929-13.906,9.424c-5.84-5.386-20.645-13.013-33.223-15.708
		c-19.297-4.937-25.117-4.487-35.898,0.898c-18.398,9.873-35.449,30.972-38.594,48.472c-4.941,26.484-0.898,28.726,56.094,27.827
		c27.832-0.444,54.316,0.449,58.809,1.348c12.109,3.589,8.965,13.916-8.984,33.213
		C2482.519,3162.226,2467.265,3167.163,2442.129,3162.226z M2471.289,3142.475c12.578-12.563,5.84-17.056-24.238-17.056
		c-25.137,0-29.16,0.898-27.813,7.632C2421.484,3145.62,2460.976,3152.802,2471.289,3142.475z"/>
	<path d="M912.519,3154.145c-9.873-3.14-21.543-7.627-25.581-8.975c-9.424-3.14-9.878-7.183-2.69-14.36
		c5.83-5.84,21.538-7.183,21.538-1.797c0,1.797,5.835,7.178,13.467,11.221c23.34,13.911,62.837,0,62.837-21.543
		c0-14.365-8.979-20.2-30.073-20.2c-10.771,0-22.891-1.792-27.378-4.038c-4.038-2.246-16.606-8.081-27.827-13.467
		c-11.665-5.835-23.784-15.708-28.276-23.789c-8.081-13.911-8.081-14.36,0.449-25.581c13.018-17.505,35.459-23.335,66.875-17.505
		c14.365,2.246,29.624,6.279,33.662,8.525c5.386,2.695,8.979,1.797,11.67-3.145c4.937-8.965,26.479-4.033,30.073,7.637
		c3.589,10.771-1.348,77.646-7.183,98.291c-2.241,8.53-9.429,19.751-16.157,24.238
		C972.666,3160.879,936.308,3163.125,912.519,3154.145z M983.432,3081.885c6.289-4.038,3.145-31.416-4.487-38.149
		c-20.195-16.606-63.281-23.345-74.956-11.221c-13.462,13.462-16.152,24.238-7.622,31.865
		c18.398,16.606,42.637,25.137,63.281,22.441C970.869,3085.478,981.191,3083.232,983.432,3081.885z"/>
	<path d="M1107.759,3156.841c-8.525-1.797-19.297-4.937-23.34-6.733c-4.932-1.797-8.076-1.348-8.076,1.797
		c0,7.178-11.67,5.835-19.751-2.246c-6.279-5.835-6.733-17.056-4.487-77.197c1.348-38.599,2.246-76.299,2.246-83.926
		c0-7.188,0-24.688,0.449-38.154c0-13.467,0-28.73,0-33.662c0-4.941-0.898-20.645-2.695-34.561
		c-2.69-25.586-2.69-26.035,8.53-26.035c11.665,0,27.827,18.408,22.886,26.484c-1.343,2.246-3.589,33.213-4.487,69.111
		l-1.792,65.088l36.807-0.449c38.594-0.449,48.018,3.135,76.299,29.175c4.937,4.487,10.322,8.076,11.665,8.076
		c4.492,0,17.954,30.522,17.954,40.396c0,11.67-8.975,31.865-18.398,41.294C1177.329,3159.531,1149.502,3165.815,1107.759,3156.841z
		 M1136.933,3138.886c1.348-2.246,6.284-4.487,10.776-4.487c13.462,0,30.063-10.322,37.695-23.789
		c14.365-24.683,7.632-48.472-18.398-65.527c-13.467-8.979-21.997-10.771-45.337-10.327c-37.251,0.449-42.183,5.391-44.429,45.781
		c-2.246,40.845,0.898,53.862,13.911,53.862c5.386,0,13.018,2.241,16.606,4.487
		C1116.738,3144.721,1133.345,3144.721,1136.933,3138.886z"/>
	<path d="M2124.355,3155.493c-4.941-2.69-9.883-6.284-11.23-7.632c-1.348-1.343-7.168-4.937-13.457-8.076
		c-17.5-8.975-32.324-34.561-35-59.697c-4.043-40.84,19.746-65.977,66.426-70.459c25.117-2.246,74.492,13.457,86.172,27.373
		c4.492,5.386,9.863,12.119,12.559,15.264c6.738,8.076,9.883,58.345,4.043,69.116c-7.637,14.81-18.848,26.929-30.977,32.764
		C2188.086,3161.777,2136.015,3162.676,2124.355,3155.493z M2182.695,3139.336c18.398-15.259,24.238-24.238,27.383-43.535
		c4.492-31.421-4.043-51.167-28.281-63.735c-12.109-6.733-53.398-7.183-57.441-0.898c-1.348,2.695-6.289,4.487-10.781,4.487
		c-8.965,0-22.891,26.035-22.891,43.54c0,12.114,13.027,46.226,17.969,46.226c1.328,0,7.168,4.043,12.559,9.429
		c5.84,4.937,14.355,9.873,19.746,10.771c4.941,1.343,10.332,3.14,11.68,4.487
		C2156.211,3153.696,2172.383,3147.861,2182.695,3139.336z"/>
	<path d="M1886.474,2868.242c-21.543-13.018-33.662-33.652-33.662-57.441c0-19.756,14.805-44.434,26.484-44.434
		c2.695,0,4.932-1.797,4.932-4.492s13.916-4.492,33.213-4.492h33.672l-0.898,14.805c0,7.637,1.348,17.52,3.145,21.543
		c2.676,6.289,0,7.637-15.273,9.434c-19.746,1.797-28.73-2.695-13.457-6.738c6.719-1.797,8.965-6.279,8.965-16.152
		c0-13.467-0.898-13.906-19.297-13.906c-14.805,0-21.543,2.686-28.721,10.762c-11.221,13.018-16.611,34.121-12.568,51.621
		c7.188,32.764,47.578,48.916,63.281,25.137c9.434-14.375,14.824-14.375,11.68,0.439
		C1944.824,2872.734,1907.578,2880.81,1886.474,2868.242z"/>
	<path d="M2090.683,2869.59c0-1.348-17.5-1.348-39.043-0.898c-32.324,1.348-38.594,0.449-33.652-4.043
		c3.574-4.033,5.371-21.094,5.371-51.602c0-48.926-3.574-56.563-22.891-46.68c-7.617,4.033-8.516,9.863-8.516,45.781
		c0,31.855,1.797,43.076,7.617,49.365c6.738,7.627,6.289,8.076-13.906,8.076c-21.094,0-21.094,0-14.355-9.873
		c9.863-13.916,9.863-80.791,0.449-90.664c-3.594-3.584-6.738-7.627-6.738-8.975s20.195-2.695,44.883-2.695
		c26.934,0,44.883,1.797,44.883,4.492s-3.145,4.492-7.188,4.492c-5.371,0-6.27,4.482-5.371,21.543
		c1.328,17.5,2.676,21.094,11.211,22.432c5.84,0.908,12.129-2.236,16.152-8.076c3.594-5.391,7.637-8.076,8.984-5.84
		c3.594,6.738,2.695,32.773-1.797,32.773c-2.246,0-4.043-1.797-4.043-4.492c0-2.246-7.168-4.492-16.152-4.492h-15.703l1.348,21.543
		c1.328,20.195,1.777,21.094,14.355,20.195c7.617-0.439,15.254-4.023,17.051-8.066c4.492-7.188,21.543-9.434,21.543-2.695
		c0,3.135,22.891,13.906,29.629,13.906c0.898,0,1.797-21.992,1.797-49.365c0-30.068-1.797-49.365-4.492-49.365
		c-2.246,0-4.492-1.797-4.492-4.492c0-2.246,8.984-4.492,20.195-4.492c11.23,0,20.195,2.246,20.195,4.492
		c0,2.695-2.676,4.492-6.27,4.492c-5.391,0-6.738,8.525-6.289,44.883c0.898,53.848,2.246,57.441,21.094,49.365
		c7.637-3.145,13.906-7.178,13.906-9.424s2.246-4.043,4.492-4.043c2.695,0,4.492,5.391,4.492,12.568v12.119h-49.375
		C2112.676,2871.836,2090.683,2870.937,2090.683,2869.59z"/>
	<path d="M2206.484,2867.793c-11.66-8.525-17.051-26.484-11.211-36.797c4.941-8.984,26.016-28.73,30.508-28.73
		c4.941,0,12.578-22.441,10.332-29.18c-4.043-10.762-31.875-8.965-35.469,2.246c-3.125,10.332-11.211,12.129-11.211,2.695
		c0-16.152,5.391-20.645,25.586-20.645c23.789,0,37.246,11.67,37.246,31.865c0,13.018-4.941,19.307-29.609,38.154
		c-16.621,12.568-19.316,24.238-8.535,33.213c5.84,4.932,8.965,4.932,17.949,0c6.289-3.145,11.23-7.627,11.23-9.873
		c0-1.797,2.227-3.594,4.473-3.594c7.188,0,5.391,8.076-4.473,17.949C2232.969,2875.429,2217.715,2876.328,2206.484,2867.793z"/>
	<path d="M2622.558,2868.242c-30.527-18.398-42.207-54.307-27.383-83.477c9.863-18.398,26.035-27.383,50.723-27.383
		c34.551,0,55.195,22.891,55.195,61.035c0,18.857-1.797,22.891-17.949,38.604c-14.805,13.467-21.543,17.061-35.02,16.611
		C2639.16,2873.633,2627.48,2870.937,2622.558,2868.242z M2661.152,2859.267c11.211-8.525,21.992-32.764,21.992-48.926
		c0-8.076-4.043-21.533-8.984-29.619c-8.516-13.457-10.762-14.805-27.832-13.457c-16.152,1.338-20.195,3.584-27.813,16.602
		c-5.84,10.322-8.984,22.891-8.535,38.145c0.449,18.398,2.246,24.238,12.129,32.773
		C2635.566,2865.996,2649.922,2867.793,2661.152,2859.267z"/>
	<path d="M2460.527,2861.054c8.066-8.965,8.066-12.559,3.594-50.713c-2.695-22.881-7.188-42.178-9.883-43.076
		c-10.313-3.594-3.145-9.883,11.23-9.883c8.516,0,15.703,2.246,15.703,4.492c0,2.695-2.246,4.492-4.492,4.492
		c-3.145,0-4.492,11.66-4.043,29.16c0.898,27.832,6.289,38.154,11.23,21.543c5.371-18.398,26.035-59.688,29.609-59.688
		c1.797,0,6.289,6.738,9.434,14.805c17.5,40.859,26.934,57.461,30.078,51.621c4.043-8.525,0-57.441-4.941-57.441
		c-2.246,0-4.043-1.797-4.043-4.492c0-2.246,8.086-4.492,17.949-4.492c17.949,0,21.543,3.145,13.926,11.67
		c-2.246,2.236-4.941,22.891-5.84,46.23c-1.348,31.416-0.449,42.188,4.043,43.984c9.863,4.033,6.27,10.322-5.391,10.322
		c-9.883,0-13.906-5.391-29.629-38.145c-10.313-21.104-20.195-38.154-21.992-38.154c-3.594,0-20.645,33.213-29.609,58.35
		c-4.492,13.008-7.637,16.152-20.195,17.051C2452.441,2870.488,2452.441,2870.488,2460.527,2861.054z"/>
	<path d="M2710.078,2865.996c0-2.695,2.246-6.279,4.473-7.627c2.695-1.348,4.492-22.441,4.492-47.568
		c0-26.484-1.797-44.434-4.492-44.434c-2.227,0-4.473-1.797-4.473-4.492c0-2.246,8.066-4.492,17.949-4.492
		c9.863,0,17.949,2.246,17.949,4.492c0,2.695-1.797,4.492-4.492,4.492c-5.82,0-5.82,34.551-0.449,38.145
		c4.492,2.246,18.398-9.424,18.398-15.703c0-1.807,5.84-9.883,13.027-17.52c12.559-13.457,36.348-19.736,36.348-9.414
		c0,2.695-2.246,4.492-4.922,4.492c-5.84,0-12.578,7.168-23.34,23.34c-9.434,14.805-9.883,24.678-0.918,33.203
		c8.535,8.975,8.535,30.527,0,37.705C2770.664,2867.793,2710.078,2872.734,2710.078,2865.996z M2764.375,2850.742
		c9.434-17.959-7.617-42.188-22.891-32.773c-4.492,2.695-6.289,39.053-1.797,43.545
		C2744.179,2866.445,2759.883,2859.717,2764.375,2850.742z"/>
	<path d="M2315.996,2856.123c-6.719-10.771-7.188-23.34-0.898-29.619c3.145-3.145,0.898-8.086-6.719-15.254
		c-13.027-12.129-14.375-29.18-4.043-43.984c4.941-7.188,11.211-9.883,24.688-9.883c9.414,0,17.5,1.797,17.5,4.043
		c0,8.076,15.254,9.863,20.645,2.695c6.289-8.086,42.637-8.086,45.332,0.449c0.898,3.135-3.594,4.033-11.68,2.695
		c-10.313-1.348-14.805,0.439-20.645,9.863c-7.168,11.23-7.168,12.119,5.391,31.426c6.738,11.211,14.805,20.195,17.949,20.645
		c2.695,0,6.738,2.246,8.086,4.482c1.797,2.695-4.492,4.492-15.703,4.492c-15.273,0-18.398-1.348-16.172-6.729
		c2.695-7.637-5.82-29.18-11.66-29.18c-7.637,0-28.281,23.789-22.441,26.035c5.84,1.797,7.188,17.949,2.695,29.629
		C2344.277,2868.242,2322.734,2866.894,2315.996,2856.123z M2341.133,2846.25c-0.898-5.84-4.492-10.322-8.086-10.322
		c-3.574,0-7.168,4.482-8.066,10.322c-1.348,7.637,0.898,9.873,8.066,9.873C2340.234,2856.123,2342.48,2853.886,2341.133,2846.25z
		 M2342.031,2801.816c17.051-17.949,17.051-23.789-0.449-31.416c-13.008-5.381-14.805-4.932-22.891,4.932
		c-8.984,11.23-7.637,30.527,2.246,36.816C2328.125,2816.631,2326.777,2817.529,2342.031,2801.816z"/>
</g>
</svg>
