<?xml version="1.0" encoding="utf-8"?>
<!-- Generator: Adobe Illustrator 16.0.0, SVG Export Plug-In . SVG Version: 6.00 Build 0)  -->
<!DOCTYPE svg PUBLIC "-//W3C//DTD SVG 1.1//EN" "http://www.w3.org/Graphics/SVG/1.1/DTD/svg11.dtd">
<svg version="1.1" id="Layer_1" xmlns="http://www.w3.org/2000/svg" xmlns:xlink="http://www.w3.org/1999/xlink" x="0px" y="0px"
	 width="374.29px" height="230px" viewBox="12.855 85 374.29 230" enable-background="new 12.855 85 374.29 230"
	 xml:space="preserve">
<g transform="translate(0.000000,400.000000) scale(0.100000,-0.100000)">
	<path d="M1336.787,3147.031c-138.057-17.954-213.535-63.838-260.215-158.584l-27.813-56.86v-319.165
		c0-372.031,2.983-391.978,73.501-464.795c72.505-73.804,133.086-92.754,308.877-92.754c215.532-0.996,300.933,32.91,362.52,144.624
		l29.795,53.862l2.979,314.18c1.992,208.457,0,331.138-7.944,366.045c-21.851,101.733-93.364,171.557-203.599,201.479
		C1560.254,3149.023,1408.301,3156.01,1336.787,3147.031z M1480.801,2906.66c18.877-18.96,19.858-32.92,19.858-302.217
		c0-310.19-2.969-326.152-57.598-326.152c-67.534,1.001-71.514,18.955-71.514,324.15c0,261.328,3.979,296.235,33.774,316.187
		C1425.181,2932.593,1460.937,2926.601,1480.801,2906.66z"/>
	<path d="M2190.937,3147.031c-146.006-18.95-233.403-76.802-269.155-181.528c-16.89-47.876-18.877-85.781-18.877-363.062
		c0-340.107,2.979-364.048,57.607-435.864c65.542-85.771,184.731-122.676,369.468-114.697c60.586,2.993,132.1,12.959,160.908,20.942
		c70.508,21.943,131.104,70.82,160.889,130.664c25.82,48.867,25.82,51.865,30.791,344.102c5.957,382.007,0,428.892-67.529,503.686
		c-36.758,40.903-68.535,59.844-129.121,78.804C2423.359,3148.032,2272.373,3157.001,2190.937,3147.031z M2335.937,2907.651
		l23.838-18.945v-284.263c0-265.313-0.986-285.259-18.867-305.2c-21.846-24.941-67.549-27.935-89.385-5.991
		c-23.838,24.937-26.816,64.829-23.838,337.119c2.979,257.329,2.979,258.335,26.816,277.28
		C2283.31,2931.587,2307.138,2931.587,2335.937,2907.651z"/>
	<path d="M138.999,3114.121c0-6.987-1.001-47.876,0-91.762c0-60.85,3.97-82.788,17.876-97.749
		c15.889-17.949,17.871-47.871,20.854-309.199c2.983-270.293,1.987-292.236-16.88-330.137
		c-21.851-47.881-23.833-56.855-21.851-149.604l0.986-68.833l320.801,3.994c307.891,2.993,321.802,3.989,369.478,25.933
		c26.812,12.969,59.585,32.915,72.495,44.883c80.454,74.805,101.313,268.311,42.71,384.995
		c-22.847,43.887-49.658,65.835-108.257,86.777c-19.868,6.982-31.787,12.964-25.825,13.97
		c25.825,0.991,101.304,62.827,122.168,100.732c47.671,84.78,34.756,246.357-24.834,318.174
		c-14.893,16.958-44.688,40.898-67.539,52.866c-39.731,20.942-52.637,21.938-370.464,24.932
		C204.541,3126.083,139.985,3124.091,138.999,3114.121z M585.928,2905.654c38.735-13.96,50.654-34.907,50.654-88.76
		c0-22.939-3.97-49.878-9.922-59.844c-9.937-19.956-58.604-39.897-95.356-39.897c-23.828,0-23.828,1.992-23.828,99.741
		c0,97.739,0,99.736,23.828,99.736C543.227,2916.631,568.057,2911.645,585.928,2905.654z M589.907,2512.68
		c70.518-13.965,72.5-187.505,1.982-214.443c-14.897-5.981-39.727-9.98-55.615-9.98h-28.799v112.715
		c0,62.837,2.969,116.699,5.957,119.692c3.97,3.989,17.871,3.989,29.795,1.992C556.133,2519.668,576.992,2515.674,589.907,2512.68z"
		/>
	<path d="M2761.035,3114.121c-1.992-6.987-2.998-112.71-0.996-234.399l2.969-222.417h113.223h114.229v108.716
		c0,112.715,8.945,140.64,45.693,140.64c12.91,0,13.896-42.891,11.904-308.203c-2.969-277.28-4.971-310.2-19.863-327.148
		c-13.896-15.957-17.881-37.9-17.881-110.713v-91.763h198.652h198.633v92.759c0,65.835-3.984,98.75-14.893,112.71
		c-20.859,27.925-21.865,632.358-0.986,632.358c32.764,0,45.674-40.894,45.674-146.631v-102.725h114.219h114.229v234.39v234.389
		h-450.928C2862.334,3126.083,2763.008,3123.095,2761.035,3114.121z"/>
	<path d="M139.985,1814.492c0-53.857,3.975-94.746,9.937-94.746c24.824,0,30.791-82.783,27.808-360.068
		c-2.983-256.338-4.966-288.252-19.868-305.205c-14.893-15.957-17.876-37.9-17.876-111.719V850l320.801,3.994
		c300.937,2.979,322.793,3.984,365.493,23.926c61.582,28.936,112.236,82.803,132.104,139.648
		c17.881,54.854,20.85,188.506,4.966,246.357c-14.902,55.859-72.515,115.703-124.146,128.672l-42.72,11.973l36.748,16.943
		c92.373,41.895,139.048,135.664,128.13,256.338c-7.944,78.789-37.739,143.633-82.441,177.529
		c-63.564,48.877-101.299,53.877-433.022,53.877H139.985V1814.492z M578.979,1689.814c44.692-12.959,57.603-33.906,57.603-92.744
		c0-60.859-22.842-87.773-82.432-93.77l-46.675-5.977v101.729C507.476,1711.767,506.479,1709.765,578.979,1689.814z
		 M608.774,1289.873c23.838-12.988,40.723-73.828,34.761-126.689c-6.953-59.844-40.718-91.758-97.334-91.758h-38.726v119.697
		v119.678l42.705-5.967C573.022,1300.83,599.834,1293.857,608.774,1289.873z"/>
	<path d="M1172.91,1899.277c0-18.955-137.051-755.049-148.975-796.933c-5.957-21.934-14.907-42.891-19.863-45.889
		c-5.962-2.979-9.932-50.859-9.932-105.703v-98.75h178.769h178.779v94.746c0,54.863-3.979,94.766-9.937,94.766
		c-16.89,0-38.735,44.883-32.773,67.822c4.966,20.947,10.923,21.934,88.389,21.934h83.433v-29.912
		c0-16.963-8.94-38.916-19.863-49.893c-16.885-16.943-19.868-32.891-19.868-109.707v-89.756h203.608h203.604v89.756
		c0,74.814-2.979,95.752-19.858,117.695c-13.911,19.951-41.719,138.652-101.313,438.857l-82.432,410.947h-235.391
		C1251.372,1909.258,1172.91,1906.25,1172.91,1899.277z M1416.24,1501.308c13.911-77.803,24.829-147.617,24.829-155.586
		c0-10.977-12.905-14.971-55.615-14.971c-54.614,0-55.62,0-49.653,27.92c1.978,14.98,14.897,86.787,26.812,158.604
		c11.919,72.803,23.833,130.654,25.83,128.652C1390.43,1644.941,1402.334,1579.111,1416.24,1501.308z"/>
	<path d="M1917.807,1817.49c0.986-65.83,4.966-98.74,14.897-111.709c21.851-28.926,21.851-621.387,0-650.312
		c-9.932-12.959-13.911-45.889-14.897-110.732v-92.734h198.647h198.633v94.746c0,51.875-3.975,94.766-7.949,94.766
		c-18.867,0-31.777,55.83-31.777,141.621v90.762l36.758-5.967c71.504-11.982,76.455-24.951,82.422-219.433
		c2.969-94.756,8.955-177.549,13.906-184.522c4.971-8.984,53.633-11.973,180.762-11.973h172.822v94.746
		c0,51.875-3.994,94.766-8.965,94.766c-16.865,0-29.785,55.83-32.764,144.619c-4.971,115.693-18.857,142.617-86.406,175.537
		c-49.658,24.932-51.631,26.924-26.807,32.91c40.713,9.99,92.363,62.852,112.217,113.711c12.92,32.91,17.891,72.822,16.895,131.66
		c0,98.75-23.848,159.59-79.453,208.457c-61.592,54.863-104.287,60.85-438.008,60.85h-300.932V1817.49z M2353.828,1688.828
		c37.725-12.979,50.654-40.898,50.654-107.715c0-68.828-26.826-100.742-85.42-100.742h-43.701v109.707
		c0,108.73,0,109.727,23.838,109.727C2311.113,1699.804,2336.924,1694.804,2353.828,1688.828z"/>
	<path d="M2831.543,1818.476c0-75.791,2.979-93.75,17.881-104.717c15.898-10.977,16.885-38.906,16.885-326.152
		c0-285.264-1.992-316.182-16.885-333.135c-13.916-15.957-17.881-37.9-17.881-110.723v-91.748h163.877h163.887v91.748
		c0,72.822-3.975,94.766-16.904,110.723c-14.883,15.967-18.857,41.885-20.85,145.615c-1.982,83.789,0,122.686,6.963,115.703
		c7.949-8.984,84.434-187.52,165.85-390.977l28.809-72.813h155.947h155.928l2.979,417.92c2.969,380.996,4.971,419.893,20.85,436.865
		c12.9,15.938,16.875,37.891,16.875,110.703v91.768h-168.828h-168.838v-85.781c0-70.83,3.965-89.766,19.854-110.723
		c17.871-22.939,19.863-40.879,19.863-150.596c0-68.818-2.969-122.686-5.957-118.691c-2.988,2.979-45.703,107.715-93.359,233.389
		l-86.406,227.402l-180.771,2.988l-179.766,2.012V1818.476z"/>
	<path d="M3760.176,1884.316c-13.896-12.969-24.824-30.908-24.824-39.902c0-30.918,30.791-73.799,51.641-74.805
		c3.975,0-3.975,10.977-17.871,25.928c-19.854,18.955-23.838,30.938-18.877,51.875c18.877,79.795,119.199,64.824,112.236-16.963
		c-1.992-25.938-8.936-38.887-27.822-47.881c-15.879-7.969-18.867-12.959-8.926-12.959c44.688,0,65.547,82.793,28.799,119.697
		C3827.724,1916.23,3788.994,1914.248,3760.176,1884.316z"/>
	<path d="M3786.015,1837.431c0.977-23.936,2.979-34.902,5.938-24.932c2.002,8.984,7.959,16.953,12.93,16.953
		c4.961,0,13.896-7.969,18.857-16.953c9.932-16.963,9.932-16.963,10.918,0c0,10.977-8.926,20.947-19.863,23.936
		c-10.908,2.998-19.854,11.973-19.854,18.945c0,15.967,25.82,18.955,32.783,4.004c2.959-5.977,3.965-4.98,2.959,1.982
		c-0.977,6.992-11.904,13.965-23.828,15.957C3786.992,1880.322,3785.019,1876.328,3786.015,1837.431z"/>
</g>
</svg>
