<?xml version="1.0" encoding="utf-8"?>
<!-- Generator: Adobe Illustrator 16.0.0, SVG Export Plug-In . SVG Version: 6.00 Build 0)  -->
<!DOCTYPE svg PUBLIC "-//W3C//DTD SVG 1.1//EN" "http://www.w3.org/Graphics/SVG/1.1/DTD/svg11.dtd">
<svg version="1.1" id="Layer_1" xmlns="http://www.w3.org/2000/svg" xmlns:xlink="http://www.w3.org/1999/xlink" x="0px" y="0px"
	 width="283px" height="94px" viewBox="0 0 283 94" enable-background="new 0 0 283 94" xml:space="preserve">
<g transform="translate(0.000000,720.000000) scale(0.100000,-0.100000)">
	<path d="M355.21,6818.242c-2.085-2.529-24.336-40.42-49.722-84.102c-25.386-43.672-49.38-82.285-52.856-85.537
		c-6.953-6.143-6.606-6.494,10.435-6.494c14.951,0,17.036,1.084,15.991,6.494c-1.04,3.252,3.828,15.166,10.083,25.986l11.479,19.854
		l49.033,1.074l48.682,1.084l12.861-22.373c10.088-17.324,11.826-23.096,8.691-27.07c-3.472-4.326,0.352-5.049,23.306-5.049
		c26.426,0,26.772,0,20.166,6.855c-3.828,3.613-28.516,44.033-54.941,90.234c-26.079,45.84-47.988,83.379-48.682,83.379
		C359.038,6822.578,356.953,6820.41,355.21,6818.242z M367.734,6749.306c26.772-46.201,28.511-42.236-18.779-42.236
		c-22.256,0-39.99,1.084-39.292,2.891c2.432,6.133,38.594,69.297,39.639,69.297C349.653,6779.257,357.993,6765.546,367.734,6749.306
		z"/>
	<path d="M663.652,6819.326c-8.691-1.084-14.951-3.613-14.258-5.781c1.392-3.604-62.588-124.512-65.718-124.512
		c-4.175,0.352-69.897,120.186-68.159,124.873c1.392,3.975-2.783,5.049-23.296,4.697c-13.911,0-22.949-1.084-20.864-2.168
		c2.432-0.723,26.777-39.697,53.897-86.26c27.124-46.553,50.073-84.463,51.465-84.463c1.04,0,22.256,36.094,46.943,80.488
		c24.346,44.033,47.642,83.74,51.465,88.428c3.828,4.326,6.611,7.578,5.566,7.217
		C679.995,6821.845,672.349,6820.41,663.652,6819.326z"/>
	<path d="M1280.879,6816.796c3.823-2.891,8.691-6.494,10.435-7.939c2.085-1.445,18.086-18.77,35.815-38.984l31.992-36.445v-41.875
		c0-36.094-0.698-42.227-5.913-45.469c-4.521-2.891,1.045-3.623,21.558-3.623c15.313,0,25.742,1.084,23.652,2.168
		c-3.481,1.084-4.521,13.721-4.521,45.479v44.033l31.289,40.43c17.051,22.021,33.74,41.865,37.217,44.033
		c4.863,2.891,1.738,3.604-14.258,3.975c-16.689,0-19.473-0.732-16.348-5.059c2.783-3.613-1.387-11.914-19.473-36.816
		c-12.515-17.686-23.643-32.842-24.336-33.564c-1.748-2.168-22.256,18.76-43.472,44.033c-14.604,16.963-16.689,21.65-13.218,25.986
		c3.828,4.688,0.356,5.42-26.421,5.42C1276.362,6822.207,1274.629,6821.845,1280.879,6816.796z"/>
	<path d="M1535.771,6818.242c1.738-2.529,4.512-33.936,5.908-69.658c2.783-75.078,5.215-82.656,32.344-96.367
		c14.258-7.217,21.563-8.301,58.076-8.301c36.846,0,43.809,1.084,58.066,8.301c29.902,15.518,32.334,21.65,33.379,96.367
		c0.693,38.623,2.783,66.777,4.873,69.297c2.783,3.613-0.352,4.697-14.609,4.697c-15.645,0-17.725-0.732-13.906-5.42
		c2.783-3.613,4.17-23.818,4.17-68.936c0-71.475-1.387-76.523-25.381-88.789c-17.383-9.385-61.553-9.023-79.629,0.723
		c-22.256,11.543-24.346,19.844-24.346,88.428c0,34.648,1.396,63.154,3.477,67.129c3.477,6.494,2.441,6.865-21.211,6.865
		C1537.51,6822.578,1532.988,6821.494,1535.771,6818.242z"/>
	<path d="M1807.002,6817.88c6.26-7.578,6.26-163.145,0.352-170.723c-3.477-4.326,0.342-5.049,21.211-5.049
		c24.346,0,25.029,0.352,19.824,6.494c-4.531,5.41-5.908,14.082-5.908,41.504v35.02h20.508h20.508l37.91-41.504l37.9-41.514
		l22.607,0.352c14.951,0,20.166,1.084,15.303,2.9c-7.305,3.242-25.732,21.289-57.383,55.938
		c-10.43,11.553-21.904,22.373-25.029,24.18c-9.395,5.059-7.656,9.746,4.521,12.275c5.908,1.445,15.996,7.217,22.598,13.359
		c13.564,12.266,16.006,29.229,6.602,44.023c-11.113,17.334-36.504,24.902-93.887,26.709
		C1807.002,6823.291,1802.832,6822.929,1807.002,6817.88z M1891.855,6808.134c16.689-5.049,34.072-22.012,34.072-33.564
		c0-18.408-37.9-40.059-66.416-37.891l-15.303,1.074l-1.045,37.178l-1.035,36.807h18.428
		C1870.635,6811.738,1884.902,6809.941,1891.855,6808.134z"/>
	<path d="M2414.492,6740.644c-26.416-45.479-51.113-85.908-54.941-90.234l-6.953-8.301h15.996c12.168,0,15.654,1.084,14.258,4.688
		c-1.045,2.881,4.18,15.156,11.123,27.432l12.871,22.373l48.682-1.084l49.033-1.074l11.475-19.854
		c6.26-10.82,11.123-22.734,10.078-25.986c-1.377-5.771,1.738-6.494,25.039-6.494c24.336,0,26.074,0.352,19.473,5.41
		c-4.17,2.891-29.209,43.32-55.635,89.873c-26.426,46.914-49.375,85.186-50.42,85.186S2440.918,6785.751,2414.492,6740.644z
		 M2475.351,6746.054c10.43-18.047,19.814-34.287,20.166-36.094c0.693-1.436-16.689-2.891-38.945-2.891s-40.342,1.084-40.342,2.539
		c0,3.604,36.172,69.648,38.252,69.648C2455.527,6778.896,2464.922,6764.101,2475.351,6746.054z"/>
	<path d="M-4.692,6814.628c5.908-6.133,5.908-162.051,0-168.545c-6.953-7.227,129.014-3.623,151.963,4.326
		c78.237,26.709,101.187,89.873,49.722,137.881c-28.164,26.338-47.637,30.664-134.224,30.664
		C7.134,6818.955-7.822,6817.88-4.692,6814.628z M135.444,6802.724c30.601-10.84,55.293-41.152,55.293-67.5
		c0-29.951-14.263-55.225-37.905-67.861c-23.301-11.904-77.891-18.398-107.798-12.266l-10.781,2.529v75.078v75.43h42.773
		C106.582,6808.134,125.015,6806.328,135.444,6802.724z"/>
	<path d="M753.369,6735.595c0.693-59.199-0.347-84.824-3.13-88.438c-3.477-4.326,0-5.049,20.864-5.049
		c22.949,0,24.688,0.352,19.819,5.771c-4.863,4.697-5.562,17.686-5.562,84.102c0,55.938,1.045,79.404,4.175,82.646
		c3.125,3.252-0.352,4.326-16.348,4.326h-20.864L753.369,6735.595z"/>
	<path d="M889.331,6812.109c2.437-4.336,3.828-35.371,3.828-83.018c0-63.887-0.698-76.514-5.566-81.211
		c-4.868-5.42,0-5.771,53.555-5.771c83.105,0,117.524,8.301,148.135,36.455c20.513,18.77,26.431,30.674,26.431,53.779
		c0,33.203-17.393,56.66-55.645,75.43c-18.428,9.023-21.563,9.385-96.665,10.469
		C886.206,6819.687,885.508,6819.687,889.331,6812.109z M1026.343,6803.085c47.979-18.047,67.808-61.729,47.642-105.4
		c-12.871-27.422-38.257-40.42-87.28-43.672c-16.343-1.084-37.217-1.084-45.903,0.371l-16.348,2.52v75.801v75.43h44.512
		C996.777,6807.773,1017.993,6805.976,1026.343,6803.085z"/>
	<path d="M2064.326,6814.628c5.566-5.771,5.918-162.051,0.352-167.832c-2.783-2.881,0.342-4.336,10.43-5.42
		c13.555-1.084,18.086,1.455,10.781,6.143c-2.08,1.445-3.477,29.229-3.477,71.465c0,58.115,0.693,68.223,4.521,63.887
		c2.773-2.891,21.553-34.648,42.422-70.381c20.518-35.742,39.287-67.129,41.377-69.658c3.135-3.252,13.564,12.266,45.557,69.658
		c22.949,40.42,42.422,73.984,43.467,73.984s1.396-32.48,1.045-72.188l-1.045-72.178h18.428h18.086v88.428v88.418h-19.131h-19.121
		l-36.514-68.574c-20.176-37.529-37.559-68.213-38.945-68.574c-1.396,0-19.131,30.684-39.99,68.574l-37.549,68.223l-22.266,0.352
		C2065.019,6818.955,2061.201,6817.88,2064.326,6814.628z"/>
	<path d="M2626.269,6812.109c5.215-5.781,5.557-15.889,4.863-88.438l-1.045-81.563h12.168c9.043,0,10.781,1.084,7.656,4.326
		c-4.873,5.059-5.908,143.652-1.045,143.652c1.738,0,42.773-34.287,91.455-76.152l87.969-76.523l1.045,85.908
		c0.352,55.938,2.09,87.705,4.531,90.957c3.135,3.604,0.693,4.678-12.52,4.678c-13.574,0-15.645-0.713-12.52-5.049
		c2.783-3.252,3.818-23.818,3.125-65.322l-1.045-60.283l-74.063,65.332l-74.414,65.322h-20.869
		C2621.045,6818.955,2620.351,6818.603,2626.269,6812.109z"/>
</g>
</svg>
