<?xml version="1.0" encoding="utf-8"?>
<!-- Generator: Adobe Illustrator 16.0.0, SVG Export Plug-In . SVG Version: 6.00 Build 0)  -->
<!DOCTYPE svg PUBLIC "-//W3C//DTD SVG 1.1//EN" "http://www.w3.org/Graphics/SVG/1.1/DTD/svg11.dtd">
<svg version="1.1" xmlns="http://www.w3.org/2000/svg" xmlns:xlink="http://www.w3.org/1999/xlink" x="0px" y="0px" width="317px"
	 height="67px" viewBox="0 0 317 67" enable-background="new 0 0 317 67" xml:space="preserve">
<g id="Layer_1">
	<g>
		<g>
			
				<linearGradient id="SVGID_1_" gradientUnits="userSpaceOnUse" x1="-118.8394" y1="-623.4673" x2="-118.8394" y2="-582.9615" gradientTransform="matrix(0.3906 0 0 -0.3906 101.5938 -200.125)">
				<stop  offset="0" style="stop-color:#F04B4C"/>
				<stop  offset="0.5107" style="stop-color:#F07E4C"/>
				<stop  offset="0.6392" style="stop-color:#F0774C"/>
				<stop  offset="0.8296" style="stop-color:#F0634C"/>
				<stop  offset="1" style="stop-color:#F04B4C"/>
			</linearGradient>
			<path fill="url(#SVGID_1_)" d="M59.847,37.799l1.987,0.514c-0.429,1.662-1.169,2.928-2.259,3.799
				c-1.091,0.871-2.416,1.306-3.974,1.306c-1.636,0-2.961-0.316-3.974-0.989c-1.013-0.672-1.792-1.662-2.337-2.928
				c-0.545-1.267-0.779-2.651-0.779-4.115c0-1.583,0.312-2.968,0.896-4.155c0.584-1.188,1.441-2.097,2.571-2.691
				c1.091-0.633,2.337-0.91,3.662-0.91c1.52,0,2.766,0.396,3.818,1.187c1.013,0.792,1.753,1.86,2.143,3.284l-1.948,0.475
				c-0.351-1.108-0.857-1.939-1.519-2.414c-0.663-0.515-1.52-0.752-2.494-0.752c-1.168,0-2.143,0.277-2.921,0.831
				c-0.779,0.554-1.325,1.306-1.636,2.255s-0.468,1.939-0.468,2.928c0,1.307,0.195,2.453,0.545,3.403
				c0.39,0.989,0.935,1.702,1.753,2.177c0.779,0.475,1.636,0.712,2.571,0.712c1.13,0,2.065-0.317,2.844-0.989
				C59.068,40.054,59.575,39.064,59.847,37.799z"/>
			
				<linearGradient id="SVGID_2_" gradientUnits="userSpaceOnUse" x1="-81.8398" y1="-622.8076" x2="-81.8398" y2="-583.604" gradientTransform="matrix(0.3906 0 0 -0.3906 101.5938 -200.125)">
				<stop  offset="0" style="stop-color:#F04B4C"/>
				<stop  offset="0.5107" style="stop-color:#F07E4C"/>
				<stop  offset="0.6392" style="stop-color:#F0774C"/>
				<stop  offset="0.8296" style="stop-color:#F0634C"/>
				<stop  offset="1" style="stop-color:#F04B4C"/>
			</linearGradient>
			<path fill="url(#SVGID_2_)" d="M68.535,43.141v-6.49l-5.805-8.824h2.416l2.96,4.63c0.545,0.871,1.052,1.741,1.52,2.572
				c0.467-0.791,1.013-1.701,1.636-2.69l2.921-4.511h2.337l-5.999,8.824v6.49H68.535z"/>
			
				<linearGradient id="SVGID_3_" gradientUnits="userSpaceOnUse" x1="-45.1392" y1="-622.8076" x2="-45.1392" y2="-583.604" gradientTransform="matrix(0.3906 0 0 -0.3906 101.5938 -200.125)">
				<stop  offset="0" style="stop-color:#F04B4C"/>
				<stop  offset="0.5107" style="stop-color:#F07E4C"/>
				<stop  offset="0.6392" style="stop-color:#F0774C"/>
				<stop  offset="0.8296" style="stop-color:#F0634C"/>
				<stop  offset="1" style="stop-color:#F04B4C"/>
			</linearGradient>
			<path fill="url(#SVGID_3_)" d="M78.274,43.141V27.827h5.648c1.169,0,2.065,0.158,2.766,0.475
				c0.701,0.316,1.247,0.792,1.636,1.424c0.39,0.633,0.584,1.306,0.584,2.018c0,0.673-0.156,1.266-0.506,1.86
				c-0.351,0.593-0.896,1.029-1.597,1.384c0.896,0.277,1.597,0.752,2.104,1.386c0.507,0.673,0.74,1.425,0.74,2.335
				c0,0.711-0.156,1.385-0.428,2.018c-0.312,0.633-0.663,1.107-1.091,1.424c-0.429,0.316-0.974,0.594-1.636,0.752
				s-1.48,0.238-2.416,0.238H78.274z M80.261,34.277h3.272c0.896,0,1.52-0.04,1.909-0.159c0.506-0.158,0.896-0.396,1.129-0.751
				c0.273-0.356,0.39-0.792,0.39-1.346c0-0.514-0.117-0.95-0.351-1.345c-0.233-0.396-0.584-0.633-1.013-0.792
				s-1.208-0.198-2.298-0.198h-3v4.591H80.261z M80.261,41.359H84c0.662,0,1.091-0.039,1.363-0.079
				c0.468-0.079,0.857-0.237,1.169-0.435c0.312-0.198,0.545-0.476,0.779-0.832c0.195-0.355,0.312-0.791,0.312-1.305
				c0-0.555-0.156-1.068-0.429-1.504s-0.701-0.713-1.208-0.871c-0.507-0.158-1.247-0.237-2.221-0.237h-3.467v5.263H80.261z"/>
			
				<linearGradient id="SVGID_4_" gradientUnits="userSpaceOnUse" x1="-9.1367" y1="-622.8076" x2="-9.1367" y2="-583.604" gradientTransform="matrix(0.3906 0 0 -0.3906 101.5938 -200.125)">
				<stop  offset="0" style="stop-color:#F04B4C"/>
				<stop  offset="0.5107" style="stop-color:#F07E4C"/>
				<stop  offset="0.6392" style="stop-color:#F0774C"/>
				<stop  offset="0.8296" style="stop-color:#F0634C"/>
				<stop  offset="1" style="stop-color:#F04B4C"/>
			</linearGradient>
			<path fill="url(#SVGID_4_)" d="M92.415,43.141V27.827h10.908v1.82h-8.921v4.669h8.337v1.78h-8.337v5.224h9.233v1.82H92.415z"/>
			
				<linearGradient id="SVGID_5_" gradientUnits="userSpaceOnUse" x1="29.3579" y1="-622.8076" x2="29.3579" y2="-583.604" gradientTransform="matrix(0.3906 0 0 -0.3906 101.5938 -200.125)">
				<stop  offset="0" style="stop-color:#F04B4C"/>
				<stop  offset="0.5107" style="stop-color:#F07E4C"/>
				<stop  offset="0.6392" style="stop-color:#F0774C"/>
				<stop  offset="0.8296" style="stop-color:#F0634C"/>
				<stop  offset="1" style="stop-color:#F04B4C"/>
			</linearGradient>
			<path fill="url(#SVGID_5_)" d="M106.439,43.141V27.827h6.662c1.325,0,2.376,0.119,3.078,0.396
				c0.701,0.277,1.247,0.751,1.675,1.464c0.428,0.712,0.623,1.464,0.623,2.295c0,1.068-0.351,2.018-1.052,2.73
				c-0.701,0.752-1.753,1.227-3.194,1.425c0.545,0.277,0.935,0.514,1.208,0.752c0.584,0.554,1.13,1.227,1.636,2.018l2.61,4.154
				h-2.493l-1.987-3.165c-0.584-0.91-1.052-1.622-1.441-2.097c-0.39-0.476-0.701-0.832-1.013-1.029s-0.584-0.316-0.896-0.396
				c-0.234-0.04-0.584-0.079-1.091-0.079h-2.337v6.806h-1.987V43.141z M108.426,34.594h4.285c0.896,0,1.636-0.08,2.143-0.277
				c0.506-0.198,0.896-0.515,1.169-0.91c0.272-0.436,0.39-0.871,0.39-1.385c0-0.712-0.273-1.306-0.779-1.78
				c-0.506-0.475-1.325-0.712-2.455-0.712h-4.752V34.594z"/>
			
				<linearGradient id="SVGID_6_" gradientUnits="userSpaceOnUse" x1="66.3584" y1="-622.8076" x2="66.3584" y2="-583.604" gradientTransform="matrix(0.3906 0 0 -0.3906 101.5938 -200.125)">
				<stop  offset="0" style="stop-color:#F04B4C"/>
				<stop  offset="0.5107" style="stop-color:#F07E4C"/>
				<stop  offset="0.6392" style="stop-color:#F0774C"/>
				<stop  offset="0.8296" style="stop-color:#F0634C"/>
				<stop  offset="1" style="stop-color:#F04B4C"/>
			</linearGradient>
			<path fill="url(#SVGID_6_)" d="M121.594,43.141V27.827h2.025l7.908,12.029V27.827h1.909v15.314h-2.026l-7.908-12.03v12.03
				H121.594z"/>
			
				<linearGradient id="SVGID_7_" gradientUnits="userSpaceOnUse" x1="104.7041" y1="-622.8076" x2="104.7041" y2="-583.604" gradientTransform="matrix(0.3906 0 0 -0.3906 101.5938 -200.125)">
				<stop  offset="0" style="stop-color:#F04B4C"/>
				<stop  offset="0.5107" style="stop-color:#F07E4C"/>
				<stop  offset="0.6392" style="stop-color:#F0774C"/>
				<stop  offset="0.8296" style="stop-color:#F0634C"/>
				<stop  offset="1" style="stop-color:#F04B4C"/>
			</linearGradient>
			<path fill="url(#SVGID_7_)" d="M136.865,43.141V27.827h10.908v1.82h-8.882v4.669h8.336v1.78h-8.336v5.224h9.232v1.82H136.865z"/>
			
				<linearGradient id="SVGID_8_" gradientUnits="userSpaceOnUse" x1="138.4624" y1="-622.8076" x2="138.4624" y2="-583.604" gradientTransform="matrix(0.3906 0 0 -0.3906 101.5938 -200.125)">
				<stop  offset="0" style="stop-color:#F04B4C"/>
				<stop  offset="0.5107" style="stop-color:#F07E4C"/>
				<stop  offset="0.6392" style="stop-color:#F0774C"/>
				<stop  offset="0.8296" style="stop-color:#F0634C"/>
				<stop  offset="1" style="stop-color:#F04B4C"/>
			</linearGradient>
			<path fill="url(#SVGID_8_)" d="M154.668,43.141V29.647h-4.948v-1.82h11.921v1.82h-4.987v13.494H154.668z"/>
			
				<linearGradient id="SVGID_9_" gradientUnits="userSpaceOnUse" x1="162.4473" y1="-622.8076" x2="162.4473" y2="-583.604" gradientTransform="matrix(0.3906 0 0 -0.3906 101.5938 -200.125)">
				<stop  offset="0" style="stop-color:#F04B4C"/>
				<stop  offset="0.5107" style="stop-color:#F07E4C"/>
				<stop  offset="0.6392" style="stop-color:#F0774C"/>
				<stop  offset="0.8296" style="stop-color:#F0634C"/>
				<stop  offset="1" style="stop-color:#F04B4C"/>
			</linearGradient>
			<path fill="url(#SVGID_9_)" d="M164.057,43.141V27.827h1.986v15.314H164.057z"/>
			
				<linearGradient id="SVGID_10_" gradientUnits="userSpaceOnUse" x1="189.5234" y1="-623.4673" x2="189.5234" y2="-582.9615" gradientTransform="matrix(0.3906 0 0 -0.3906 101.5938 -200.125)">
				<stop  offset="0" style="stop-color:#F04B4C"/>
				<stop  offset="0.5107" style="stop-color:#F07E4C"/>
				<stop  offset="0.6392" style="stop-color:#F0774C"/>
				<stop  offset="0.8296" style="stop-color:#F0634C"/>
				<stop  offset="1" style="stop-color:#F04B4C"/>
			</linearGradient>
			<path fill="url(#SVGID_10_)" d="M180.302,37.799l1.986,0.514c-0.429,1.662-1.169,2.928-2.26,3.799s-2.415,1.306-3.974,1.306
				c-1.636,0-2.96-0.316-3.973-0.989c-1.014-0.672-1.793-1.662-2.338-2.928c-0.545-1.267-0.779-2.651-0.779-4.115
				c0-1.583,0.312-2.968,0.896-4.155c0.584-1.188,1.441-2.097,2.571-2.691c1.091-0.633,2.337-0.91,3.661-0.91
				c1.52,0,2.767,0.396,3.818,1.187c1.013,0.792,1.753,1.86,2.143,3.284l-1.948,0.475c-0.351-1.108-0.856-1.939-1.52-2.414
				c-0.662-0.515-1.519-0.752-2.493-0.752c-1.168,0-2.143,0.277-2.922,0.831c-0.778,0.554-1.324,1.306-1.636,2.255
				s-0.468,1.939-0.468,2.928c0,1.307,0.195,2.453,0.546,3.403c0.39,0.989,0.935,1.702,1.753,2.177
				c0.779,0.475,1.636,0.712,2.571,0.712c1.13,0,2.064-0.317,2.844-0.989C179.483,40.054,180.028,39.064,180.302,37.799z"/>
			
				<linearGradient id="SVGID_11_" gradientUnits="userSpaceOnUse" x1="259.585" y1="-622.8076" x2="259.585" y2="-583.604" gradientTransform="matrix(0.3906 0 0 -0.3906 101.5938 -200.125)">
				<stop  offset="0" style="stop-color:#F04B4C"/>
				<stop  offset="0.5107" style="stop-color:#F07E4C"/>
				<stop  offset="0.6392" style="stop-color:#F0774C"/>
				<stop  offset="0.8296" style="stop-color:#F0634C"/>
				<stop  offset="1" style="stop-color:#F04B4C"/>
			</linearGradient>
			<path fill="url(#SVGID_11_)" d="M195.807,43.141l3.155-15.314h6.311c1.247,0,2.182,0.119,2.844,0.317
				c0.663,0.198,1.13,0.593,1.52,1.187c0.351,0.593,0.546,1.306,0.546,2.216c0,1.227-0.39,2.295-1.208,3.086
				c-0.818,0.831-2.104,1.346-3.896,1.582c0.545,0.396,0.974,0.832,1.246,1.228c0.624,0.909,1.13,1.819,1.52,2.77l1.169,2.889h-2.26
				l-1.091-2.849c-0.39-1.029-0.818-1.939-1.324-2.691c-0.351-0.514-0.701-0.87-1.052-1.028s-0.936-0.237-1.753-0.237h-2.338
				l-1.402,6.806h-1.986V43.141z M199.546,34.712h2.767c1.285,0,2.143,0,2.531-0.04c0.779-0.078,1.403-0.236,1.87-0.514
				c0.468-0.277,0.857-0.633,1.13-1.108c0.272-0.475,0.39-0.95,0.39-1.464c0-0.435-0.117-0.831-0.312-1.147
				c-0.195-0.316-0.468-0.554-0.779-0.673s-0.857-0.158-1.636-0.158h-4.909L199.546,34.712z"/>
			
				<linearGradient id="SVGID_12_" gradientUnits="userSpaceOnUse" x1="297.9287" y1="-622.8076" x2="297.9287" y2="-583.604" gradientTransform="matrix(0.3906 0 0 -0.3906 101.5938 -200.125)">
				<stop  offset="0" style="stop-color:#F04B4C"/>
				<stop  offset="0.5107" style="stop-color:#F07E4C"/>
				<stop  offset="0.6392" style="stop-color:#F0774C"/>
				<stop  offset="0.8296" style="stop-color:#F0634C"/>
				<stop  offset="1" style="stop-color:#F04B4C"/>
			</linearGradient>
			<path fill="url(#SVGID_12_)" d="M210.96,43.141l3.156-15.314h10.868l-0.351,1.741h-8.843l-0.974,4.749h8.648l-0.351,1.74h-8.648
				l-1.091,5.342h9.466l-0.351,1.742H210.96z"/>
			
				<linearGradient id="SVGID_13_" gradientUnits="userSpaceOnUse" x1="335.7773" y1="-622.8076" x2="335.7773" y2="-583.604" gradientTransform="matrix(0.3906 0 0 -0.3906 101.5938 -200.125)">
				<stop  offset="0" style="stop-color:#F04B4C"/>
				<stop  offset="0.5107" style="stop-color:#F07E4C"/>
				<stop  offset="0.6392" style="stop-color:#F0774C"/>
				<stop  offset="0.8296" style="stop-color:#F0634C"/>
				<stop  offset="1" style="stop-color:#F04B4C"/>
			</linearGradient>
			<path fill="url(#SVGID_13_)" d="M228.842,43.141l2.766-13.573h-4.947l0.351-1.741h11.843l-0.351,1.741h-4.909l-2.766,13.573
				H228.842z"/>
			
				<linearGradient id="SVGID_14_" gradientUnits="userSpaceOnUse" x1="358.4668" y1="-622.8076" x2="358.4668" y2="-583.604" gradientTransform="matrix(0.3906 0 0 -0.3906 101.5938 -200.125)">
				<stop  offset="0" style="stop-color:#F04B4C"/>
				<stop  offset="0.5107" style="stop-color:#F07E4C"/>
				<stop  offset="0.6392" style="stop-color:#F0774C"/>
				<stop  offset="0.8296" style="stop-color:#F0634C"/>
				<stop  offset="1" style="stop-color:#F04B4C"/>
			</linearGradient>
			<path fill="url(#SVGID_14_)" d="M234.919,43.141l8.531-15.314h2.376l2.494,15.314h-1.948l-0.74-4.393h-6.077l-2.415,4.393
				H234.919z M240.412,37.165h4.986l-0.585-3.838c-0.233-1.543-0.351-2.81-0.429-3.799c-0.35,0.871-0.856,1.899-1.519,3.126
				L240.412,37.165z"/>
			
				<linearGradient id="SVGID_15_" gradientUnits="userSpaceOnUse" x1="387.9844" y1="-622.8076" x2="387.9844" y2="-583.604" gradientTransform="matrix(0.3906 0 0 -0.3906 101.5938 -200.125)">
				<stop  offset="0" style="stop-color:#F04B4C"/>
				<stop  offset="0.5107" style="stop-color:#F07E4C"/>
				<stop  offset="0.6392" style="stop-color:#F0774C"/>
				<stop  offset="0.8296" style="stop-color:#F0634C"/>
				<stop  offset="1" style="stop-color:#F04B4C"/>
			</linearGradient>
			<path fill="url(#SVGID_15_)" d="M250.579,43.141l3.156-15.314h1.986l-3.155,15.314H250.579z"/>
			
				<linearGradient id="SVGID_16_" gradientUnits="userSpaceOnUse" x1="408.5801" y1="-622.8076" x2="408.5801" y2="-583.604" gradientTransform="matrix(0.3906 0 0 -0.3906 101.5938 -200.125)">
				<stop  offset="0" style="stop-color:#F04B4C"/>
				<stop  offset="0.5107" style="stop-color:#F07E4C"/>
				<stop  offset="0.6392" style="stop-color:#F0774C"/>
				<stop  offset="0.8296" style="stop-color:#F0634C"/>
				<stop  offset="1" style="stop-color:#F04B4C"/>
			</linearGradient>
			<path fill="url(#SVGID_16_)" d="M256.072,43.141l3.155-15.314h2.026l-2.767,13.572h7.831l-0.352,1.742H256.072z"/>
		</g>
		<line fill="none" stroke="#FCFCFC" stroke-miterlimit="10" x1="193.04" y1="15.046" x2="186.69" y2="64.35"/>
	</g>
</g>
<g id="Layer_2">
	<linearGradient id="SVGID_17_" gradientUnits="userSpaceOnUse" x1="46" y1="0" x2="46" y2="33">
		<stop  offset="0" style="stop-color:#F04B4C"/>
		<stop  offset="0.5107" style="stop-color:#F07E4C"/>
		<stop  offset="0.6392" style="stop-color:#F0774C"/>
		<stop  offset="0.8296" style="stop-color:#F0634C"/>
		<stop  offset="1" style="stop-color:#F04B4C"/>
	</linearGradient>
	<polygon fill="url(#SVGID_17_)" points="58,0 34,0 34,33 	"/>
	
		<linearGradient id="SVGID_18_" gradientUnits="userSpaceOnUse" x1="-176" y1="0" x2="-176" y2="33" gradientTransform="matrix(1 0 0 -1 222 67)">
		<stop  offset="0" style="stop-color:#F04B4C"/>
		<stop  offset="0.5107" style="stop-color:#F07E4C"/>
		<stop  offset="0.6392" style="stop-color:#F0774C"/>
		<stop  offset="0.8296" style="stop-color:#F0634C"/>
		<stop  offset="1" style="stop-color:#F04B4C"/>
	</linearGradient>
	<polygon fill="url(#SVGID_18_)" points="58,67 34,67 34,34 	"/>
	<linearGradient id="SVGID_19_" gradientUnits="userSpaceOnUse" x1="16.5" y1="0" x2="16.5" y2="33">
		<stop  offset="0" style="stop-color:#F04B4C"/>
		<stop  offset="0.5107" style="stop-color:#F07E4C"/>
		<stop  offset="0.6392" style="stop-color:#F0774C"/>
		<stop  offset="0.8296" style="stop-color:#F0634C"/>
		<stop  offset="1" style="stop-color:#F04B4C"/>
	</linearGradient>
	<polygon fill="url(#SVGID_19_)" points="33,0 33,33 0,33 	"/>
	
		<linearGradient id="SVGID_20_" gradientUnits="userSpaceOnUse" x1="299.5" y1="33.0005" x2="299.5" y2="66.0005" gradientTransform="matrix(2.244837e-011 -1 1 2.244837e-011 -33 350)">
		<stop  offset="0" style="stop-color:#F04B4C"/>
		<stop  offset="0.5107" style="stop-color:#F07E4C"/>
		<stop  offset="0.6392" style="stop-color:#F0774C"/>
		<stop  offset="0.8296" style="stop-color:#F0634C"/>
		<stop  offset="1" style="stop-color:#F04B4C"/>
	</linearGradient>
	<polygon fill="url(#SVGID_20_)" points="0,34 33,34 33,67 	"/>
	
		<linearGradient id="SVGID_21_" gradientUnits="userSpaceOnUse" x1="45" y1="0" x2="45" y2="33" gradientTransform="matrix(-1 0 0 1 316 0)">
		<stop  offset="0" style="stop-color:#F04B4C"/>
		<stop  offset="0.5107" style="stop-color:#F07E4C"/>
		<stop  offset="0.6392" style="stop-color:#F0774C"/>
		<stop  offset="0.8296" style="stop-color:#F0634C"/>
		<stop  offset="1" style="stop-color:#F04B4C"/>
	</linearGradient>
	<polygon fill="url(#SVGID_21_)" points="259,0 283,0 283,33 	"/>
	
		<linearGradient id="SVGID_22_" gradientUnits="userSpaceOnUse" x1="-177" y1="0" x2="-177" y2="33" gradientTransform="matrix(-1 0 0 -1 94 67)">
		<stop  offset="0" style="stop-color:#F04B4C"/>
		<stop  offset="0.5107" style="stop-color:#F07E4C"/>
		<stop  offset="0.6392" style="stop-color:#F0774C"/>
		<stop  offset="0.8296" style="stop-color:#F0634C"/>
		<stop  offset="1" style="stop-color:#F04B4C"/>
	</linearGradient>
	<polygon fill="url(#SVGID_22_)" points="259,67 283,67 283,34 	"/>
	
		<linearGradient id="SVGID_23_" gradientUnits="userSpaceOnUse" x1="15.5" y1="0" x2="15.5" y2="33" gradientTransform="matrix(-1 0 0 1 316 0)">
		<stop  offset="0" style="stop-color:#F04B4C"/>
		<stop  offset="0.5107" style="stop-color:#F07E4C"/>
		<stop  offset="0.6392" style="stop-color:#F0774C"/>
		<stop  offset="0.8296" style="stop-color:#F0634C"/>
		<stop  offset="1" style="stop-color:#F04B4C"/>
	</linearGradient>
	<polygon fill="url(#SVGID_23_)" points="284,0 284,33 317,33 	"/>
	
		<linearGradient id="SVGID_24_" gradientUnits="userSpaceOnUse" x1="299.5" y1="32.0005" x2="299.5" y2="65.0005" gradientTransform="matrix(2.244822e-011 -1 -1 -2.244822e-011 349 350)">
		<stop  offset="0" style="stop-color:#F04B4C"/>
		<stop  offset="0.5107" style="stop-color:#F07E4C"/>
		<stop  offset="0.6392" style="stop-color:#F0774C"/>
		<stop  offset="0.8296" style="stop-color:#F0634C"/>
		<stop  offset="1" style="stop-color:#F04B4C"/>
	</linearGradient>
	<polygon fill="url(#SVGID_24_)" points="317,34 284,34 284,67 	"/>
</g>
</svg>
