<?xml version="1.0" standalone="no"?>
<!DOCTYPE svg PUBLIC "-//W3C//DTD SVG 20010904//EN"
 "http://www.w3.org/TR/2001/REC-SVG-20010904/DTD/svg10.dtd">
<svg version="1.0" xmlns="http://www.w3.org/2000/svg"
 width="960.000000pt" height="720.000000pt" viewBox="0 0 960.000000 720.000000"
 preserveAspectRatio="xMidYMid meet">

<g transform="translate(0.000000,720.000000) scale(0.100000,-0.100000)"
fill="#000000" stroke="none">
<path d="M1623 3978 c-6 -7 -70 -112 -143 -233 -73 -121 -142 -228 -152 -237
-20 -17 -19 -18 30 -18 43 0 49 3 46 18 -3 9 11 42 29 72 l33 55 141 3 140 3
37 -62 c29 -48 34 -64 25 -75 -10 -12 1 -14 67 -14 76 0 77 0 58 19 -11 10
-82 122 -158 250 -75 127 -138 231 -140 231 -2 0 -8 -6 -13 -12z m36 -191 c77
-128 82 -117 -54 -117 -64 0 -115 3 -113 8 7 17 111 192 114 192 1 0 25 -38
53 -83z"/>
<path d="M2510 3981 c-25 -3 -43 -10 -41 -16 4 -10 -180 -345 -189 -345 -12 1
-201 333 -196 346 4 11 -8 14 -67 13 -40 0 -66 -3 -60 -6 7 -2 77 -110 155
-239 78 -129 144 -234 148 -234 3 0 64 100 135 223 70 122 137 232 148 245 11
12 19 21 16 20 -2 0 -24 -4 -49 -7z"/>
<path d="M4285 3974 c11 -8 25 -18 30 -22 6 -4 52 -52 103 -108 l92 -101 0
-116 c0 -100 -2 -117 -17 -126 -13 -8 3 -10 62 -10 44 0 74 3 68 6 -10 3 -13
38 -13 126 l0 122 90 112 c49 61 97 116 107 122 14 8 5 10 -41 11 -48 0 -56
-2 -47 -14 8 -10 -4 -33 -56 -102 -36 -49 -68 -91 -70 -93 -5 -6 -64 52 -125
122 -42 47 -48 60 -38 72 11 13 1 15 -76 15 -82 -1 -87 -2 -69 -16z"/>
<path d="M5018 3978 c5 -7 13 -94 17 -193 8 -208 15 -229 93 -267 41 -20 62
-23 167 -23 106 0 126 3 167 23 86 43 93 60 96 267 2 107 8 185 14 192 8 10
-1 13 -42 13 -45 0 -51 -2 -40 -15 8 -10 12 -66 12 -191 0 -198 -4 -212 -73
-246 -50 -26 -177 -25 -229 2 -64 32 -70 55 -70 245 0 96 4 175 10 186 10 18
7 19 -61 19 -56 0 -69 -3 -61 -12z"/>
<path d="M5798 3977 c18 -21 18 -452 1 -473 -10 -12 1 -14 61 -14 70 0 72 1
57 18 -13 15 -17 39 -17 115 l0 97 59 0 59 0 109 -115 109 -115 65 1 c43 0 58
3 44 8 -21 9 -74 59 -165 155 -30 32 -63 62 -72 67 -27 14 -22 27 13 34 17 4
46 20 65 37 39 34 46 81 19 122 -32 48 -105 69 -270 74 -137 4 -149 3 -137
-11z m244 -27 c48 -14 98 -61 98 -93 0 -51 -109 -111 -191 -105 l-44 3 -3 103
-3 102 53 0 c29 0 70 -5 90 -10z"/>
<path d="M7545 3763 c-76 -126 -147 -238 -158 -250 l-20 -23 46 0 c35 0 45 3
41 13 -3 8 12 42 32 76 l37 62 140 -3 141 -3 33 -55 c18 -30 32 -63 29 -72 -4
-16 5 -18 72 -18 70 0 75 1 56 15 -12 8 -84 120 -160 249 -76 130 -142 236
-145 236 -3 0 -68 -102 -144 -227z m175 15 c30 -50 57 -95 58 -100 2 -4 -48
-8 -112 -8 -64 0 -116 3 -116 7 0 10 104 193 110 193 3 -1 30 -42 60 -92z"/>
<path d="M588 3968 c17 -17 17 -449 0 -467 -20 -20 371 -10 437 12 225 74 291
249 143 382 -81 73 -137 85 -386 85 -160 0 -203 -3 -194 -12z m403 -33 c88
-30 159 -114 159 -187 0 -83 -41 -153 -109 -188 -67 -33 -224 -51 -310 -34
l-31 7 0 208 0 209 123 0 c85 0 138 -5 168 -15z"/>
<path d="M2768 3749 c2 -164 -1 -235 -9 -245 -10 -12 0 -14 60 -14 66 0 71 1
57 16 -14 13 -16 49 -16 233 0 155 3 220 12 229 9 9 -1 12 -47 12 l-60 0 3
-231z"/>
<path d="M3159 3961 c7 -12 11 -98 11 -230 0 -177 -2 -212 -16 -225 -14 -15 0
-16 154 -16 239 0 338 23 426 101 59 52 76 85 76 149 0 92 -50 157 -160 209
-53 25 -62 26 -278 29 -222 4 -224 4 -213 -17z m394 -25 c138 -50 195 -171
137 -292 -37 -76 -110 -112 -251 -121 -47 -3 -107 -3 -132 1 l-47 7 0 210 0
209 128 0 c80 -1 141 -6 165 -14z"/>
<path d="M6538 3968 c16 -16 17 -449 1 -465 -8 -8 1 -12 30 -15 39 -3 52 4 31
17 -6 4 -10 81 -10 198 0 161 2 189 13 177 8 -8 62 -96 122 -195 59 -99 113
-186 119 -193 9 -9 39 34 131 193 66 112 122 205 125 205 3 0 4 -90 3 -200
l-3 -200 53 0 52 0 0 245 0 245 -55 0 -55 0 -105 -190 c-58 -104 -108 -189
-112 -190 -4 0 -55 85 -115 190 l-108 189 -64 1 c-51 0 -62 -3 -53 -12z"/>
<path d="M8154 3961 c15 -16 16 -44 14 -245 l-3 -226 35 0 c26 0 31 3 22 12
-14 14 -17 398 -3 398 5 0 123 -95 263 -211 l253 -212 3 238 c1 155 6 243 13
252 9 10 2 13 -36 13 -39 0 -45 -2 -36 -14 8 -9 11 -66 9 -181 l-3 -167 -213
181 -214 181 -60 0 c-59 0 -61 -1 -44 -19z"/>
</g>
</svg>
