<?xml version="1.0" encoding="utf-8"?>
<!-- Generator: Adobe Illustrator 16.0.0, SVG Export Plug-In . SVG Version: 6.00 Build 0)  -->
<!DOCTYPE svg PUBLIC "-//W3C//DTD SVG 1.1//EN" "http://www.w3.org/Graphics/SVG/1.1/DTD/svg11.dtd">
<svg version="1.1" id="Layer_1" xmlns="http://www.w3.org/2000/svg" xmlns:xlink="http://www.w3.org/1999/xlink" x="0px" y="0px"
	 width="283px" height="94px" viewBox="0 0 283 94" enable-background="new 0 0 283 94" xml:space="preserve">
<g transform="translate(0.000000,400.000000) scale(0.100000,-0.100000)">
	<path d="M1172.529,3986.982c-55.566-7.227-85.942-25.693-104.736-63.828l-11.191-22.886v-128.457
		c0-149.736,1.196-157.759,29.58-187.075c29.189-29.697,53.569-37.334,124.316-37.334c86.748-0.4,121.133,13.252,145.918,58.203
		l11.982,21.685l1.201,126.455c0.791,83.901,0,133.281-3.193,147.329c-8.799,40.942-37.578,69.048-81.953,81.089
		C1262.471,3987.783,1201.313,3990.595,1172.529,3986.982z M1230.488,3890.239c7.598-7.637,7.988-13.252,7.988-121.641
		c0-124.839-1.182-131.265-23.169-131.265c-27.183,0.405-28.784,7.622-28.784,130.459c0,105.181,1.602,119.233,13.589,127.261
		C1208.1,3900.673,1222.5,3898.261,1230.488,3890.239z"/>
	<path d="M1516.308,3986.982c-58.77-7.627-93.945-30.913-108.33-73.062c-6.807-19.272-7.598-34.526-7.598-146.128
		c0-136.885,1.201-146.514,23.184-175.425c26.377-34.526,74.346-49.38,148.701-46.162c24.395,1.196,53.164,5.21,64.766,8.428
		c28.379,8.823,52.764,28.511,64.746,52.588c10.4,19.663,10.4,20.874,12.393,138.491c2.402,153.755,0,172.622-27.168,202.729
		c-14.805,16.46-27.588,24.082-51.963,31.714C1609.853,3987.387,1549.082,3990.996,1516.308,3986.982z M1574.658,3890.634
		l9.59-7.622v-114.414c0-106.782-0.391-114.81-7.578-122.837c-8.799-10.044-27.187-11.24-35.986-2.407
		c-9.59,10.034-10.781,26.089-9.59,135.684c1.201,103.564,1.201,103.975,10.791,111.597
		C1553.486,3900.268,1563.076,3900.268,1574.658,3890.634z"/>
	<path d="M690.444,3973.735c0-2.813-0.405-19.268,0-36.929c0-24.497,1.592-33.325,7.192-39.346
		c6.401-7.222,7.197-19.268,8.394-124.448c1.201-108.784,0.796-117.622-6.787-132.876c-8.799-19.258-9.604-22.881-8.799-60.21
		l0.391-27.7l129.116,1.602c123.926,1.211,129.517,1.602,148.711,10.435c10.791,5.225,23.979,13.252,29.18,18.071
		c32.383,30.103,40.776,107.993,17.188,154.951c-9.199,17.666-19.99,26.499-43.574,34.927c-7.988,2.813-12.783,5.225-10.386,5.62
		c10.386,0.405,40.771,25.288,49.165,40.547c19.185,34.121,13.984,99.155-9.995,128.057c-5.996,6.826-17.983,16.46-27.183,21.274
		c-15.991,8.433-21.191,8.833-149.106,10.039C716.821,3978.549,690.835,3977.749,690.444,3973.735z M870.317,3889.833
		c15.601-5.625,20.396-14.053,20.396-35.728c0-9.233-1.606-20.078-4.004-24.087c-3.999-8.032-23.584-16.055-38.374-16.055
		c-9.58,0-9.58,0.801-9.58,40.142c0,39.336,0,40.146,9.58,40.146C853.13,3894.252,863.125,3892.246,870.317,3889.833z
		 M871.919,3731.669c28.384-5.625,29.18-75.469,0.811-86.309c-6.011-2.412-15.991-4.014-22.388-4.014h-11.587v45.361
		c0,25.293,1.187,46.968,2.383,48.169c1.606,1.606,7.197,1.606,11.992,0.806C858.33,3734.482,866.719,3732.871,871.919,3731.669z"/>
	<path d="M1745.761,3973.735c-0.811-2.813-1.211-45.361-0.4-94.341l1.191-89.517h45.576h45.957v43.755
		c0,45.366,3.613,56.606,18.408,56.606c5.195,0,5.586-17.266,4.775-124.048c-1.182-111.606-1.992-124.844-7.988-131.67
		c-5.586-6.426-7.188-15.259-7.188-44.561v-36.929h79.941h79.951v37.329c0,26.504-1.602,39.741-5.996,45.356
		c-8.389,11.245-8.799,254.521-0.391,254.521c13.174,0,18.379-16.465,18.379-59.019v-41.343h45.967h45.977v94.331v94.341h-181.484
		C1786.523,3978.549,1746.552,3977.348,1745.761,3973.735z"/>
	<path d="M690.835,3450.664c0-21.689,1.606-38.145,4.004-38.145c9.995,0,12.393-33.311,11.191-144.912
		c-1.196-103.164-1.992-116.016-7.998-122.842c-5.996-6.426-7.197-15.254-7.197-44.961v-37.334l129.116,1.611
		c121.128,1.191,129.922,1.592,147.109,9.619c24.785,11.65,45.166,33.33,53.169,56.211c7.192,22.08,8.394,75.869,1.992,99.15
		c-5.991,22.48-29.175,46.572-49.961,51.797l-17.202,4.805l14.79,6.826c37.183,16.865,55.972,54.609,51.582,103.174
		c-3.193,31.709-15.195,57.813-33.179,71.455c-25.596,19.668-40.776,21.68-174.282,21.68H690.835V3450.664z M867.529,3400.478
		c17.983-5.225,23.184-13.652,23.184-37.324c0-24.492-9.199-35.332-33.179-37.734l-18.779-2.412v40.938
		C838.755,3409.316,838.349,3408.505,867.529,3400.478z M879.516,3239.501c9.59-5.225,16.392-29.707,13.994-50.986
		c-2.798-24.072-16.392-36.924-39.185-36.924h-15.571v48.174v48.164l17.178-2.393
		C865.132,3243.916,875.918,3241.123,879.516,3239.501z"/>
	<path d="M1106.577,3484.785c0-7.627-55.166-303.887-59.971-320.752c-2.397-8.828-5.996-17.266-7.988-18.477
		c-2.397-1.182-4.004-20.469-4.004-42.539v-39.736h71.963h71.943v38.135c0,22.07-1.587,38.135-3.989,38.135
		c-6.802,0-15.596,18.057-13.198,27.295c2.007,8.438,4.404,8.828,35.576,8.828h33.579v-12.041c0-6.816-3.594-15.654-7.988-20.078
		c-6.802-6.816-7.998-13.242-7.998-44.16v-36.113h81.943h81.953v36.113c0,30.117-1.201,38.545-8.008,47.373
		c-5.586,8.027-16.777,55.811-40.771,176.631l-33.174,165.4h-94.741C1138.149,3488.798,1106.577,3487.587,1106.577,3484.785z
		 M1204.507,3324.609c5.601-31.318,9.995-59.414,9.995-62.617c0-4.414-5.2-6.035-22.388-6.035c-21.987,0-22.388,0-19.98,11.25
		c0.796,6.016,5.996,34.912,10.791,63.828c4.795,29.307,9.59,52.588,10.386,51.777
		C1194.121,3382.412,1198.916,3355.917,1204.507,3324.609z"/>
	<path d="M1406.377,3451.875c0.4-26.504,2.002-39.756,5.996-44.971c8.789-11.65,8.789-250.088,0-261.738
		c-3.994-5.205-5.596-18.457-5.996-44.561v-37.324h79.941h79.951v38.135c0,20.869-1.592,38.135-3.193,38.135
		c-7.598,0-12.793,22.471-12.793,56.992v36.533l14.795-2.393c28.779-4.834,30.771-10.049,33.174-88.33
		c1.191-38.135,3.604-71.455,5.596-74.258c2.002-3.623,21.582-4.814,72.754-4.814h69.561v38.135c0,20.869-1.611,38.135-3.604,38.135
		c-6.807,0-11.992,22.471-13.203,58.203c-1.992,46.572-7.588,57.402-34.766,70.645c-19.99,10.049-20.791,10.85-10.791,13.252
		c16.377,4.014,37.178,25.293,45.166,45.762c5.195,13.252,7.197,29.316,6.787,53.008c0,39.736-9.59,64.219-31.963,83.896
		c-24.785,22.08-41.973,24.482-176.299,24.482h-121.113V3451.875L1406.377,3451.875z M1581.865,3400.078
		c15.186-5.225,20.381-16.455,20.381-43.35c0-27.695-10.791-40.547-34.375-40.547h-17.588v44.16c0,43.75,0,44.15,9.6,44.15
		C1564.677,3404.492,1575.068,3402.49,1581.865,3400.078z"/>
	<path d="M1774.14,3452.265c0-30.508,1.191-37.734,7.188-42.139c6.396-4.424,6.797-15.674,6.797-131.279
		c0-114.814-0.791-127.256-6.797-134.082c-5.596-6.426-7.188-15.254-7.188-44.561v-36.924h65.957h65.947v36.924
		c0,29.307-1.592,38.135-6.787,44.561c-5.996,6.426-7.598,16.855-8.408,58.604c-0.791,33.74,0,49.385,2.822,46.572
		c3.193-3.623,33.965-75.469,66.738-157.363l11.592-29.297h62.773h62.754l1.201,168.193c1.201,153.35,1.992,169.004,8.389,175.84
		c5.205,6.416,6.787,15.254,6.787,44.561v36.924h-67.939h-67.959v-34.531c0-28.496,1.602-36.113,7.988-44.551
		c7.197-9.238,7.998-16.455,7.998-60.625c0-27.686-1.201-49.365-2.393-47.764c-1.211,1.201-18.398,43.35-37.588,93.926
		l-34.766,91.533l-72.754,1.201l-72.354,0.811V3452.265L1774.14,3452.265z"/>
	<path d="M2147.9,3478.759c-5.605-5.225-10-12.441-10-16.064c0-12.441,12.393-29.707,20.791-30.107
		c1.602,0-1.611,4.414-7.197,10.449c-7.988,7.627-9.59,12.441-7.598,20.869c7.598,32.119,47.969,26.104,45.176-6.826
		c-0.801-10.43-3.604-15.645-11.201-19.268c-6.387-3.203-7.598-5.225-3.594-5.225c17.988,0,26.387,33.33,11.592,48.184
		C2175.078,3491.601,2159.492,3490.82,2147.9,3478.759z"/>
	<path d="M2158.291,3459.902c0.4-9.648,1.201-14.063,2.393-10.049c0.801,3.623,3.203,6.826,5.205,6.826s5.596-3.203,7.588-6.826
		c4.004-6.816,4.004-6.816,4.395,0c0,4.414-3.594,8.428-8.008,9.639c-4.375,1.211-7.969,4.824-7.969,7.627
		c0,6.416,10.381,7.617,13.184,1.611c1.191-2.412,1.592-2.002,1.191,0.801c-0.391,2.813-4.785,5.615-9.58,6.416
		C2158.691,3477.158,2157.89,3475.546,2158.291,3459.902z"/>
</g>
</svg>
