<svg xmlns="http://www.w3.org/2000/svg" viewBox="0 0 486.7 91.6"><title>movado-company-logo</title><path d="M203,155,170.7,83.3l-1.1.3c-1.1,10.5-2.3,21-3.4,31.6s-2.2,21.5-3.4,32.3c-.1.8-.3,1.6-.5,2.5s-.9,3.4-3.1,3.1-2-2.2-1.8-3.9c1.2-11.8,2.3-23.5,3.6-35.3,1.6-15.1,3.2-30.1,4.9-45.2.1-.8.3-1.6,1.8-2.8l35.9,78.1,36.2-78.1c2.9,4.5,2.6,9.2,3.1,13.6,2.5,21.7,4.7,43.4,7,65.1.2,1.5.3,3,.3,4.5s.9,4-2.1,4.1-2.9-1.9-3.1-3.8c-1.4-13.2-2.8-26.5-4.3-39.7a224.5,224.5,0,0,0-4-26L204,155Z" transform="translate(-157.3 -63.4)"/><path d="M594,155c-9.9-2.3-19.2-5.6-26.2-13.4C556,128.6,552,113.5,557,96.7s16.4-28,33.7-32.2c20.8-5,43,8.1,50.6,29.5,1.1,3,1.8,6,2.8,9.1v12c-.5,1.8-1,3.5-1.4,5.3-4.5,17.4-15.5,28.5-32.8,33.4L605,155Zm5.4-5.1c21.8,0,39.3-18,39.3-40.6s-17.9-40.9-39.2-41-38.9,18.4-39.1,40.6S577.8,149.8,599.4,149.9Z" transform="translate(-157.3 -63.4)"/><path d="M302,155c-9.9-2.2-19.2-5.6-26.2-13.4-11.7-13-15.8-28.1-10.9-44.9s16.4-28.1,33.7-32.2c23.6-5.6,47.8,11.5,52.5,36.7a45.4,45.4,0,0,1-36.2,53l-2.9.8Zm5.6-5.1c21.7,0,39.3-18.3,39.2-40.8s-18-40.7-39.5-40.8-39.1,19-39,41.3S286.1,149.9,307.6,149.9Z" transform="translate(-157.3 -63.4)"/><path d="M486,109c0-12.8.1-25.7-.1-38.5-.1-4.3,1.4-6,5.8-5.8,6.3.4,12.7-.3,19,.6,22,3.2,37.7,23.2,36.3,45.6s-14.9,38.2-34.9,41.9c-7.4,1.3-15,.5-22.5.6-3.7,0-3.6-2.7-3.6-5.3Q486,128.5,486,109Zm5.2,0c0,11.5.1,23-.1,34.5-.1,4.2,1.5,5.6,5.5,5.4s9,0,13.4-.9c15.5-3,26.1-11.6,29.8-27.2s1.1-31.5-12.5-43c-9-7.6-19.9-8.5-31.1-8.5-4,0-5.2,1.4-5.1,5.3C491.3,86,491.2,97.4,491.2,108.9Z" transform="translate(-157.3 -63.4)"/><path d="M476.9,151c.2,1.3-.3,2-1.2,2.1s-3.1,0-3.9-1.6-1.7-4-2.5-6c-2.2-5.7-4.5-11.4-6.6-17.2-1-2.9-2.6-4.3-5.8-4.2q-14.2.2-28.5,0c-3.2,0-4.8,1.4-5.9,4.2-2.3,6.2-4.8,12.4-7.2,18.6-.5,1.4-1.1,2.8-1.8,4.1s-2.3,2.6-4.1,1.8-.9-2.6-.4-3.9c2.5-6.5,5.1-13,7.6-19.5l23.9-60.9c.5-1.3.5-3.4,2.4-3.3s1.5,2,2,3.2l31.2,80C476.4,149.4,476.7,150.3,476.9,151ZM442.7,76.2l-15.2,39c-.9,2.4-.6,3.9,2.4,3.9h25.4c2.4,0,3.4-1,2.5-3.4Z" transform="translate(-157.3 -63.4)"/><path d="M383.5,139.8l12.3-37,10.9-32.7a23.1,23.1,0,0,1,1.7-4.1,2.4,2.4,0,0,1,3.1-.9c1.5.5,1.3,1.7,1,2.9s-.3,1.3-.5,1.9l-26.5,80.2a28.6,28.6,0,0,1-1.4,3.1c-2.3-.2-2.2-2-2.6-3.3q-13.6-40-27-80c-.5-1.5-2.1-3.7.4-4.7s3.8,1.1,4.6,3.3l1,2.8,7.9,23.7,13,38.9C381.8,135.3,382.4,136.9,383.5,139.8Z" transform="translate(-157.3 -63.4)"/></svg>