<svg xmlns="http://www.w3.org/2000/svg" viewBox="0 0 532.8 359.9"><defs><style>.a{fill:#fff;}</style></defs><title>sheplers</title><path class="a" d="M1,361V1.1H533.8V361ZM291,223.8,326.4,72.1H208.2l10.9,46.5,23.7,101.1c.5,2.1.5,4.2,3.7,4.1C261.2,223.7,275.9,223.8,291,223.8ZM8.1,9.5l-.6.3c.7,1.6,1.3,3.3,2,4.9,12.9,29.6,25.9,59.1,38.8,88.7,1.5,3.4,3.1,4.6,6.9,4.6,44.3-.2,88.6,0,132.9-.2,4.2,0,6.1,1.4,7.8,5,6.7,14.5,13.7,28.9,20.6,43.3l10.7,22c-7.1-30.4-15-60.4-22.6-90.5-1.1-4.4-3-5.3-7.1-5.3l-131.4.2c-3.7,0-6.1-.9-8.2-4.1C52,69.9,45.9,61.8,39.9,53.6ZM527,10.6l-.7-.4L523,14.6C507.7,35.8,492.4,57,477.2,78.2c-2.2,3.1-4.5,4.2-8.2,4.2-44-.1-88,0-131.9-.2-4.2,0-5.7,1.4-6.7,5.3-5,20-10.2,39.9-15.4,59.9l-7.9,30.3a7.9,7.9,0,0,0,2.5-3.3c9.9-20.7,19.9-41.4,29.7-62.2,1.6-3.4,3.4-4.5,7.1-4.5l133.4.2c3.4,0,5.2-.9,6.6-4.2,12.8-29.6,25.8-59.1,38.7-88.7C525.9,13.6,526.4,12.1,527,10.6ZM94.8,243.5H64.6v5.2c8,1.2,8.2,1.3,8.2,9.2,0,11-.1,22-.3,33-.1,8.8-.2,8.8-8,11.4v7l30-3.3v-6.6l-1.2,1.1c-2.1-1.5-5.9-2.8-6.1-4.6-.8-6.2-.3-12.5-.3-19.4h26.5c0,4,0,8,0,11.9,0,8.4,0,8.4-8,10.5V305l30.4-2.5v-5.3c-8.1-1.4-8.1-1.4-8.1-9.7,0-9.8.1-19.7.1-29.5,0-8.2,0-8.2,8-9.6v-4.8H105.1l.3,5.1c3.4.9,8-.5,8.1,4.9s0,10.2,0,15.5c-4.9.3-9.2.6-13.5.8s-8.5,0-13.1,0c0-4,0-7.6,0-11.2,0-8.4,0-8.4,7.9-10.2ZM431,278.6l1.2-.9a43.6,43.6,0,0,1,4.9,4.4c6.2,7.4,12.2,15,18.4,22.4,1.1,1.3,2.6,2.9,4.1,3.2,4.9.9,9.8,1.1,14.7,1.6,1.1-6.4,1.1-6.4-3.5-8.7a7.8,7.8,0,0,1-2.5-1.6l-19.6-23c2.8-.9,4.9-1.5,6.9-2.3a14.1,14.1,0,0,0,9.1-14.6c-.5-8-5.6-14.1-14.9-14.7-14.4-.9-28.8-.2-43.5-.2v4.1c10.3,1.6,9.5.7,9.6,11.7.1,8.5.1,17,.1,25.5,0,10.2,0,10.2-9.4,12.1v5.2l33.8,2.9v-6.1c-9.4-2.6-9.4-2.6-9.4-12.5Q431,282.8,431,278.6Zm-39-35.2H337.9l.3,4.7c1.8.3,3.6,0,4.7.8s4,2.9,4.1,4.5c.4,11.8.2,23.6.2,35.4,0,3.1-1.6,4.6-4.4,4.9l-4.7.6.3,5,58.3,2.8V284.9c-3.1-1-4.5-.7-6,2.5s-4.5,5.8-7.3,6.4c-4.9,1-10.3.5-15.3-.1-1.8-.2-4.6-2.6-4.8-4.2-.6-5.2-.2-10.5-.2-16.1,4.8.4,9.9.1,11.4,6,1,4,3.3,3.8,6.3,3.1v-24h-5.3c-2.7,8.2-4.6,9.5-12.4,8.5-.1-1.1-.4-2.2-.4-3.3-.6-15.5,1.7-17.5,17-13.3a10.8,10.8,0,0,1,6.4,5.5c1.4,3.4,3,3.8,6.3,2.8ZM146.5,248c9.4,1.8,9.4,1.8,9.4,11.2s0,16.7-.1,25-.1,9.8-9.3,12.5v5.1l58.7-3V283c-3.1-1-4.9-.4-6.2,2.9s-3,5.2-5,5.6a89.5,89.5,0,0,1-18.1,1.7c-1.6,0-4.3-2.7-4.5-4.3-.6-5-.2-10.2-.2-15.2,8.3-.6,9.8.3,13.1,8.2l4.6-.4V256.7c-2.5,1.5-5,2.1-5.6,3.5-2.7,6.2-4.7,7.5-12.3,6.7,0-4.9-.1-9.9.1-14.8a3.8,3.8,0,0,1,2.2-2.7c8.7-2.8,19.1,1.5,23,9.4l4.4-.4V243.5H146.5Zm342.2,59.4c5.8,4.3,13.4,6.1,21.7,5.5,12-.8,19.3-8.9,18.5-20.9-.7-9.7-6.7-15.6-14.7-19.9-5.4-2.9-11.2-5.3-16.1-8.9-2-1.4-3.6-5.7-3-7.9s4.1-4.7,6.8-5.3c7.8-1.6,13.1,2.2,16.4,11.1,1.2,3.3,2.9,4.5,6.3,3.3V243.3l-8.1,3a26.8,26.8,0,0,0-20.7-2c-7.1,2.2-11.9,6.6-13.3,14.1a16.6,16.6,0,0,0,7,17.5c4.2,3,8.8,5.3,13.2,8a67.9,67.9,0,0,1,9.4,6.5c3.2,2.9,4,6.9,2.4,11s-5.3,5.1-9.4,5.1c-8.6-.2-14.6-5.1-17.8-15.5-1.1-3.6-2.7-4.5-6.1-3.3V311ZM44.2,245.9a74.2,74.2,0,0,0-7.9-2.4c-14.8-3-26.8,6.7-26.2,20.8.3,7.5,4.7,12.3,11,15.4s11,4.8,16.3,7.5c3.7,1.8,6,4.9,5.6,9.2s-2.9,7.3-6.9,9c-8.5,3.5-16.1.6-19.8-7.9-1-2.3-1.7-4.7-2.9-8.2-1.8,1.4-4.3,2.5-4.4,3.7-.4,6.7-.2,13.5-.2,21.6l7.4-3.9c11.4,5,22.9,3.3,33-4.7s10.1-24.4-2-31.9a85.5,85.5,0,0,0-9.4-4.5c-3.8-1.7-7.7-3.2-11.3-5.2s-5.5-4.8-3.8-8.2,4.2-5.3,7-6c7.4-2,13.2,1.8,16.5,10.1,1.3,3.4,3,4.4,6.5,3V243.5Zm170.2,2.3c3.9,1.2,9.1-.7,9,5.9-.2,11.3-.2,22.7-.1,34,0,3.3-1.5,4.9-4.7,5.2-1.4.1-2.8.5-4.4.7l.2,4.3h33.4c1.1-3.7.4-5.3-3.2-5.3s-5.6-.3-5.7-4.1,0-9.3,0-14.6c2.4,0,4.4.3,6.3-.1,6.6-1.3,13.4-2.2,19.7-4.4s7.1-6.4,7-11.7-2.9-8.8-7.4-11c-2.5-1.2-5.3-2.5-8-2.7-13.9-.8-27.8-1.2-42-1.8Zm61-.1c4,.9,8.6,0,8.6,5.9-.1,11.1-.1,22.3,0,33.4,0,3.4-1.6,5.3-5,5.5l-3.6.5.4,5h55.6V282.1h-5.2c-.8,7.7-5.9,10.1-12.5,10.3a69.1,69.1,0,0,1-7.5-.1c-6.5-.5-7.9-1.9-8-8.2-.1-10,0-20-.1-29.9,0-3.3,1.1-5.3,4.8-5.6s4.3-.6,3.3-5.1H275.4Zm28.4,103,1.8-.2V330.2l-1.7-.3-1,8.9h-8.5l-1.3-8.9-1.6.3v20.6l1.7.3,1.1-9.5h8.5ZM69.1,334.2c5,6.3,7,12.9,13.3,17.8-.3-8.2.8-15.1-.6-21.8H80.1v15.5c-5-5.5-6.4-12.4-12.5-16.5v21.6h1.4Zm61.2,12c-5-6.1-6.8-12.7-12.6-17.4v22.1h1.5V334.3c5,6.1,6.9,12.8,13.2,17.6-.3-8.2.8-15.1-.7-21.8h-1.4ZM43,340.2c-.2,6.2,3.6,10.7,9.1,10.8s9.5-4.3,9.6-10.4-3.5-10.3-8.9-10.5S43.2,334,43,340.2Zm339.2,10.6H384V333.9c2.6,4.3,4.1,7.5,6.2,10.2s2,6.7,6.3,6.8V330.2h-1.3v16.5c-5.1-6.1-6.9-12.9-12.9-17.6Zm82.3-10.3c-2.7,2.6-5.1,5.3-1.5,8.8a7.5,7.5,0,0,0,10-.3c3.2-3.4,1.7-6.2-1.6-8.6,2.4-2.6,4-5.2.9-7.9s-6-2.2-8.6.2S462,338.1,464.5,340.5ZM141,330.2c-3.9,3.7-3.4,16.1-.4,19s11.3,2,12.3-2.9.6-10.2.6-15.3c0-.3-1.2-.6-2.5-1.2,0,4.3,0,8.1,0,11.9s-.5,7.1-5,7.2-5-3.6-5-7.1S141,334,141,330.2Zm184,21.2,1.7-.8c-1.4-4.2-2.5-8.4-4.2-12.5s-3-5.4-4.5-8A82.7,82.7,0,0,0,314,338c-1.6,4.1-2.9,8.4-4.2,12.6l1.8.7,3.3-7.1h6.6Zm-116.8-.9,1.1.7c.6-.5,1.5-1,1.8-1.7,1.2-2.4.8-5.7,5.4-5.7s4.5,2.7,5.6,5.4c.3.8,1.5,1.3,2.2,1.9a107.1,107.1,0,0,0-5.3-18.6,4.3,4.3,0,0,0-2.6-2.3c-.5-.1-1.8,1.2-2.1,2.1C212.2,338.3,210.3,344.4,208.3,350.5Zm-38.4-9.7v-1.6l-7.4-.4v-6.3l7.7-.8v-1.3H159.5v19.8h11.3v-1.2l-8.5-.6v-7.4Zm255.1-8.1,8.1-1.2-.2-1.2H422.4v20.1h11.2v-1.2l-8.5-.9V341h4.2c1.1-.1,2.2-.4,3.3-.6a5.9,5.9,0,0,0-3.8-1.4l-3.9-.3ZM481,350.1c4.8,1,8.2-1,10.1-5.9s.8-10.2-2.6-12.2-7.2-.8-8.4,2.6-1,5.6.3,6.8,5.2,2.2,8.5,3.4Zm24.9-5.3-9,6.1c5.6,0,9.1-1.6,10.9-5.9s2.2-8.5-1.2-12.2-7.8-2.3-9.3,1.4-1.1,5.8.2,7.3S502.4,343.5,506,344.8ZM240.6,331.7c-4.4-2.5-9.5-1.8-10.8,1.7s1.2,6.4,4.7,7.8c.5.2,1.1.3,1.3.7s2,3,3,4.5c-1.6.9-3.2,2.1-4.9,2.5s-3.1-.3-4.7-.4v1.7c2.3.2,4.9,1.2,6.9.5s5.1-2.8,5.4-4.7-2.1-4.3-3.6-6.1-5.5-4-5.2-5.2c.9-3.9,4.7-2.3,7.5-2.2C240.1,332.4,240.2,332.1,240.6,331.7Zm100.5-.3.3-.9c-2.6.1-5.4-.3-7.8.6s-3.4,3.2-3.1,4.3,2.7,3.8,4.3,5.5,2,.6,2.6,1.3,2.6,3,2.2,3.8a6.2,6.2,0,0,1-3.9,2.9c-1.7.4-3.6-.3-5.5-.5l-.2,1.8c2.7.1,5.5.9,8,.1s4.1-2.8,4.4-4.5-1.5-4.1-3-5.6-7.3-1.4-5.9-5.7C334.1,332.8,338.5,332.3,341.2,331.3Zm25.1,1.2c-3.7-3.3-8.9-2.7-10.3.8s1.1,6.4,4.6,7.9c.5.2,1,.3,1.3.7s2.1,3,3.1,4.5c-1.8.9-3.5,2.1-5.4,2.6s-2.8-.3-4.3-.5c4.5,3.7,10,2.9,11.9-.8s-.2-6-5.1-8.6c-1.6-.8-2.7-2.8-4-4.3,2-.8,3.9-1.7,5.9-2.4S365.5,332.4,366.2,332.5Zm-327.1-.6c-3.6-3-9-2.3-12.4,1.5s-3.5,11.4.3,15,9.1,3.5,12.1.5c-9.9-1-12-2.4-12.3-7.7S28.5,333.9,39.1,331.9Zm147.1-.5c-3.3-2.3-7.8-1.8-9.5,1.6s.5,6.2,3.7,7.9c.7.4,1.8.4,2.2,1s2.5,3.2,2.1,4.3-2.6,2.2-4.2,2.5-3-.3-5.3-.7c4.1,3.5,9.1,3.4,11.4.3s1.2-5.9-1.6-8.2-7.3-1.6-5.8-5.9C179.9,332.7,184,332.3,186.2,331.5Zm231,.6c-4.9-3.1-10.6-2.2-13.7,1.7s-2.9,11,.8,14.6a9.2,9.2,0,0,0,12.2.6c-10.1-1-12.6-2.8-12.5-8.6S407,332.6,417.2,332.1ZM270,350.8l2.4.2V332.7l6.6-1-.2-1.1H264.1v1.1l6,.9ZM96.1,333l6.8-1.5-.2-.8H88v1l6.3,1v18.3h1.8Zm14.4,18.9V329.7C107.5,332.6,107.3,347.7,110.5,351.8ZM256.6,330v21.8C259.7,347.4,259.5,332.4,256.6,330Zm116.7,21.4c3.4-3.2,3.3-19.1,0-21.4Zm79.3-17v16.5h1.3V330.4l-5.9,3,.3.9Z" transform="translate(-1 -1.1)"/><path d="M291,223.8c-15.1,0-29.8-.1-44.4.1-3.2,0-3.2-2-3.7-4.1L219.1,118.6,208.2,72.1H326.4Z" transform="translate(-1 -1.1)"/><path d="M8.1,9.5,39.9,53.6C45.9,61.8,52,69.9,57.7,78.3c2.2,3.2,4.6,4.1,8.2,4.1l131.4-.2c4.1,0,6,.9,7.1,5.3,7.6,30.1,15.5,60.2,22.6,90.5l-10.7-22c-6.9-14.4-13.9-28.8-20.6-43.3-1.7-3.6-3.6-5.1-7.8-5-44.3.2-88.6.1-132.9.2-3.8,0-5.5-1.2-6.9-4.6C35.3,73.8,22.3,44.3,9.4,14.7c-.7-1.6-1.3-3.3-2-4.9Z" transform="translate(-1 -1.1)"/><path d="M527,10.6c-.6,1.5-1.1,3-1.8,4.4-12.9,29.6-25.9,59.1-38.7,88.7-1.4,3.3-3.2,4.2-6.6,4.2l-133.4-.2c-3.7,0-5.6,1.1-7.1,4.5-9.7,20.8-19.7,41.5-29.7,62.2a7.9,7.9,0,0,1-2.5,3.3l7.9-30.3c5.2-20,10.4-39.9,15.4-59.9,1-3.9,2.4-5.3,6.7-5.3,44,.2,88,.1,131.9.2,3.8,0,6-1.1,8.2-4.2C492.4,57,507.7,35.8,523,14.6l3.2-4.4Z" transform="translate(-1 -1.1)"/><path d="M94.8,243.5v4.8c-7.9,1.8-7.9,1.8-7.9,10.2,0,3.6,0,7.3,0,11.2,4.6,0,8.9.1,13.1,0s8.6-.5,13.5-.8c0-5.3.1-10.4,0-15.5s-4.7-4-8.1-4.9l-.3-5.1h30.7v4.8c-8,1.4-8,1.4-8,9.6,0,9.8-.1,19.7-.1,29.5,0,8.3,0,8.3,8.1,9.7v5.3L105.4,305v-6.1c8-2.1,8-2.1,8-10.5,0-4,0-8,0-11.9H86.9c0,6.9-.5,13.2.3,19.4.2,1.8,4,3.1,6.1,4.6l1.2-1.1V306l-30,3.3v-7c7.7-2.6,7.8-2.6,8-11.4.2-11,.2-22,.3-33,0-7.9-.2-8-8.2-9.2v-5.2Z" transform="translate(-1 -1.1)"/><path d="M431,278.6q0,4.2,0,8.5c0,9.9,0,9.9,9.4,12.5v6.1l-33.8-2.9v-5.2c9.5-1.8,9.5-1.8,9.4-12.1,0-8.5,0-17-.1-25.5-.1-11.1.6-10.1-9.6-11.7v-4.1c14.6,0,29.1-.7,43.5.2,9.3.6,14.4,6.8,14.9,14.7a14.1,14.1,0,0,1-9.1,14.6c-2,.8-4,1.3-6.9,2.3l19.6,23a7.8,7.8,0,0,0,2.5,1.6c4.6,2.3,4.7,2.3,3.5,8.7-4.9-.5-9.9-.8-14.7-1.6-1.5-.3-3-1.9-4.1-3.2-6.2-7.4-12.2-15-18.4-22.4a43.6,43.6,0,0,0-4.9-4.4Zm0-18.4a78.1,78.1,0,0,0,.1,8.5c.1,1.1,1.6,3.2,2.1,3.1,4.4-.9,10.1-.9,12.7-3.7s2.3-8.3,1.7-12.4-8.2-8.1-14-6.7-1.8,5.5-2.5,8.3A11.2,11.2,0,0,0,431,260.2Z" transform="translate(-1 -1.1)"/><path d="M392,243.4v15.2c-3.2,1-4.9.6-6.3-2.8a10.8,10.8,0,0,0-6.4-5.5c-15.3-4.2-17.6-2.2-17,13.3,0,1.1.3,2.2.4,3.3,7.9,1,9.7-.2,12.4-8.5h5.3v24c-3,.7-5.3.9-6.3-3.1-1.5-5.9-6.5-5.6-11.4-6,0,5.6-.4,10.9.2,16.1.2,1.6,3,4,4.8,4.2,5.1.6,10.4,1.1,15.3.1,2.8-.6,6.1-3.6,7.3-6.4s2.9-3.4,6-2.5v17.3l-58.3-2.8-.3-5,4.7-.6c2.9-.4,4.5-1.9,4.4-4.9-.1-11.8.1-23.6-.2-35.4,0-1.6-2.4-3.4-4.1-4.5s-2.9-.5-4.7-.8l-.3-4.7Z" transform="translate(-1 -1.1)"/><path d="M146.5,248v-4.6h54.1v14.9l-4.4.4c-3.9-8-14.3-12.2-23-9.4a3.8,3.8,0,0,0-2.2,2.7c-.2,5-.1,9.9-.1,14.8,7.6.8,9.5-.5,12.3-6.7.6-1.4,3.1-2,5.6-3.5v24.9l-4.6.4c-3.3-7.9-4.8-8.9-13.1-8.2,0,5-.4,10.2.2,15.2.2,1.7,2.9,4.3,4.5,4.3a89.5,89.5,0,0,0,18.1-1.7c2-.4,4.2-3.4,5-5.6s3.1-3.9,6.2-2.9v15.9l-58.7,3v-5.1c9.2-2.7,9.3-2.7,9.3-12.5s.1-16.7.1-25S155.9,249.8,146.5,248Z" transform="translate(-1 -1.1)"/><path d="M488.7,307.4l-7.6,3.6V287.6c3.4-1.2,5-.3,6.1,3.3,3.3,10.4,9.2,15.3,17.8,15.5,4.1.1,7.8-.8,9.4-5.1s.8-8.1-2.4-11a67.9,67.9,0,0,0-9.4-6.5c-4.4-2.7-9-5-13.2-8a16.6,16.6,0,0,1-7-17.5c1.4-7.5,6.3-11.9,13.3-14.1a26.8,26.8,0,0,1,20.7,2l8.1-3v21.2c-3.4,1.2-5.1,0-6.3-3.3-3.3-8.9-8.6-12.7-16.4-11.1-2.6.5-6.1,3-6.8,5.3s1,6.5,3,7.9c4.9,3.6,10.7,6,16.1,8.9,8,4.3,14.1,10.2,14.7,19.9.8,12-6.5,20-18.5,20.9C502.2,313.5,494.6,311.8,488.7,307.4Z" transform="translate(-1 -1.1)"/><path d="M44.2,245.9l8.4-2.4v19.8c-3.4,1.4-5.1.4-6.5-3-3.3-8.3-9.1-12.1-16.5-10.1-2.7.7-5.7,3.4-7,6s.6,6.5,3.8,8.2,7.5,3.5,11.3,5.2a85.5,85.5,0,0,1,9.4,4.5c12.2,7.5,13.3,23,2,31.9s-21.6,9.7-33,4.7l-7.4,3.9c0-8.1-.2-14.8.2-21.6.1-1.2,2.6-2.2,4.4-3.7,1.2,3.6,1.9,6,2.9,8.2,3.7,8.4,11.2,11.4,19.8,7.9,4-1.7,6.5-4.6,6.9-9s-1.9-7.4-5.6-9.2c-5.4-2.7-11-4.8-16.3-7.5s-10.7-7.9-11-15.4c-.6-14.1,11.4-23.8,26.2-20.8A74.2,74.2,0,0,1,44.2,245.9Z" transform="translate(-1 -1.1)"/><path d="M214.4,248.1v-5.5c14.1.6,28.1,1,42,1.8,2.7.2,5.4,1.5,8,2.7,4.6,2.1,7.3,5.8,7.4,11s-2.1,10-7,11.7-13.1,3.1-19.7,4.4c-1.9.4-3.9.1-6.3.1,0,5.3,0,10,0,14.6s3.1,4.1,5.7,4.1,4.3,1.6,3.2,5.3H214.3l-.2-4.3c1.6-.3,3-.6,4.4-.7,3.2-.3,4.7-1.8,4.7-5.2-.1-11.3-.1-22.7.1-34C223.5,247.5,218.3,249.3,214.4,248.1Zm24.7,20.2c5.6.3,11.7,1.3,14.6-4.1a13.4,13.4,0,0,0,0-11.1c-3-5.3-8.9-4.4-14.5-3.9Z" transform="translate(-1 -1.1)"/><path d="M275.4,248v-4.5h30.7c.9,4.5,1,4.8-3.3,5.1s-4.8,2.3-4.8,5.6c.1,10-.1,20,.1,29.9.1,6.4,1.5,7.7,8,8.2a69.1,69.1,0,0,0,7.5.1c6.7-.2,11.7-2.6,12.5-10.3h5.2v16.2H275.6l-.4-5,3.6-.5c3.5-.2,5-2.1,5-5.5,0-11.1-.1-22.3,0-33.4C284,248,279.4,248.9,275.4,248Z" transform="translate(-1 -1.1)"/><path d="M303.8,351l-1-9.5h-8.5l-1.1,9.5-1.7-.3V330.2l1.6-.3,1.3,8.9h8.5l1-8.9,1.7.3v20.6Z" transform="translate(-1 -1.1)"/><path d="M69.1,334.2v16.7H67.6V329.2c6.1,4.1,7.5,11.1,12.5,16.5V330.2h1.6c1.4,6.7.4,13.6.6,21.8C76,347.1,74.1,340.4,69.1,334.2Z" transform="translate(-1 -1.1)"/><path d="M130.3,346.1v-16h1.4c1.5,6.7.4,13.6.7,21.8-6.4-4.8-8.3-11.5-13.2-17.6v16.5h-1.5V328.7C123.5,333.5,125.3,340,130.3,346.1Z" transform="translate(-1 -1.1)"/><path d="M43,340.2c.2-6.2,4.3-10.4,9.8-10.2s9,4.5,8.9,10.5-4.2,10.5-9.6,10.4S42.8,346.4,43,340.2Zm2.8.2c-.1,5,2.6,8.5,6.5,8.6s6.7-3.5,6.7-8.4-2.7-8.5-6.5-8.6S45.9,335.4,45.8,340.4Z" transform="translate(-1 -1.1)"/><path d="M382.2,350.8V329c6.1,4.7,7.8,11.5,12.9,17.6V330.2h1.3V351c-4.2-.1-4.4-4.5-6.3-6.8s-3.6-5.9-6.2-10.2v16.9Z" transform="translate(-1 -1.1)"/><path d="M464.5,340.5c-2.6-2.4-3.7-5.1-.8-7.7s5.9-2.6,8.6-.2,1.5,5.3-.9,7.9c3.4,2.4,4.8,5.2,1.6,8.6a7.5,7.5,0,0,1-10,.3C459.4,345.7,461.8,343,464.5,340.5Zm3.4-.5c-1.9,2.5-3.8,4.1-3.7,5.3s2.2,3.2,3.7,3.4,3.8-2,3.7-2.7S469.8,342.8,468,339.9Zm.5.5c1.4-2.1,3-3.6,2.8-4.4a5,5,0,0,0-3.5-2.8c-.9-.1-3,2.1-2.8,2.9S466.7,338.6,468.4,340.5Z" transform="translate(-1 -1.1)"/><path d="M141,330.2c0,3.9-.1,7.8,0,11.6s.5,7.2,5,7.1,4.9-3.7,5-7.2,0-7.6,0-11.9c1.2.6,2.5.9,2.5,1.2,0,5.1.4,10.4-.6,15.3s-8.7,6.4-12.3,2.9S137.1,333.9,141,330.2Z" transform="translate(-1 -1.1)"/><path d="M325,351.4l-3.6-7.2h-6.6l-3.3,7.1-1.8-.7c1.4-4.2,2.6-8.5,4.2-12.6a82.7,82.7,0,0,1,4.1-7.9c1.5,2.7,3.3,5.2,4.5,8s2.8,8.3,4.2,12.5Zm-3.8-9.6-3.1-8.7-3,8.7Z" transform="translate(-1 -1.1)"/><path d="M208.3,350.5c2-6.1,4-12.2,6.1-18.2.3-.9,1.6-2.2,2.1-2.1a4.3,4.3,0,0,1,2.6,2.3,107.1,107.1,0,0,1,5.3,18.6c-.8-.6-1.9-1.1-2.2-1.9-1.1-2.7-1.2-5.4-5.6-5.4s-4.1,3.3-5.4,5.7c-.4.7-1.2,1.1-1.8,1.7Zm5.5-8.8h5.8l-3.1-8.7Z" transform="translate(-1 -1.1)"/><path d="M169.8,340.8l-7.5.3v7.4l8.5.6v1.2H159.5V330.5H170v1.3l-7.7.8v6.3l7.4.4Z" transform="translate(-1 -1.1)"/><path d="M424.9,332.7v6l3.9.3a5.9,5.9,0,0,1,3.8,1.4c-1.1.2-2.2.5-3.3.6h-4.2v7.4l8.5.9v1.2H422.4V330.3h10.5l.2,1.2Z" transform="translate(-1 -1.1)"/><path d="M481,350.1l7.9-5.4c-3.4-1.2-6.7-1.6-8.5-3.4s-1-4.7-.3-6.8,5.5-4.3,8.4-2.6,4.5,7.4,2.6,12.2S485.8,351.1,481,350.1Zm-.8-12.8c2.3,2.1,3.5,4.1,5.1,4.3s3.7-2.3,3.6-3.3-2.1-3.5-3.2-5.3Z" transform="translate(-1 -1.1)"/><path d="M506,344.8c-3.6-1.3-6.9-1.5-8.4-3.3s-1.1-5.1-.2-7.3,6.6-4.2,9.3-1.4,3,8,1.2,12.2-5.3,5.8-10.9,5.9Zm2-6.8-5.8-4.9c-1.1,1.6-3,3.1-3.1,4.8s2,3.7,3.2,3.8S505.3,339.9,508,338Z" transform="translate(-1 -1.1)"/><path d="M240.6,331.7c-.4.5-.5.7-.7.7-2.8,0-6.6-1.7-7.5,2.2-.3,1.3,3.6,3.3,5.2,5.2s3.9,4.3,3.6,6.1-3.2,4-5.4,4.7-4.6-.3-6.9-.5v-1.7c1.6.2,3.2.8,4.7.4s3.3-1.6,4.9-2.5c-1-1.5-1.9-3.1-3-4.5s-.9-.5-1.3-.7c-3.5-1.5-6.4-3.4-4.7-7.8S236.3,329.2,240.6,331.7Z" transform="translate(-1 -1.1)"/><path d="M341.2,331.3c-2.7,1-7.1,1.4-7.6,3.1-1.4,4.3,4,3.7,5.9,5.7s3.2,3.9,3,5.6-2.5,4-4.4,4.5-5.3,0-8-.1l.2-1.8c1.8.2,3.8.9,5.5.5a6.2,6.2,0,0,0,3.9-2.9c.4-.8-1.2-2.7-2.2-3.8s-2-.6-2.6-1.3-3.7-3.4-4.3-5.5,1.7-3.8,3.1-4.3,5.2-.4,7.8-.6Z" transform="translate(-1 -1.1)"/><path d="M366.2,332.5c-.7-.1-1.6-.5-2.2-.3s-3.9,1.6-5.9,2.4c1.3,1.5,2.3,3.5,4,4.3,4.9,2.6,6.7,5.3,5.1,8.6s-7.4,4.5-11.9.8c1.4.2,3,.9,4.3.5s3.6-1.7,5.4-2.6c-1-1.5-2-3-3.1-4.5s-.9-.5-1.3-.7c-3.5-1.5-6.4-3.5-4.6-7.9S362.5,329.2,366.2,332.5Z" transform="translate(-1 -1.1)"/><path d="M39.1,331.9c-10.6,1.9-12.6,3.4-12.3,9.3s2.4,6.7,12.3,7.7c-3,2.9-8.7,2.7-12.1-.5s-4-10.9-.3-15S35.5,328.9,39.1,331.9Z" transform="translate(-1 -1.1)"/><path d="M186.2,331.5c-2.2.9-6.3,1.3-6.9,2.9-1.5,4.3,3.5,4.1,5.8,5.9s4,5,1.6,8.2-7.3,3.2-11.4-.3c2.3.3,3.9,1,5.3.7s3.8-1.3,4.2-2.5-1.1-3-2.1-4.3-1.5-.6-2.2-1c-3.2-1.7-5.7-3.9-3.7-7.9S182.9,329.2,186.2,331.5Z" transform="translate(-1 -1.1)"/><path d="M417.2,332.1c-10.2.5-13.1,2.4-13.2,8.2s2.4,7.6,12.5,8.6a9.2,9.2,0,0,1-12.2-.6c-3.7-3.6-4.1-10.4-.8-14.6S412.3,329,417.2,332.1Z" transform="translate(-1 -1.1)"/><path d="M270,350.8V332.6l-6-.9v-1.1h14.7l.2,1.1-6.6,1V351Z" transform="translate(-1 -1.1)"/><path d="M96.1,333v18H94.4V332.7l-6.3-1v-1h14.7l.2.8Z" transform="translate(-1 -1.1)"/><path d="M110.5,351.8c-3.2-4.2-3-19.3,0-22.1Z" transform="translate(-1 -1.1)"/><path d="M256.6,330c2.8,2.4,3.1,17.5,0,21.8Z" transform="translate(-1 -1.1)"/><path d="M373.4,351.4V329.9C376.6,332.2,376.8,348.2,373.4,351.4Z" transform="translate(-1 -1.1)"/><path d="M452.6,334.3h-4.4l-.3-.9,5.9-3v20.3h-1.3Z" transform="translate(-1 -1.1)"/><path class="a" d="M431,260.2a11.5,11.5,0,0,1,0-3c.8-2.8-2.4-7.1,2.5-8.3s13.2,1.9,14,6.7.7,9.9-1.7,12.4-8.3,2.8-12.7,3.7c-.5.1-1.9-1.9-2.1-3.1A79.6,79.6,0,0,1,431,260.2Z" transform="translate(-1 -1.1)"/><path class="a" d="M239.1,268.3V249.2c5.6-.5,11.6-1.4,14.5,3.9a13.4,13.4,0,0,1,0,11.1C250.7,269.6,244.7,268.6,239.1,268.3Z" transform="translate(-1 -1.1)"/><path class="a" d="M45.8,340.4c.1-5,2.8-8.5,6.6-8.4s6.6,3.7,6.5,8.6-2.9,8.4-6.7,8.4S45.7,345.4,45.8,340.4Z" transform="translate(-1 -1.1)"/><path class="a" d="M468,339.9c1.8,2.8,3.4,4.3,3.7,6.1s-2.6,2.9-3.7,2.7-3.5-2.1-3.7-3.4S466.1,342.5,468,339.9Z" transform="translate(-1 -1.1)"/><path class="a" d="M468.4,340.5c-1.7-1.9-3.3-3-3.6-4.3s1.9-3,2.8-2.9a5,5,0,0,1,3.5,2.8C471.5,336.9,469.8,338.4,468.4,340.5Z" transform="translate(-1 -1.1)"/><path class="a" d="M321.2,341.8h-6l3-8.7Z" transform="translate(-1 -1.1)"/><path class="a" d="M213.8,341.7l2.8-8.7,3.1,8.7Z" transform="translate(-1 -1.1)"/><path class="a" d="M480.3,337.4l5.4-4.3c1.2,1.8,2.9,3.4,3.2,5.3s-2.5,3.5-3.6,3.3S482.5,339.4,480.3,337.4Z" transform="translate(-1 -1.1)"/><path class="a" d="M508,338c-2.7,1.9-4.3,3.8-5.7,3.7s-3.3-2.5-3.2-3.8,2-3.2,3.1-4.8Z" transform="translate(-1 -1.1)"/></svg>