<?xml version="1.0" encoding="utf-8"?>
<!-- Generator: Adobe Illustrator 16.0.0, SVG Export Plug-In . SVG Version: 6.00 Build 0)  -->
<!DOCTYPE svg PUBLIC "-//W3C//DTD SVG 1.1//EN" "http://www.w3.org/Graphics/SVG/1.1/DTD/svg11.dtd">
<svg version="1.1" id="Layer_1" xmlns="http://www.w3.org/2000/svg" xmlns:xlink="http://www.w3.org/1999/xlink" x="0px" y="0px"
	 width="283px" height="94px" viewBox="0 0 283 94" enable-background="new 0 0 283 94" xml:space="preserve">
<g transform="translate(0.000000,363.000000) scale(0.100000,-0.100000)">
	<path d="M999.009,3574.516c-105.264-19.795-248.901-70.981-332.432-118.296l-24.38-13.755l1.694-15.215
		c10.137-98.496,97.046-196.514,237.061-267.002l34.766-17.378l-38.14-19.57c-102.842-52.393-173.101-115.381-209.551-187.568
		c-12.07-23.906-21.968-55.283-24.136-77.5l-1.455-14.961l17.622-10.137c66.875-38.154,183.477-83.779,272.559-106.709
		c38.145-9.893,103.569-22.939,105.503-20.996c0.723,0.479,1.201,66.133,1.445,145.566c0.479,162.715-0.244,154.98,19.795,195.059
		c5.796,12.08,14.238,25.83,18.589,30.918l7.969,9.404l35.488-7.49c90.283-18.828,162.236-25.586,267.49-25.342
		c104.521,0,174.053,6.768,263.135,25.586l34.766,7.246l7.969-9.18c4.336-5.313,12.783-19.063,18.838-31.143
		c19.551-39.346,19.063-32.344,20.02-196.279l0.742-145.557l8.926,1.689c86.191,14.473,157.393,34.746,249.863,71.465
		c44.658,17.607,118.535,52.852,130.361,62.275c6.758,5.322,6.758,6.035,5.313,20.273c-6.514,55.293-39.346,114.922-91.973,165.615
		c-40.566,39.111-79.189,65.898-141.963,98.018l-38.389,19.551l22.949,10.869c142.197,67.349,233.438,165.601,248.418,267.476
		c3.369,22.944,5.791,19.805-30.42,39.595c-63.018,34.521-171.65,76.045-254.707,97.773c-35.967,9.419-97.529,21.973-106.934,21.973
		c-4.59,0-4.59-3.379-2.891-129.639c1.68-140.02,0.703-160.059-9.424-189.028c-6.035-17.622-21.504-45.869-31.152-56.729
		l-5.313-6.04l-39.824,8.208c-94.394,19.316-147.266,24.141-260.723,24.141c-113.228,0-165.376-4.824-260.737-24.141l-39.829-8.208
		l-6.758,7.969c-10.62,11.831-25.112,39.346-32.349,60.83l-6.768,19.316l-0.723,146.787c-0.723,135.908-0.967,146.533-4.829,146.294
		C1032.324,3580.552,1016.396,3577.651,999.009,3574.516z M1485.449,3193.803c16.67-3.379,43.701-10.381,60.352-15.933
		c30.43-10.137,73.408-30.898,73.154-35.244c-0.234-4.111-49.248-27.031-76.767-35.977c-95.85-31.133-217.031-31.133-312.388,0
		c-26.802,8.691-75.562,31.865-76.045,35.977c-0.483,4.346,43.696,25.342,75.806,35.967c27.759,8.931,69.287,17.861,101.396,21.724
		c4.58,0.488,34.521,0.728,66.377,0.249C1446.338,3199.844,1459.863,3198.633,1485.449,3193.803z"/>
	<path d="M2153.681,2896.386c-7.705-4.355-12.549-17.393-9.404-25.586c4.824-13.281,17.861-18.828,29.932-13.047
		c14.971,7.002,18.105,23.652,6.758,35.244C2173.008,2900.722,2164.072,2901.933,2153.681,2896.386z M2177.099,2889.14
		c6.523-6.289,7.5-13.047,3.398-21.006l-2.666-5.068l-3.145,5.547c-2.168,4.111-2.393,7.002-0.479,9.902
		c4.102,6.758,0.254,11.836-9.17,11.836h-8.447v-13.281c0-7.236,1.201-13.291,2.402-13.291c1.455,0,2.422,2.656,2.422,6.055
		c0,7.959,2.656,7.471,7.725-1.221l4.102-7.236h-8.203c-8.936,0-18.105,8.926-18.105,17.373c0,6.523,10.859,16.416,18.105,16.416
		C2168.418,2895.166,2173.965,2892.519,2177.099,2889.14z M2171.074,2883.095c0-1.201-2.178-2.412-4.824-2.412
		c-2.656,0-4.834,1.211-4.834,2.412c0,1.445,2.178,2.422,4.834,2.422C2168.896,2885.517,2171.074,2884.541,2171.074,2883.095z"/>
</g>
</svg>
