<svg xmlns="http://www.w3.org/2000/svg" viewBox="0 0 959 351.2"><title>windsor</title><path d="M-83,181c6.9-1.8,13.9-.9,20.8-.6,3.5.1,4.1,2.8,4.1,5.7.1,8.7-.2,17.3.4,26,1.1,17.3,3.2,34.5,9.9,50.7a52.7,52.7,0,0,0,6,10.3c1.4,1.9,2.5,2.3,4.2.1,6.2-8,11.1-16.6,13.9-26.4.6-2.2.1-4.3-.5-6.4a162.9,162.9,0,0,1-5.8-46.4c.1-4.8-1.1-8.1-6.4-8.9-1.7-.2-3.5-.9-3.2-3s2.2-2,3.6-2H-8.5c1.5,0,3.2.4,3.1,2.4s-1.6,1.9-2.9,2.2c-8.1,1.9-8.5,2.4-8.4,10.6.1,19.3.3,38.6,5.9,57.4A58.8,58.8,0,0,0-2.8,270c4.2,6,6,5.9,9.8-.5s6.7-15.2,8.5-23.4a206.6,206.6,0,0,0,5.2-48.5c-.2-8.2-1.4-10-9.2-12.4-1.4-.4-2.6-1-2.5-2.6s1.7-2.4,3.3-2.3a151.4,151.4,0,0,0,26.4-.3c1.5-.1,3.2-.1,3.5,2a2.4,2.4,0,0,1-2.3,2.8c-6.2.7-6,5.2-6,9.6-.1,18.8-2.5,37.2-9.6,54.7A95.9,95.9,0,0,1,5.9,278.7c-2.9,3.1-5,3.5-8.1.1a101.4,101.4,0,0,1-14.5-19.6l-2.9-5.2c-2.5.7-2.6,2.9-3.3,4.4-3.7,7.5-7.9,14.6-13.5,20.9-2.1,2.4-3.7,2.4-6.1.3-13.9-12-21.1-27.5-24.7-45.1-2.5-12.1-3.1-24.4-3.6-36.7S-71.2,185.9-83,185Z" transform="translate(83 66.2)"/><path d="M554,285l-14.3-4.6a6.5,6.5,0,0,1-5-6c-.6-5.8-1.6-11.5-2.4-17.3-.2-1.6-.7-3.6,1.3-4.3s2.9,1.1,3.7,2.5c3.1,5.5,5.7,11.3,9.5,16.4,6.1,8,15,10.9,23.4,8s10.4-9,11.4-16.2,0-13.1-6.7-16.9l-19.7-10.9-6.5-3.8c-17.1-10.4-19-30.8-3.8-44.2a42.2,42.2,0,0,1,30.3-10.9c5.6.2,7.6,2.3,7,7.8a45.9,45.9,0,0,1-2.5,10.2c-1.6,4.5-4.1,5-7.3,1.4s-7.7-7.3-13.6-7.1-11.2,3.2-13,8.3a15,15,0,0,0,4.8,17.1c4.2,3.1,8.9,5.2,13.6,7.3a137.6,137.6,0,0,1,15.5,8.2c9.9,5.9,13.4,14.9,12.3,25.9s-5.5,22.3-17.8,27.2l-5.1,2Z" transform="translate(83 66.2)"/><path d="M876,190l-2.1,6.1c-1.8,5.3-4.3,5.9-8,1.7s-6.3-6.4-11.2-6.7-10.4,1.9-13.2,7.7-3.9,13.8-4.1,20.9c-.3,16-.2,32-.1,48,0,6.7.8,7.5,7.4,8.9,1.6.3,3.7.3,3.4,2.7s-2.1,1.8-3.6,1.8c-9.6.2-19.3-.4-28.9.9-1.6.2-3.7.3-3.8-2.1s1.8-2.1,3.2-2.5c9.1-2.7,9.1-2.7,9.1-12.3,0-25.3,0-50.6.1-75.9,0-2.6-1.1-6.9,2.3-7.2s3.7,4,4.4,6.8,1.1,6.2,1.7,9.4c1.8-.8,2.1-2.4,2.8-3.5,7.9-12,19.5-16.6,33.4-16.3A8.6,8.6,0,0,1,876,182Z" transform="translate(83 66.2)"/><path d="M370.4-20c-3.3-5-5.3-10.1-8.5-14.5-9.5-13-29.5-16.8-41.2-7.6-7.9,6.2-9.4,17-3.6,25.4C324.6-5.6,334.3,3.6,343.7,13c12.1,12.1,22.7,25.3,30.3,40.7,1.8,3.6,3.5,3.6,5.7.6.3-.4.5-.9.9-1.2,9.5-6.3,8.5-15.3,6.8-24.8s-.4-19.9,6-28.5c8.2-11.2,22.5-10.4,28.3,1.9,3,6.2.6,12.1-2,17.7a79.2,79.2,0,0,1-18.8,25c-2.1,1.9-3.1,3.8-2,6.6a105,105,0,0,1,5.7,22.2c.4,3.1,1.8,4.7,5,2.4,21.5-15.4,41.1-32.9,56.9-54.2,10.2-13.7,18-28.8,19.6-46.3,2.2-24.5-11-33-32.7-29.5-14.4,2.4-26.6,9.2-37.8,18.1l-4,3c-.2.1-.6,0-1.5,0,5.6-8.1,12.7-14.2,20.1-19.9a62.8,62.8,0,0,1,34-12.9c17.6-1.4,30.5,9.8,31.8,27.5S491.9-5.1,483.5,9.9c-17.1,30.9-40.4,56.8-65.2,81.6-11.6,11.5-23.5,22.6-35.6,33.5-1,.9-2.1,2.8-3.7,1.8s-.4-2.7.1-4.1a198.7,198.7,0,0,0,12-40.1c1.5-7.6.8-15.3.8-22.9,0-1.1.1-2.5-1.4-2.8s-2.1.9-2.8,1.8c-5.7,7.7-9.5,16.4-12.4,25.4-.4,1.2-.4,2.7-2,3.6-2.8-3.9-2.5-8.8-3.9-13-5.4-16.4-14.3-30.7-25.6-43.6C334.4,20.6,325,10,316.9-1.6a66.8,66.8,0,0,1-9.5-19.2c-4.5-15.1,4.2-29.3,20.2-33.5C347.8-59.7,370.5-41.9,370.4-20ZM402.2,3c-4.9-.6-8.2,2.1-10.2,6.9-3.6,8.6-1,17,.7,25.4.6,2.7,2.6,2.4,4.1.9,5.9-5.6,11.7-11.4,14.5-19.4S410.9,3.1,402.2,3Z" transform="translate(83 66.2)"/><path d="M383.1,178.7c9.6,0,19.3.4,28.9-.1,18.5-.9,31.1,8.3,40.1,23.2,13,21.6,8.8,51.9-9.3,69-8.6,8.1-18.7,12.1-30.8,11.6s-24.2-1.8-36.4-1.2h-3c-1.6-.1-3.2-.3-3.2-2.3s1.6-2.3,3.1-2.6c8.9-2,9.2-2.4,9.2-11.8q0-34,0-68c0-1.3,0-2.7-.1-4-.4-4.7-2.1-8-7.7-7.7-1.9.1-4.6,0-4.5-2.7s2.8-2.3,4.6-2.3,6,0,9,0Zm11.2,51.6c0,12.8.1,25.6-.1,38.4,0,4.2,1.6,6.7,5.8,7.3,16.6,2.6,30.5-.5,38.4-18.9s7.3-34.7.6-52.1-20.8-23.8-38.1-20.4c-4.8,1-6.8,3.1-6.7,8.1C394.4,205.3,394.3,217.8,394.3,230.3Z" transform="translate(83 66.2)"/><path d="M235.2,237.6c0,9.5,0,19,0,28.5s.9,9.2,8.6,11.1c1.3.3,2.9.6,2.7,2.3s-1.8,1.7-3.1,1.7h-28c-1.3,0-2.9,0-3.2-1.7s1.2-2.4,2.7-2.9c7.7-2.6,7.8-2.8,7.8-10.9q0-41.2,0-82.4a27.4,27.4,0,0,1,.1-4.5c.5-3.1,2.8-4,4.3-1.4,4.3,7.7,9.8,5.3,16,3.2,16.6-5.6,32.4,1.9,40.7,18.9,5.7,11.8,6.8,24.6,7.1,37.5.2,9.8-.1,19.7.1,29.5.1,7.8,1.3,9,8.8,10.6,1.3.3,3,.3,2.9,2.1s-1.9,2-3.4,2h-30c-1.3,0-3,0-3.2-1.7s1.6-2.1,3.1-2.4c7.1-1.3,8.5-2.6,8.5-9.8,0-19,1.6-38-1.2-56.8a38.7,38.7,0,0,0-8.9-19.8c-7-8.2-15.5-8.7-23.4-1.3-6.1,5.8-9.5,12.6-9.2,21.3S235.3,228.6,235.2,237.6Z" transform="translate(83 66.2)"/><path d="M745.3,232.9c-.6,13.3-3.4,26.9-13.3,37.9-16.6,18.3-41.9,17.7-58-1.1s-16-59.9,2.5-79.1,47.3-16,60.7,8.2C742.8,209.2,745.2,220.3,745.3,232.9Zm-14.6-.4c0-2.7.2-5.3,0-8-.8-10.3-2.1-20.6-7.1-29.9-7.2-13.4-23.7-15.8-34.6-5.2-5.7,5.5-8.9,12.4-10.7,20-3,12.8-3,25.8-.9,38.7,1.3,7.8,3.8,15.2,8.5,21.7,9.7,13.5,26.4,13.5,36.1.1a37.3,37.3,0,0,0,4.8-9.3C730.1,251.5,731.1,242.1,730.8,232.6Z" transform="translate(83 66.2)"/><path d="M121,180.7h13.5c1.4,0,3.3-.4,3.6,1.7s-1.3,2.6-2.9,2.7c-5.8.5-7.2,4.1-7.2,9.3.1,23.6,0,47.3.2,70.9.1,8.8,1,9.7,9.3,11.7,1.3.3,2.8.6,2.5,2.4s-1.5,1.7-2.7,1.7h-29c-1.3,0-2.9-.1-2.9-2s1.5-2,2.8-2.4c7.1-1.9,7.6-2.4,7.6-9.8q.1-34.2,0-68.4a34.4,34.4,0,0,0-.4-6c-.8-4.5-2.8-7.8-8.1-7.8-1.7,0-4.3.2-4.1-2.4s2.6-1.7,4.1-1.7Z" transform="translate(83 66.2)"/><path d="M440.8,124.5c-2.2.3-3-4.8-5.3-.7-.1.1-1.1-.1-1.1-.3-.7-2.4-1-5,.3-7.2s3.3-1.5,5-.8,2.5,3,1.4,4.9S442,123.2,440.8,124.5Zm-1.6-6.7a5.4,5.4,0,0,0-1.5-.4.6.6,0,0,0-.5,1,.9.9,0,0,0,.8.3A5.7,5.7,0,0,0,439.2,117.8Z" transform="translate(83 66.2)"/></svg>