<?xml version="1.0" encoding="utf-8"?>
<!-- Generator: Adobe Illustrator 21.0.2, SVG Export Plug-In . SVG Version: 6.00 Build 0)  -->
<svg version="1.1" id="Layer_1" xmlns="http://www.w3.org/2000/svg" xmlns:xlink="http://www.w3.org/1999/xlink" x="0px" y="0px"
	 viewBox="0 0 792 216" style="enable-background:new 0 0 792 216;" xml:space="preserve">
<style type="text/css">
	.st0{fill:#FFFFFF;}
</style>
<g>
	<g>
		<path class="st0" d="M315.8,160.8c0-35,0-70,0-105c53.8,0,107.5,0,161.2,0c0,35,0,70,0,105C423.3,160.7,369.5,160.7,315.8,160.8z
			 M374.7,153.9c14.5-1.5,29.6-2.7,44.5-4.7c11.9-1.6,23.6-4.3,34.3-10c17.3-9.1,21.2-27.5,8.6-42.4c-9.3-11-20-20.7-32.3-28.3
			c-17.3-10.6-35.6-13-54.1-3c-11.1,6-21.8,12.6-32.3,19.6c-7.9,5.3-14.7,12-19.7,20.3c-3.6,5.9-5.6,12.3-4.7,19.3
			c1.8,12.9,12.2,23.9,25.9,26.2C354.6,152.5,364.4,152.9,374.7,153.9z"/>
		<path d="M374.7,153.9c-10.3-1-20.1-1.4-29.6-3c-13.7-2.3-24.1-13.3-25.9-26.2c-1-7,1.1-13.4,4.7-19.3c5-8.3,11.8-15,19.7-20.3
			c10.5-7,21.2-13.6,32.3-19.6c18.5-10,36.8-7.5,54.1,3c12.3,7.5,23,17.2,32.3,28.3c12.5,14.9,8.7,33.3-8.6,42.4
			c-10.8,5.6-22.5,8.4-34.3,10C404.3,151.3,389.2,152.4,374.7,153.9z M375.4,147.1c14.6-1.6,30.7-3.1,46.6-5.3
			c10.5-1.5,20.9-4.1,30.1-9.6c11.4-6.8,14.1-19.6,5.8-29.7C448.5,91,437.5,81,424.7,73.5C410,65,394.5,63.1,379,71.6
			c-10.2,5.6-20.1,11.5-29.8,17.8c-7.5,4.9-14.1,11.1-19.1,18.8c-3,4.6-4.8,9.6-4.2,15.2c1.1,9.9,9.5,18.9,20.5,20.7
			C355.5,145.6,364.7,146,375.4,147.1z"/>
		<path class="st0" d="M375.4,147.1c-10.7-1-20-1.4-29-2.9c-10.9-1.8-19.3-10.8-20.5-20.7c-0.6-5.6,1.2-10.6,4.2-15.2
			c4.9-7.7,11.5-13.9,19.1-18.8c9.7-6.3,19.7-12.3,29.8-17.8c15.5-8.5,31-6.6,45.7,1.9c12.8,7.4,23.8,17.4,33.2,28.9
			c8.3,10.1,5.7,22.9-5.8,29.7c-9.3,5.5-19.7,8.1-30.1,9.6C406.1,144,390,145.4,375.4,147.1z M372.8,116c0.1,0.1,0.3,0.1,0.4,0.2
			c2.6-6.1,5.1-12.2,7.8-18.2c0.5-1.1,1.7-2.4,2.6-2.5c2.9-0.3,5.9-0.1,9.4-0.1c-5.2,12.4-10.1,24.1-15.1,35.8
			c-0.2,0.5-1.1,1.1-1.7,1.1c-4.2,0.1-8.4,0.1-12.9,0.1c0.6-5.9,1.1-11.2,1.7-16.5c-2.6,4.6-4.7,9.3-7,14c-0.5,1-1.8,2.3-2.7,2.4
			c-3.9,0.3-7.9,0.1-12.2,0.1c1.7-10.6,3.3-20.7,4.9-30.6c-7.4-2.1-12,0.4-15.8,6.3c-9,13.8-3.8,29.3,12.1,33.9
			c4.9,1.4,10.1,2,15.1,2.3c18.9,1.1,37.7,0,56.4-3c11.8-1.9,23.7-4.1,34.4-9.9c12-6.5,14.3-18.5,5.5-28.8
			c-8.7-10.1-18.5-19.1-29.7-26.1c-12.7-7.9-26.5-11.3-41.1-5.4c-13.5,5.5-25.8,13-37.4,21.8c-0.8,0.6-1.7,0.9-2.6,1.3
			c0.3,0.4,0.6,0.8,0.9,1.3c4.4,0,8.8,0,13.7,0c-1.4,7.3-2.7,14-3.9,20.8c3-6.1,5.6-12.3,8.3-18.4c0.4-1,1.5-2.2,2.4-2.3
			c3.3-0.3,6.7-0.1,10.3-0.1C375.3,102.5,374,109.2,372.8,116z"/>
		<path d="M372.8,116c1.2-6.7,2.5-13.4,3.8-20.7c-3.7,0-7-0.2-10.3,0.1c-0.9,0.1-2,1.3-2.4,2.3c-2.7,6.1-5.3,12.4-8.3,18.4
			c1.3-6.8,2.6-13.6,3.9-20.8c-4.9,0-9.3,0-13.7,0c-0.3-0.4-0.6-0.8-0.9-1.3c0.9-0.4,1.8-0.8,2.6-1.3c11.6-8.8,23.9-16.4,37.4-21.8
			c14.6-5.9,28.3-2.6,41.1,5.4c11.3,7.1,21.1,16,29.7,26.1c8.8,10.3,6.5,22.3-5.5,28.8c-10.7,5.8-22.5,8-34.4,9.9
			c-18.7,3-37.5,4-56.4,3c-5.1-0.3-10.3-0.8-15.1-2.3c-15.9-4.6-21.1-20.1-12.1-33.9c3.9-5.9,8.5-8.4,15.8-6.3
			c-1.6,9.9-3.2,20-4.9,30.6c4.3,0,8.3,0.2,12.2-0.1c1-0.1,2.2-1.4,2.7-2.4c2.3-4.7,4.3-9.5,7-14c-0.5,5.3-1.1,10.6-1.7,16.5
			c4.5,0,8.7,0,12.9-0.1c0.6,0,1.4-0.6,1.7-1.1c5-11.7,9.9-23.4,15.1-35.8c-3.5,0-6.5-0.2-9.4,0.1c-1,0.1-2.2,1.4-2.6,2.5
			c-2.7,6-5.2,12.1-7.8,18.2C373.1,116.1,372.9,116,372.8,116z M399.8,119c-3.2,0-5.8,0-8.4,0c-0.6,0-1.3,0.1-1.8,0.4
			c-3.3,2.7-2,10.8,2,12.6c10.2,4.6,21.1-1.4,22.7-12.4c0.5-3.2-0.4-5.7-3-7.5c-2-1.5-4.3-2.6-6.1-4.3c-0.9-0.8-1.4-2.7-1.1-3.8
			c0.3-1.3,1.7-2.3,2.7-3.5c0.4,0.2,0.8,0.5,1.2,0.7c-0.2,1.6-0.4,3.3-0.7,5.4c2.2,0,4.2-0.1,6.1,0c2.7,0.3,4.6-0.3,5-3.5
			c0.4-3,0.8-6-2.7-7.3c-6.2-2.2-12.4-2.2-18,1.5c-6.7,4.5-6.5,13.8,0.1,18.3c1.1,0.8,2.3,1.5,3.3,2.4c2.2,1.8,2.5,5.6,0.4,7.6
			c-0.6,0.6-1.7,0.6-2.6,0.9c-0.2-0.8-0.6-1.6-0.5-2.4C398.6,122.6,399.2,121.1,399.8,119z M436.1,106.5c1.7,0,3.3,0.1,4.9,0
			c1.7-0.1,3.8,0.3,5-0.6c2.9-2.2,1.7-8.9-1.8-10.1c-6-2.2-12.1-2.1-17.6,1.5c-6.6,4.4-6.7,13.6-0.4,18.1c1.3,0.9,2.7,1.8,4,2.8
			c2.2,1.8,2.2,6.2-0.2,7.8c-0.6,0.4-1.6,0.5-2.4,0.3c-0.3-0.1-0.5-1.3-0.4-1.9c0.3-1.7,0.7-3.3,1.2-5.5c-3.2,0-6.1-0.1-8.9,0.1
			c-0.6,0-1.5,0.8-1.8,1.5c-3.3,7.2-0.4,12.1,7.6,12.4c1.4,0.1,2.8,0.1,4.1-0.1c7.5-0.6,11.3-3.8,13.1-11.1c1.6-6.4,0.7-8-6.7-12.8
			c-0.5-0.3-1.3-0.5-1.5-1c-0.7-1.3-1.7-2.8-1.5-4.1c0.2-1.3,1.7-2.4,2.6-3.5c0.4,0.2,0.7,0.4,1.1,0.6
			C436.5,102.8,436.3,104.4,436.1,106.5z"/>
		<path class="st0" d="M399.8,119c-0.6,2.1-1.1,3.7-1.3,5.2c-0.1,0.7,0.3,1.6,0.5,2.4c0.9-0.3,2-0.3,2.6-0.9
			c2.1-1.9,1.8-5.8-0.4-7.6c-1.1-0.9-2.2-1.6-3.3-2.4c-6.6-4.6-6.8-13.8-0.1-18.3c5.6-3.8,11.8-3.8,18-1.5c3.5,1.3,3.1,4.3,2.7,7.3
			c-0.4,3.2-2.2,3.7-5,3.5c-1.9-0.2-3.9,0-6.1,0c0.3-2.1,0.5-3.8,0.7-5.4c-0.4-0.2-0.8-0.5-1.2-0.7c-0.9,1.1-2.3,2.2-2.7,3.5
			c-0.3,1.1,0.2,3,1.1,3.8c1.8,1.7,4.1,2.9,6.1,4.3c2.6,1.9,3.5,4.3,3,7.5c-1.6,11-12.5,17-22.7,12.4c-4-1.8-5.3-9.9-2-12.6
			c0.4-0.3,1.2-0.4,1.8-0.4C393.9,118.9,396.6,119,399.8,119z"/>
		<path class="st0" d="M436.1,106.5c0.2-2.1,0.4-3.8,0.6-5.4c-0.4-0.2-0.7-0.4-1.1-0.6c-0.9,1.2-2.4,2.2-2.6,3.5
			c-0.2,1.3,0.8,2.8,1.5,4.1c0.2,0.5,1,0.7,1.5,1c7.4,4.8,8.3,6.4,6.7,12.8c-1.8,7.3-5.6,10.5-13.1,11.1c-1.4,0.1-2.7,0.1-4.1,0.1
			c-8-0.4-10.9-5.2-7.6-12.4c0.3-0.7,1.1-1.5,1.8-1.5c2.8-0.2,5.7-0.1,8.9-0.1c-0.5,2.1-1,3.8-1.2,5.5c-0.1,0.6,0.1,1.8,0.4,1.9
			c0.7,0.2,1.8,0.1,2.4-0.3c2.3-1.7,2.4-6,0.2-7.8c-1.3-1-2.6-1.9-4-2.8c-6.3-4.5-6.2-13.7,0.4-18.1c5.5-3.6,11.6-3.7,17.6-1.5
			c3.5,1.3,4.7,8,1.8,10.1c-1.2,0.9-3.3,0.5-5,0.6C439.4,106.6,437.8,106.5,436.1,106.5z"/>
	</g>
</g>
</svg>
