<?xml version="1.0" encoding="utf-8"?>
<!-- Generator: Adobe Illustrator 16.0.0, SVG Export Plug-In . SVG Version: 6.00 Build 0)  -->
<!DOCTYPE svg PUBLIC "-//W3C//DTD SVG 1.1//EN" "http://www.w3.org/Graphics/SVG/1.1/DTD/svg11.dtd">
<svg version="1.1" id="Layer_1" xmlns="http://www.w3.org/2000/svg" xmlns:xlink="http://www.w3.org/1999/xlink" x="0px" y="0px"
	 width="283px" height="94px" viewBox="0 0 283 94" enable-background="new 0 0 283 94" xml:space="preserve">
<g>
	<g>
		<path fill="#FFFFFF" d="M66,99.217c0-32.784,0-65.569,0-98.354c50.397,0,100.697,0,151,0c0,32.786,0,65.57,0,98.354
			C166.697,99.128,116.304,99.128,66,99.217z M121.173,92.755c13.582-1.404,27.727-2.532,41.684-4.402
			c11.147-1.5,22.108-4.026,32.129-9.366c16.207-8.526,19.861-25.76,8.059-39.719c-8.71-10.304-18.734-19.39-30.256-26.511
			c-16.206-9.928-33.348-12.176-50.679-2.81c-10.398,5.62-20.42,11.804-30.254,18.359C84.454,33.273,78.084,39.551,73.4,47.32
			c-3.373,5.528-5.246,11.523-4.403,18.082C70.684,77.49,80.426,87.79,93.258,89.943C102.346,91.443,111.524,91.82,121.173,92.755z"
			/>
		<path d="M121.173,92.755c-9.649-0.935-18.827-1.312-27.726-2.812C80.613,87.79,70.871,77.49,69.186,65.402
			c-0.938-6.559,1.03-12.554,4.401-18.082c4.685-7.769,11.055-14.047,18.455-19.014c9.835-6.556,19.86-12.74,30.257-18.359
			c17.329-9.367,34.471-7.025,50.676,2.81c11.521,7.026,21.545,16.113,30.255,26.511c11.71,13.959,8.149,31.192-8.054,39.719
			c-10.118,5.243-21.078,7.866-32.129,9.366C148.899,90.321,134.755,91.351,121.173,92.755z M121.829,86.383
			c13.675-1.497,28.758-2.898,43.654-4.965c9.833-1.402,19.575-3.839,28.195-8.992c10.678-6.369,13.205-18.357,5.432-27.819
			c-8.806-10.772-19.11-20.139-31.101-27.165C154.24,9.48,139.72,7.7,125.203,15.661c-9.556,5.245-18.832,10.772-27.917,16.673
			c-7.026,4.592-13.207,10.4-17.891,17.611c-2.811,4.309-4.497,8.992-3.934,14.24c1.029,9.272,8.897,17.702,19.202,19.389
			C103.188,84.98,111.808,85.355,121.829,86.383z"/>
		<path fill="#FFFFFF" d="M121.829,86.383c-10.021-0.935-18.734-1.312-27.165-2.714c-10.21-1.684-18.079-10.118-19.202-19.394
			c-0.563-5.242,1.123-9.928,3.934-14.233c4.589-7.217,10.772-13.022,17.891-17.614c9.085-5.899,18.454-11.522,27.917-16.672
			c14.517-7.963,29.037-6.183,42.806,1.778c11.99,6.934,22.295,16.3,31.101,27.073c7.773,9.462,5.338,21.45-5.432,27.819
			c-8.713,5.153-18.455,7.59-28.195,8.992C150.587,83.484,135.504,84.79,121.829,86.383z M119.394,57.252
			c0.094,0.093,0.28,0.093,0.373,0.188c2.438-5.712,4.78-11.428,7.308-17.046c0.47-1.032,1.591-2.251,2.434-2.345
			c2.717-0.28,5.528-0.092,8.806-0.092c-4.869,11.616-9.461,22.576-14.145,33.533c-0.186,0.471-1.028,1.032-1.591,1.032
			c-3.934,0.09-7.871,0.09-12.083,0.09c0.563-5.524,1.029-10.49,1.593-15.452c-2.436,4.311-4.403,8.713-6.559,13.111
			c-0.466,0.939-1.685,2.155-2.527,2.251c-3.653,0.28-7.4,0.09-11.429,0.09c1.592-9.923,3.09-19.385,4.591-28.661
			c-6.935-1.969-11.243,0.372-14.803,5.901C72.933,62.779,77.804,77.3,92.697,81.608c4.59,1.308,9.462,1.876,14.145,2.15
			c17.705,1.031,35.313,0,52.831-2.806c11.054-1.779,22.201-3.842,32.223-9.273c11.239-6.093,13.396-17.332,5.153-26.979
			c-8.151-9.459-17.329-17.892-27.819-24.448c-11.897-7.401-24.826-10.586-38.501-5.059c-12.646,5.151-24.167,12.177-35.034,20.42
			c-0.749,0.563-1.592,0.842-2.436,1.215c0.282,0.376,0.563,0.753,0.844,1.223c4.12,0,8.243,0,12.833,0
			c-1.312,6.838-2.528,13.113-3.653,19.483c2.811-5.714,5.245-11.523,7.777-17.238c0.372-0.936,1.401-2.059,2.248-2.155
			c3.09-0.28,6.274-0.09,9.647-0.09C121.735,44.606,120.517,50.885,119.394,57.252z"/>
		<path d="M119.394,57.252c1.123-6.277,2.341-12.552,3.56-19.39c-3.466,0-6.557-0.186-9.647,0.094
			c-0.847,0.092-1.876,1.218-2.248,2.153c-2.532,5.712-4.966,11.618-7.777,17.235c1.219-6.37,2.434-12.738,3.653-19.483
			c-4.589,0-8.712,0-12.833,0c-0.281-0.376-0.563-0.75-0.844-1.219c0.844-0.373,1.688-0.746,2.436-1.214
			c10.868-8.245,22.388-15.364,35.034-20.422c13.675-5.526,26.51-2.436,38.501,5.058c10.583,6.651,19.761,14.987,27.819,24.449
			c8.242,9.648,6.086,20.89-5.153,26.977c-10.021,5.434-21.075,7.497-32.223,9.273c-17.519,2.812-35.126,3.748-52.831,2.812
			c-4.78-0.28-9.648-0.747-14.145-2.156c-14.893-4.307-19.764-18.827-11.335-31.753c3.654-5.529,7.963-7.87,14.803-5.9
			c-1.501,9.274-3,18.733-4.591,28.661c4.028,0,7.775,0.186,11.429-0.089c0.936-0.098,2.062-1.312,2.527-2.251
			c2.155-4.401,4.03-8.896,6.559-13.117c-0.471,4.965-1.029,9.934-1.593,15.457c4.213,0,8.15,0,12.083-0.089
			c0.563,0,1.312-0.567,1.591-1.032c4.687-10.962,9.275-21.919,14.145-33.537c-3.277,0-6.089-0.186-8.806,0.094
			c-0.936,0.094-2.059,1.312-2.434,2.342c-2.528,5.618-4.869,11.336-7.308,17.048C119.674,57.345,119.488,57.252,119.394,57.252z
			 M144.687,60.062c-2.997,0-5.433,0-7.871,0c-0.563,0-1.215,0.096-1.685,0.376c-3.091,2.531-1.876,10.118,1.872,11.802
			c9.555,4.311,19.767-1.312,21.264-11.617c0.472-2.996-0.372-5.338-2.811-7.023c-1.871-1.401-4.024-2.434-5.711-4.026
			c-0.846-0.749-1.312-2.528-1.033-3.561c0.284-1.22,1.593-2.155,2.531-3.277c0.374,0.186,0.75,0.466,1.123,0.656
			c-0.187,1.5-0.373,3.088-0.655,5.056c2.061,0,3.936-0.093,5.714,0c2.528,0.284,4.31-0.278,4.684-3.278
			c0.376-2.81,0.748-5.617-2.528-6.84c-5.809-2.058-11.616-2.058-16.863,1.409c-6.274,4.213-6.087,12.926,0.094,17.143
			c1.032,0.746,2.155,1.401,3.091,2.242c2.063,1.69,2.344,5.251,0.377,7.122c-0.563,0.563-1.592,0.563-2.436,0.843
			c-0.19-0.745-0.563-1.5-0.47-2.244C143.56,63.434,144.122,62.031,144.687,60.062z M178.69,48.354c1.593,0,3.09,0.093,4.59,0
			c1.591-0.094,3.557,0.279,4.683-0.563c2.718-2.058,1.592-8.336-1.687-9.462c-5.622-2.058-11.337-1.964-16.485,1.409
			c-6.185,4.12-6.278,12.735-0.376,16.956c1.22,0.842,2.527,1.684,3.747,2.619c2.061,1.688,2.061,5.805-0.188,7.305
			c-0.562,0.377-1.498,0.47-2.248,0.285c-0.282-0.096-0.47-1.218-0.376-1.785c0.284-1.586,0.655-3.086,1.126-5.149
			c-2.998,0-5.715-0.09-8.336,0.094c-0.563,0-1.406,0.751-1.69,1.408c-3.089,6.744-0.372,11.332,7.123,11.611
			c1.312,0.098,2.619,0.098,3.84-0.093c7.025-0.563,10.583-3.561,12.272-10.397c1.498-5.995,0.651-7.493-6.279-11.99
			c-0.47-0.279-1.215-0.47-1.405-0.936c-0.655-1.219-1.592-2.621-1.405-3.844c0.189-1.215,1.596-2.245,2.438-3.272
			c0.372,0.186,0.656,0.372,1.028,0.558C179.063,44.89,178.876,46.389,178.69,48.354z"/>
		<path fill="#FFFFFF" d="M144.687,60.062c-0.564,1.97-1.034,3.47-1.22,4.871c-0.094,0.654,0.283,1.5,0.47,2.251
			c0.843-0.281,1.872-0.281,2.435-0.842c1.969-1.781,1.686-5.437-0.373-7.122c-1.032-0.843-2.062-1.498-3.094-2.251
			c-6.183-4.306-6.368-12.922-0.094-17.142c5.246-3.557,11.054-3.557,16.862-1.401c3.277,1.215,2.904,4.025,2.528,6.837
			c-0.372,2.997-2.059,3.468-4.684,3.281c-1.777-0.19-3.653,0-5.715,0c0.284-1.97,0.471-3.565,0.656-5.063
			c-0.372-0.186-0.748-0.466-1.122-0.656c-0.842,1.032-2.155,2.065-2.531,3.28c-0.279,1.029,0.19,2.812,1.032,3.561
			c1.685,1.592,3.84,2.719,5.712,4.03c2.438,1.774,3.281,4.026,2.812,7.024c-1.5,10.306-11.711,15.922-21.262,11.617
			c-3.747-1.689-4.966-9.276-1.875-11.805c0.376-0.282,1.125-0.375,1.686-0.375C139.157,59.968,141.689,60.062,144.687,60.062z"/>
		<path fill="#FFFFFF" d="M178.69,48.354c0.186-1.965,0.372-3.562,0.558-5.059c-0.372-0.188-0.655-0.374-1.027-0.56
			c-0.843,1.122-2.247,2.057-2.436,3.277c-0.189,1.219,0.751,2.621,1.406,3.84c0.187,0.47,0.936,0.655,1.401,0.936
			c6.935,4.497,7.778,5.994,6.278,11.992c-1.686,6.836-5.244,9.832-12.272,10.399c-1.309,0.091-2.527,0.091-3.839,0.091
			c-7.495-0.373-10.212-4.871-7.119-11.615c0.279-0.654,1.03-1.404,1.686-1.404c2.621-0.188,5.339-0.093,8.336-0.093
			c-0.47,1.964-0.936,3.558-1.121,5.15c-0.097,0.564,0.094,1.687,0.372,1.779c0.656,0.188,1.686,0.097,2.249-0.28
			c2.153-1.592,2.247-5.617,0.186-7.307c-1.216-0.935-2.435-1.778-3.746-2.62c-5.902-4.217-5.81-12.833,0.376-16.957
			c5.152-3.373,10.864-3.467,16.486-1.405c3.277,1.219,4.402,7.494,1.685,9.459c-1.121,0.846-3.091,0.469-4.683,0.566
			C181.78,48.446,180.283,48.354,178.69,48.354z"/>
	</g>
</g>
</svg>
