<?xml version="1.0" encoding="utf-8"?>
<!-- Generator: Adobe Illustrator 21.0.2, SVG Export Plug-In . SVG Version: 6.00 Build 0)  -->
<svg version="1.1" id="Layer_1" xmlns="http://www.w3.org/2000/svg" xmlns:xlink="http://www.w3.org/1999/xlink" x="0px" y="0px"
	 viewBox="0 0 1296 1728" style="enable-background:new 0 0 1296 1728;" xml:space="preserve">
<style type="text/css">
	.st0{fill:url(#SVGID_1_);}
	.st1{fill:url(#SVGID_2_);}
	.st2{fill:url(#SVGID_3_);}
	.st3{fill:url(#SVGID_4_);}
	.st4{fill:url(#SVGID_5_);}
	.st5{fill:url(#SVGID_6_);}
	.st6{fill:url(#SVGID_7_);}
</style>
<g>
	<g>
		<radialGradient id="SVGID_1_" cx="615.801" cy="845.5958" r="214.6025" gradientUnits="userSpaceOnUse">
			<stop  offset="0" style="stop-color:#00ADEE"/>
			<stop  offset="1" style="stop-color:#2E3191"/>
		</radialGradient>
		<path class="st0" d="M595.3,966.9c1.5-0.9,2.6-2.1,3.4-3.4l28.3-0.1l41.2-43.6l235.7-1v-6.7l-238.6,0.5l-43.5,46l-23.1,0.5
			c-0.2-0.6,0.4-2.7,0.1-3.3c-2.2-3.7-7.3-4.8-11.4-2.3s-5.6,7.4-3.4,11.1C586.1,968.3,591.2,969.4,595.3,966.9z"/>
	</g>
	<g>
		<radialGradient id="SVGID_2_" cx="615.801" cy="845.5958" r="214.6025" gradientUnits="userSpaceOnUse">
			<stop  offset="0" style="stop-color:#00ADEE"/>
			<stop  offset="1" style="stop-color:#2E3191"/>
		</radialGradient>
		<path class="st1" d="M725.6,863.4c-2-1.1-3.6-4-4.7-5.7l-36.7,0.6l-54.7-56.3l-300.3-8l-2.4-7.2l304.2,7.4l59.6,58.3l28.9-0.9
			c0.2-0.7,0.4-1.4,0.8-2c2.6-4.6,9.1-5.7,14.6-2.6c5.5,3.1,7.8,9.3,5.2,13.9C737.6,865.4,731.1,866.5,725.6,863.4z"/>
	</g>
	<g>
		<radialGradient id="SVGID_3_" cx="615.801" cy="845.5958" r="214.6025" gradientUnits="userSpaceOnUse">
			<stop  offset="0" style="stop-color:#00ADEE"/>
			<stop  offset="1" style="stop-color:#2E3191"/>
		</radialGradient>
		<path class="st2" d="M756.3,740.7h-12.1v-71.4c0-21.7-14.1-39.4-31.4-39.4H520.6c-17.1,0-30.9,17.4-30.9,38.8v71.9h-12.1v-71.9
			c0-28,19.3-50.9,43-50.9h192.1c24,0,43.5,23.1,43.5,51.5V740.7z"/>
	</g>
	<g>
		<g>
			<radialGradient id="SVGID_4_" cx="615.801" cy="845.5958" r="214.6025" gradientUnits="userSpaceOnUse">
				<stop  offset="0" style="stop-color:#00ADEE"/>
				<stop  offset="1" style="stop-color:#2E3191"/>
			</radialGradient>
			<path class="st3" d="M333.5,772.8c0.3-15.8,13.5-28.6,29.3-28.6h439.4v-7.1H362.7c-19.6,0-35.9,16-36.3,35.6l-4.9,314.4h74.8
				v-7.1h-69.5L333.5,772.8z"/>
		</g>
		<g>
			<radialGradient id="SVGID_5_" cx="615.801" cy="845.5958" r="214.6025" gradientUnits="userSpaceOnUse">
				<stop  offset="0" style="stop-color:#00ADEE"/>
				<stop  offset="1" style="stop-color:#2E3191"/>
			</radialGradient>
			<path class="st4" d="M857.6,737.1v7.1h43.2v290.6c0,24.9-20.3,45.2-45.2,45.2H473v7.1h382.4c28.8,0,52.3-23.5,52.3-52.3V737.1
				H857.6z"/>
		</g>
	</g>
	<g>
		<radialGradient id="SVGID_6_" cx="615.801" cy="845.5958" r="214.6025" gradientUnits="userSpaceOnUse">
			<stop  offset="0" style="stop-color:#00ADEE"/>
			<stop  offset="1" style="stop-color:#2E3191"/>
		</radialGradient>
		<path class="st5" d="M417.8,1110.2c-15.1,0-27.5-10.3-27.5-23.1s12.3-23,27.5-23c15.1,0,27.5,10.3,27.5,23
			S432.9,1110.2,417.8,1110.2z M417.8,1072.1c-10.7,0-19.4,6.7-19.4,15c0,8.3,8.7,15,19.4,15s19.4-6.7,19.4-15
			C437.2,1078.8,428.5,1072.1,417.8,1072.1z"/>
	</g>
	<g>
		<radialGradient id="SVGID_7_" cx="615.801" cy="845.5958" r="214.6025" gradientUnits="userSpaceOnUse">
			<stop  offset="0" style="stop-color:#00ADEE"/>
			<stop  offset="1" style="stop-color:#2E3191"/>
		</radialGradient>
		<path class="st6" d="M839.2,760.1c-12.7,0-23.1-8.7-23.1-19.5c0-10.7,10.3-19.5,23.1-19.5s23,8.7,23,19.5
			C862.2,751.4,851.9,760.1,839.2,760.1z M839.2,729.2c-8.3,0-15,5.1-15,11.4c0,6.3,6.7,11.4,15,11.4s15-5.1,15-11.4
			C854.2,734.4,847.4,729.2,839.2,729.2z"/>
	</g>
</g>
</svg>
