<svg id="Layer_1" data-name="Layer 1" xmlns="http://www.w3.org/2000/svg" xmlns:xlink="http://www.w3.org/1999/xlink" viewBox="0 0 680.26 555.92"><defs><style>.cls-1{fill:url(#radial-gradient);}.cls-2{fill:url(#radial-gradient-2);}.cls-3{fill:url(#radial-gradient-3);}.cls-4{fill:#fff;}.cls-5{fill:#154ca0;}.cls-6{fill:#2c2e83;}</style><radialGradient id="radial-gradient" cx="495.83" cy="711.67" r="238.86" gradientUnits="userSpaceOnUse"><stop offset="0" stop-color="#00adee"/><stop offset="1" stop-color="#2e3191"/></radialGradient><radialGradient id="radial-gradient-2" cx="650.2" cy="785.55" r="270.68" xlink:href="#radial-gradient"/><radialGradient id="radial-gradient-3" cx="306.03" cy="521.61" r="196.67" xlink:href="#radial-gradient"/></defs><title>crs digitalcart</title><path class="cls-1" d="M693.09,581c-59.54-40-115.54-96.85-173.49-143.58l7.52,37.32L298.57,985.89,475.45,799.18Z" transform="translate(-298.57 -437.44)"/><path class="cls-2" d="M695.6,589.23l-374,392.64L504.79,845.63l243.35-14.09,230.68-203C901.55,616.26,789.85,608.33,695.6,589.23Z" transform="translate(-298.57 -437.44)"/><polygon class="cls-3" points="74.65 504.43 583.63 518.39 28.43 538.79 74.65 504.43"/><path class="cls-4" d="M753.89,700.29a8.93,8.93,0,0,0-4.47,1.34l-24.1-13.24-53.72,17L473.31,600.16l-4,4.15L668.9,713.47l58.58-18.58,18.45,11.49a6.88,6.88,0,0,0-.19,1.72c.12,4.19,4,7.47,8.57,7.34s8.26-3.63,8.15-7.81S758.51,700.16,753.89,700.29Z" transform="translate(-298.57 -437.44)"/><path class="cls-4" d="M750,728.1a9.33,9.33,0,0,0-4.93,1.58l-26.66-15.83-66.14,18.26L461.1,622.41,459,627.06,656.14,743.6l64.67-22,20.41,13.73a8.81,8.81,0,0,0-.2,2.05,9.24,9.24,0,1,0,9-9.29Z" transform="translate(-298.57 -437.44)"/><path class="cls-4" d="M719.78,757.94a8.93,8.93,0,0,0-4.47,1.34L691.21,746l-53.72,17L439.2,657.81l-4,4.15L634.79,771.11l58.58-18.58L711.82,764a6.88,6.88,0,0,0-.19,1.72c.12,4.19,4,7.47,8.57,7.34s8.26-3.63,8.15-7.81S724.39,757.81,719.78,757.94Z" transform="translate(-298.57 -437.44)"/><ellipse class="cls-5" cx="426.34" cy="526.41" rx="17.66" ry="13.68"/><ellipse class="cls-6" cx="112.68" cy="538.79" rx="18.87" ry="17.13"/></svg>